<svg width="415" height="78" viewBox="0 0 415 78" fill="none" xmlns="http://www.w3.org/2000/svg">
<path d="M13.3333 6.66667L13.3333 0L46.6667 0V6.66667L13.3333 6.66667ZM6.66667 13.3333L6.66667 6.66667L13.3333 6.66667V13.3333H6.66667ZM46.6667 13.3333V6.66667L53.3333 6.66667V13.3333L46.6667 13.3333ZM0 46.6667L0 13.3333L6.66667 13.3333L6.66667 46.6667H0ZM6.66667 53.3333L6.66667 46.6667H13.3333L13.3333 53.3333H6.66667ZM46.6667 53.3333V46.6667H53.3333V53.3333H46.6667ZM13.3333 60V53.3333L46.6667 53.3333V60L13.3333 60ZM78.8 60.96C75.0667 60.96 71.7067 60.1067 68.72 58.4C65.7333 56.64 63.3867 54.1867 61.68 51.04C59.9733 47.84 59.12 44.1333 59.12 39.92C59.12 35.6 59.9733 31.8667 61.68 28.72C63.44 25.52 65.8133 23.0667 68.8 21.36C71.84 19.6 75.2267 18.72 78.96 18.72C82.8 18.72 86.1867 19.6 89.12 21.36C92.1067 23.0667 94.4533 25.52 96.16 28.72C97.92 31.8667 98.8 35.5733 98.8 39.84C98.8 44.1067 97.92 47.84 96.16 51.04C94.4 54.1867 92.0267 56.64 89.04 58.4C86.0533 60.1067 82.64 60.96 78.8 60.96ZM78.88 55.2C81.1733 55.2 83.3067 54.64 85.28 53.52C87.2533 52.3467 88.8533 50.6133 90.08 48.32C91.3067 46.0267 91.92 43.2 91.92 39.84C91.92 36.4267 91.3067 33.6 90.08 31.36C88.9067 29.0667 87.3333 27.36 85.36 26.24C83.44 25.0667 81.3067 24.48 78.96 24.48C76.72 24.48 74.5867 25.0667 72.56 26.24C70.5867 27.36 68.9867 29.0667 67.76 31.36C66.5867 33.6 66 36.4267 66 39.84C66 43.2 66.5867 46.0267 67.76 48.32C68.9867 50.6133 70.56 52.3467 72.48 53.52C74.4533 54.64 76.5867 55.2 78.88 55.2ZM102.622 60L102.622 13.3333L109.289 13.3333V20H115.955V26.6667H109.289L109.289 60H102.622ZM115.955 20V13.3333L129.289 13.3333V20L115.955 20ZM142.622 20V13.3333L155.955 13.3333V20L142.622 20ZM129.289 60V20H142.622V26.6667H135.955V60H129.289ZM155.955 60V20H162.622V60H155.955ZM169.262 60V13.3333L175.929 13.3333V20H182.596V26.6667H175.929V60H169.262ZM182.596 20V13.3333L195.929 13.3333V20L182.596 20ZM209.262 20V13.3333L222.596 13.3333V20L209.262 20ZM195.929 60V20H209.262V26.6667H202.596V60L195.929 60ZM222.596 60V20H229.262V60H222.596ZM250.543 60.96C247.45 60.96 244.73 60.3467 242.383 59.12C240.09 57.8933 238.303 56 237.023 53.44C235.796 50.88 235.183 47.68 235.183 43.84V19.68H241.903V43.12C241.903 47.12 242.783 50.1333 244.543 52.16C246.303 54.1867 248.783 55.2 251.983 55.2C254.223 55.2 256.25 54.6667 258.063 53.6C259.876 52.48 261.29 50.9067 262.303 48.88C263.37 46.8 263.903 44.2667 263.903 41.28V19.68H270.623V60H264.543L264.143 52.96C262.916 55.4667 261.103 57.44 258.703 58.88C256.303 60.2667 253.583 60.96 250.543 60.96ZM276.163 60V13.3333L282.829 13.3333V20H289.496V26.6667H282.829V60H276.163ZM289.496 20V13.3333L309.496 13.3333V20L289.496 20ZM309.496 60V20H316.163V60H309.496ZM325.043 60V19.68H331.763V60L325.043 60ZM328.403 11.12C327.07 11.12 325.95 10.6933 325.043 9.84C324.19 8.93333 323.763 7.81333 323.763 6.48C323.763 5.14667 324.19 4.08 325.043 3.28C325.95 2.42666 327.07 2 328.403 2C329.683 2 330.776 2.42666 331.683 3.28C332.59 4.08 333.043 5.14667 333.043 6.48C333.043 7.81333 332.59 8.93333 331.683 9.84C330.776 10.6933 329.683 11.12 328.403 11.12ZM338.022 20V13.3333H344.689V0L351.355 0V13.3333L364.689 13.3333V20L351.355 20V53.3333H344.689V20L338.022 20ZM351.355 60V53.3333H364.689V60H351.355ZM381.381 77.6L391.221 55.52H388.901L373.061 19.68H380.341L393.461 50.48L407.221 19.68L414.181 19.68L388.421 77.6H381.381Z" fill="white"/>
</svg>
