<svg width="1037" height="234" viewBox="0 0 1037 234" fill="none" xmlns="http://www.w3.org/2000/svg">
<mask id="path-1-outside-1_358_4218" maskUnits="userSpaceOnUse" x="616.734" y="144.056" width="413" height="90" fill="black">
<rect fill="white" x="616.734" y="144.056" width="413" height="90"/>
<path d="M618.771 232.056V146.556H666.271V156.056H628.271V184.556H666.271V194.056H628.271V232.056H618.771ZM666.271 184.556V156.056H675.771V184.556H666.271ZM704.234 156.056V146.556H742.234V156.056H704.234ZM694.734 165.556V156.056H704.234V165.556H694.734ZM742.234 165.556V156.056H751.734V165.556H742.234ZM685.234 213.056V165.556H694.734V213.056H685.234ZM751.734 213.056V165.556H761.234V213.056H751.734ZM694.734 222.556V213.056H704.234V222.556H694.734ZM742.234 222.556V213.056H751.734V222.556H742.234ZM704.234 232.056V222.556H742.234V232.056H704.234ZM770.734 232.056V146.556H818.234V156.056H780.234V184.556H818.234V194.056H780.234V232.056H770.734ZM818.234 184.556V156.056H827.734V184.556H818.234ZM837.197 194.056V184.556H884.697V194.056H837.197ZM894.197 213.056V146.556H903.697V213.056H894.197ZM951.197 213.056V146.556H960.697V213.056H951.197ZM903.697 222.556V213.056H913.197V222.556H903.697ZM941.697 222.556V213.056H951.197V222.556H941.697ZM913.197 232.056V222.556H941.697V232.056H913.197ZM970.234 232.056V146.556H1017.73V156.056H979.734V184.556H1017.73V194.056H979.734V232.056H970.234ZM1017.73 184.556V156.056H1027.23V184.556H1017.73Z"/>
</mask>
<path d="M618.771 232.056V146.556H666.271V156.056H628.271V184.556H666.271V194.056H628.271V232.056H618.771ZM666.271 184.556V156.056H675.771V184.556H666.271ZM704.234 156.056V146.556H742.234V156.056H704.234ZM694.734 165.556V156.056H704.234V165.556H694.734ZM742.234 165.556V156.056H751.734V165.556H742.234ZM685.234 213.056V165.556H694.734V213.056H685.234ZM751.734 213.056V165.556H761.234V213.056H751.734ZM694.734 222.556V213.056H704.234V222.556H694.734ZM742.234 222.556V213.056H751.734V222.556H742.234ZM704.234 232.056V222.556H742.234V232.056H704.234ZM770.734 232.056V146.556H818.234V156.056H780.234V184.556H818.234V194.056H780.234V232.056H770.734ZM818.234 184.556V156.056H827.734V184.556H818.234ZM837.197 194.056V184.556H884.697V194.056H837.197ZM894.197 213.056V146.556H903.697V213.056H894.197ZM951.197 213.056V146.556H960.697V213.056H951.197ZM903.697 222.556V213.056H913.197V222.556H903.697ZM941.697 222.556V213.056H951.197V222.556H941.697ZM913.197 232.056V222.556H941.697V232.056H913.197ZM970.234 232.056V146.556H1017.73V156.056H979.734V184.556H1017.73V194.056H979.734V232.056H970.234ZM1017.73 184.556V156.056H1027.23V184.556H1017.73Z" fill="white"/>
<path d="M618.771 232.056H617.221V233.605H618.771V232.056ZM618.771 146.556V145.006H617.221V146.556H618.771ZM666.271 146.556H667.821V145.006H666.271V146.556ZM666.271 156.056V157.605H667.821V156.056H666.271ZM628.271 156.056V154.506H626.721V156.056H628.271ZM628.271 184.556H626.721V186.105H628.271V184.556ZM666.271 184.556H667.821V183.006H666.271V184.556ZM666.271 194.056V195.605H667.821V194.056H666.271ZM628.271 194.056V192.506H626.721V194.056H628.271ZM628.271 232.056V233.605H629.821V232.056H628.271ZM666.271 184.556H664.721V186.105H666.271V184.556ZM666.271 156.056V154.506H664.721V156.056H666.271ZM675.771 156.056H677.321V154.506H675.771V156.056ZM675.771 184.556V186.105H677.321V184.556H675.771ZM618.771 232.056H620.321V146.556H618.771H617.221V232.056H618.771ZM618.771 146.556V148.105H666.271V146.556V145.006H618.771V146.556ZM666.271 146.556H664.721V156.056H666.271H667.821V146.556H666.271ZM666.271 156.056V154.506H628.271V156.056V157.605H666.271V156.056ZM628.271 156.056H626.721V184.556H628.271H629.821V156.056H628.271ZM628.271 184.556V186.105H666.271V184.556V183.006H628.271V184.556ZM666.271 184.556H664.721V194.056H666.271H667.821V184.556H666.271ZM666.271 194.056V192.506H628.271V194.056V195.605H666.271V194.056ZM628.271 194.056H626.721V232.056H628.271H629.821V194.056H628.271ZM628.271 232.056V230.506H618.771V232.056V233.605H628.271V232.056ZM666.271 184.556H667.821V156.056H666.271H664.721V184.556H666.271ZM666.271 156.056V157.605H675.771V156.056V154.506H666.271V156.056ZM675.771 156.056H674.221V184.556H675.771H677.321V156.056H675.771ZM675.771 184.556V183.006H666.271V184.556V186.105H675.771V184.556ZM704.234 156.056H702.684V157.605H704.234V156.056ZM704.234 146.556V145.006H702.684V146.556H704.234ZM742.234 146.556H743.783V145.006H742.234V146.556ZM742.234 156.056V157.605H743.783V156.056H742.234ZM694.734 165.556H693.184V167.105H694.734V165.556ZM694.734 156.056V154.506H693.184V156.056H694.734ZM704.234 156.056H705.783V154.506H704.234V156.056ZM704.234 165.556V167.105H705.783V165.556H704.234ZM742.234 165.556H740.684V167.105H742.234V165.556ZM742.234 156.056V154.506H740.684V156.056H742.234ZM751.734 156.056H753.283V154.506H751.734V156.056ZM751.734 165.556V167.105H753.283V165.556H751.734ZM685.234 213.056H683.684V214.605H685.234V213.056ZM685.234 165.556V164.006H683.684V165.556H685.234ZM694.734 165.556H696.283V164.006H694.734V165.556ZM694.734 213.056V214.605H696.283V213.056H694.734ZM751.734 213.056H750.184V214.605H751.734V213.056ZM751.734 165.556V164.006H750.184V165.556H751.734ZM761.234 165.556H762.783V164.006H761.234V165.556ZM761.234 213.056V214.605H762.783V213.056H761.234ZM694.734 222.556H693.184V224.105H694.734V222.556ZM694.734 213.056V211.506H693.184V213.056H694.734ZM704.234 213.056H705.783V211.506H704.234V213.056ZM704.234 222.556V224.105H705.783V222.556H704.234ZM742.234 222.556H740.684V224.105H742.234V222.556ZM742.234 213.056V211.506H740.684V213.056H742.234ZM751.734 213.056H753.283V211.506H751.734V213.056ZM751.734 222.556V224.105H753.283V222.556H751.734ZM704.234 232.056H702.684V233.605H704.234V232.056ZM704.234 222.556V221.006H702.684V222.556H704.234ZM742.234 222.556H743.783V221.006H742.234V222.556ZM742.234 232.056V233.605H743.783V232.056H742.234ZM704.234 156.056H705.783V146.556H704.234H702.684V156.056H704.234ZM704.234 146.556V148.105H742.234V146.556V145.006H704.234V146.556ZM742.234 146.556H740.684V156.056H742.234H743.783V146.556H742.234ZM742.234 156.056V154.506H704.234V156.056V157.605H742.234V156.056ZM694.734 165.556H696.283V156.056H694.734H693.184V165.556H694.734ZM694.734 156.056V157.605H704.234V156.056V154.506H694.734V156.056ZM704.234 156.056H702.684V165.556H704.234H705.783V156.056H704.234ZM704.234 165.556V164.006H694.734V165.556V167.105H704.234V165.556ZM742.234 165.556H743.783V156.056H742.234H740.684V165.556H742.234ZM742.234 156.056V157.605H751.734V156.056V154.506H742.234V156.056ZM751.734 156.056H750.184V165.556H751.734H753.283V156.056H751.734ZM751.734 165.556V164.006H742.234V165.556V167.105H751.734V165.556ZM685.234 213.056H686.783V165.556H685.234H683.684V213.056H685.234ZM685.234 165.556V167.105H694.734V165.556V164.006H685.234V165.556ZM694.734 165.556H693.184V213.056H694.734H696.283V165.556H694.734ZM694.734 213.056V211.506H685.234V213.056V214.605H694.734V213.056ZM751.734 213.056H753.283V165.556H751.734H750.184V213.056H751.734ZM751.734 165.556V167.105H761.234V165.556V164.006H751.734V165.556ZM761.234 165.556H759.684V213.056H761.234H762.783V165.556H761.234ZM761.234 213.056V211.506H751.734V213.056V214.605H761.234V213.056ZM694.734 222.556H696.283V213.056H694.734H693.184V222.556H694.734ZM694.734 213.056V214.605H704.234V213.056V211.506H694.734V213.056ZM704.234 213.056H702.684V222.556H704.234H705.783V213.056H704.234ZM704.234 222.556V221.006H694.734V222.556V224.105H704.234V222.556ZM742.234 222.556H743.783V213.056H742.234H740.684V222.556H742.234ZM742.234 213.056V214.605H751.734V213.056V211.506H742.234V213.056ZM751.734 213.056H750.184V222.556H751.734H753.283V213.056H751.734ZM751.734 222.556V221.006H742.234V222.556V224.105H751.734V222.556ZM704.234 232.056H705.783V222.556H704.234H702.684V232.056H704.234ZM704.234 222.556V224.105H742.234V222.556V221.006H704.234V222.556ZM742.234 222.556H740.684V232.056H742.234H743.783V222.556H742.234ZM742.234 232.056V230.506H704.234V232.056V233.605H742.234V232.056ZM770.734 232.056H769.184V233.605H770.734V232.056ZM770.734 146.556V145.006H769.184V146.556H770.734ZM818.234 146.556H819.783V145.006H818.234V146.556ZM818.234 156.056V157.605H819.783V156.056H818.234ZM780.234 156.056V154.506H778.684V156.056H780.234ZM780.234 184.556H778.684V186.105H780.234V184.556ZM818.234 184.556H819.783V183.006H818.234V184.556ZM818.234 194.056V195.605H819.783V194.056H818.234ZM780.234 194.056V192.506H778.684V194.056H780.234ZM780.234 232.056V233.605H781.783V232.056H780.234ZM818.234 184.556H816.684V186.105H818.234V184.556ZM818.234 156.056V154.506H816.684V156.056H818.234ZM827.734 156.056H829.283V154.506H827.734V156.056ZM827.734 184.556V186.105H829.283V184.556H827.734ZM770.734 232.056H772.283V146.556H770.734H769.184V232.056H770.734ZM770.734 146.556V148.105H818.234V146.556V145.006H770.734V146.556ZM818.234 146.556H816.684V156.056H818.234H819.783V146.556H818.234ZM818.234 156.056V154.506H780.234V156.056V157.605H818.234V156.056ZM780.234 156.056H778.684V184.556H780.234H781.783V156.056H780.234ZM780.234 184.556V186.105H818.234V184.556V183.006H780.234V184.556ZM818.234 184.556H816.684V194.056H818.234H819.783V184.556H818.234ZM818.234 194.056V192.506H780.234V194.056V195.605H818.234V194.056ZM780.234 194.056H778.684V232.056H780.234H781.783V194.056H780.234ZM780.234 232.056V230.506H770.734V232.056V233.605H780.234V232.056ZM818.234 184.556H819.783V156.056H818.234H816.684V184.556H818.234ZM818.234 156.056V157.605H827.734V156.056V154.506H818.234V156.056ZM827.734 156.056H826.184V184.556H827.734H829.283V156.056H827.734ZM827.734 184.556V183.006H818.234V184.556V186.105H827.734V184.556ZM837.197 194.056H835.647V195.605H837.197V194.056ZM837.197 184.556V183.006H835.647V184.556H837.197ZM884.697 184.556H886.246V183.006H884.697V184.556ZM884.697 194.056V195.605H886.246V194.056H884.697ZM837.197 194.056H838.746V184.556H837.197H835.647V194.056H837.197ZM837.197 184.556V186.105H884.697V184.556V183.006H837.197V184.556ZM884.697 184.556H883.147V194.056H884.697H886.246V184.556H884.697ZM884.697 194.056V192.506H837.197V194.056V195.605H884.697V194.056ZM894.197 213.056H892.647V214.605H894.197V213.056ZM894.197 146.556V145.006H892.647V146.556H894.197ZM903.697 146.556H905.246V145.006H903.697V146.556ZM903.697 213.056V214.605H905.246V213.056H903.697ZM951.197 213.056H949.647V214.605H951.197V213.056ZM951.197 146.556V145.006H949.647V146.556H951.197ZM960.697 146.556H962.246V145.006H960.697V146.556ZM960.697 213.056V214.605H962.246V213.056H960.697ZM903.697 222.556H902.147V224.105H903.697V222.556ZM903.697 213.056V211.506H902.147V213.056H903.697ZM913.197 213.056H914.746V211.506H913.197V213.056ZM913.197 222.556V224.105H914.746V222.556H913.197ZM941.697 222.556H940.147V224.105H941.697V222.556ZM941.697 213.056V211.506H940.147V213.056H941.697ZM951.197 213.056H952.746V211.506H951.197V213.056ZM951.197 222.556V224.105H952.746V222.556H951.197ZM913.197 232.056H911.647V233.605H913.197V232.056ZM913.197 222.556V221.006H911.647V222.556H913.197ZM941.697 222.556H943.246V221.006H941.697V222.556ZM941.697 232.056V233.605H943.246V232.056H941.697ZM894.197 213.056H895.746V146.556H894.197H892.647V213.056H894.197ZM894.197 146.556V148.105H903.697V146.556V145.006H894.197V146.556ZM903.697 146.556H902.147V213.056H903.697H905.246V146.556H903.697ZM903.697 213.056V211.506H894.197V213.056V214.605H903.697V213.056ZM951.197 213.056H952.746V146.556H951.197H949.647V213.056H951.197ZM951.197 146.556V148.105H960.697V146.556V145.006H951.197V146.556ZM960.697 146.556H959.147V213.056H960.697H962.246V146.556H960.697ZM960.697 213.056V211.506H951.197V213.056V214.605H960.697V213.056ZM903.697 222.556H905.246V213.056H903.697H902.147V222.556H903.697ZM903.697 213.056V214.605H913.197V213.056V211.506H903.697V213.056ZM913.197 213.056H911.647V222.556H913.197H914.746V213.056H913.197ZM913.197 222.556V221.006H903.697V222.556V224.105H913.197V222.556ZM941.697 222.556H943.246V213.056H941.697H940.147V222.556H941.697ZM941.697 213.056V214.605H951.197V213.056V211.506H941.697V213.056ZM951.197 213.056H949.647V222.556H951.197H952.746V213.056H951.197ZM951.197 222.556V221.006H941.697V222.556V224.105H951.197V222.556ZM913.197 232.056H914.746V222.556H913.197H911.647V232.056H913.197ZM913.197 222.556V224.105H941.697V222.556V221.006H913.197V222.556ZM941.697 222.556H940.147V232.056H941.697H943.246V222.556H941.697ZM941.697 232.056V230.506H913.197V232.056V233.605H941.697V232.056ZM970.234 232.056H968.684V233.605H970.234V232.056ZM970.234 146.556V145.006H968.684V146.556H970.234ZM1017.73 146.556H1019.28V145.006H1017.73V146.556ZM1017.73 156.056V157.605H1019.28V156.056H1017.73ZM979.734 156.056V154.506H978.184V156.056H979.734ZM979.734 184.556H978.184V186.105H979.734V184.556ZM1017.73 184.556H1019.28V183.006H1017.73V184.556ZM1017.73 194.056V195.605H1019.28V194.056H1017.73ZM979.734 194.056V192.506H978.184V194.056H979.734ZM979.734 232.056V233.605H981.283V232.056H979.734ZM1017.73 184.556H1016.18V186.105H1017.73V184.556ZM1017.73 156.056V154.506H1016.18V156.056H1017.73ZM1027.23 156.056H1028.78V154.506H1027.23V156.056ZM1027.23 184.556V186.105H1028.78V184.556H1027.23ZM970.234 232.056H971.783V146.556H970.234H968.684V232.056H970.234ZM970.234 146.556V148.105H1017.73V146.556V145.006H970.234V146.556ZM1017.73 146.556H1016.18V156.056H1017.73H1019.28V146.556H1017.73ZM1017.73 156.056V154.506H979.734V156.056V157.605H1017.73V156.056ZM979.734 156.056H978.184V184.556H979.734H981.283V156.056H979.734ZM979.734 184.556V186.105H1017.73V184.556V183.006H979.734V184.556ZM1017.73 184.556H1016.18V194.056H1017.73H1019.28V184.556H1017.73ZM1017.73 194.056V192.506H979.734V194.056V195.605H1017.73V194.056ZM979.734 194.056H978.184V232.056H979.734H981.283V194.056H979.734ZM979.734 232.056V230.506H970.234V232.056V233.605H979.734V232.056ZM1017.73 184.556H1019.28V156.056H1017.73H1016.18V184.556H1017.73ZM1017.73 156.056V157.605H1027.23V156.056V154.506H1017.73V156.056ZM1027.23 156.056H1025.68V184.556H1027.23H1028.78V156.056H1027.23ZM1027.23 184.556V183.006H1017.73V184.556V186.105H1027.23V184.556Z" fill="#222222" mask="url(#path-1-outside-1_358_4218)"/>
<mask id="path-3-outside-2_358_4218" maskUnits="userSpaceOnUse" x="5" y="-0.666435" width="831" height="121" fill="black">
<rect fill="white" x="5" y="-0.666435" width="831" height="121"/>
<path d="M7.11841 60.0976C7.11841 48.9456 9.63307 38.9416 14.6624 30.0856C19.6917 21.1202 26.5251 14.1229 35.1624 9.09356C43.9091 4.06423 53.5851 1.54956 64.1904 1.54956C76.6544 1.54956 87.5331 4.55623 96.8264 10.5696C106.12 16.5829 112.898 25.1109 117.162 36.1536H99.2864C96.1157 29.2656 91.5237 23.9629 85.5104 20.2456C79.6064 16.5282 72.4997 14.6696 64.1904 14.6696C56.2091 14.6696 49.0477 16.5282 42.7064 20.2456C36.3651 23.9629 31.3904 29.2656 27.7824 36.1536C24.1744 42.9322 22.3704 50.9136 22.3704 60.0976C22.3704 69.1722 24.1744 77.1536 27.7824 84.0416C31.3904 90.8202 36.3651 96.0682 42.7064 99.7856C49.0477 103.503 56.2091 105.362 64.1904 105.362C72.4997 105.362 79.6064 103.558 85.5104 99.9496C91.5237 96.2322 96.1157 90.9296 99.2864 84.0416H117.162C112.898 94.9749 106.12 103.448 96.8264 109.462C87.5331 115.366 76.6544 118.318 64.1904 118.318C53.5851 118.318 43.9091 115.858 35.1624 110.938C26.5251 105.908 19.6917 98.9656 14.6624 90.1096C9.63307 81.2536 7.11841 71.2496 7.11841 60.0976ZM132.082 83.1096C132.082 76.1656 133.487 70.0896 136.298 64.8816C139.109 59.5909 142.953 55.4989 147.83 52.6056C152.79 49.7122 158.287 48.2656 164.322 48.2656C170.274 48.2656 175.441 49.5469 179.822 52.1096C184.203 54.6722 187.469 57.8962 189.618 61.7816V49.3816H201.026V117.334H189.618V104.686C187.386 108.654 184.038 111.96 179.574 114.606C175.193 117.168 170.067 118.45 164.198 118.45C158.163 118.45 152.707 116.962 147.83 113.986C142.953 111.01 139.109 106.835 136.298 101.462C133.487 96.0882 132.082 89.9709 132.082 83.1096ZM189.618 83.2336C189.618 78.1082 188.585 73.6442 186.518 69.8416C184.451 66.0389 181.641 63.1456 178.086 61.1616C174.614 59.0949 170.77 58.0616 166.554 58.0616C162.338 58.0616 158.494 59.0536 155.022 61.0376C151.55 63.0216 148.781 65.9149 146.714 69.7176C144.647 73.5202 143.614 77.9842 143.614 83.1096C143.614 88.3176 144.647 92.8642 146.714 96.7496C148.781 100.552 151.55 103.487 155.022 105.554C158.494 107.538 162.338 108.53 166.554 108.53C170.77 108.53 174.614 107.538 178.086 105.554C181.641 103.487 184.451 100.552 186.518 96.7496C188.585 92.8642 189.618 88.3589 189.618 83.2336ZM233.859 58.6816V98.7336C233.859 102.04 234.562 104.396 235.967 105.802C237.372 107.124 239.811 107.786 243.283 107.786H251.591V117.334H241.423C235.14 117.334 230.428 115.887 227.287 112.994C224.146 110.1 222.575 105.347 222.575 98.7336V58.6816H213.771V49.3816H222.575V32.2696H233.859V49.3816H251.591V58.6816H233.859ZM261.047 83.2336C261.047 76.2069 262.452 70.0896 265.263 64.8816C268.074 59.5909 271.959 55.4989 276.919 52.6056C281.962 49.7122 287.707 48.2656 294.155 48.2656C302.504 48.2656 309.366 50.2909 314.739 54.3416C320.195 58.3922 323.791 64.0136 325.527 71.2056H313.375C312.218 67.0722 309.944 63.8069 306.555 61.4096C303.248 59.0122 299.115 57.8136 294.155 57.8136C287.707 57.8136 282.499 60.0456 278.531 64.5096C274.563 68.8909 272.579 75.1322 272.579 83.2336C272.579 91.4176 274.563 97.7416 278.531 102.206C282.499 106.67 287.707 108.902 294.155 108.902C299.115 108.902 303.248 107.744 306.555 105.43C309.862 103.115 312.135 99.8082 313.375 95.5096H325.527C323.708 102.454 320.071 108.034 314.615 112.25C309.159 116.383 302.339 118.45 294.155 118.45C287.707 118.45 281.962 117.003 276.919 114.11C271.959 111.216 268.074 107.124 265.263 101.834C262.452 96.5429 261.047 90.3429 261.047 83.2336ZM374.311 48.1416C379.436 48.1416 384.066 49.2576 388.199 51.4896C392.332 53.6389 395.556 56.9042 397.871 61.2856C400.268 65.6669 401.467 70.9989 401.467 77.2816V117.334H390.307V78.8936C390.307 72.1149 388.612 66.9482 385.223 63.3936C381.834 59.7562 377.204 57.9376 371.335 57.9376C365.383 57.9376 360.63 59.7976 357.075 63.5176C353.603 67.2376 351.867 72.6522 351.867 79.7616V117.334H340.583V25.5736H351.867V59.0536C354.099 55.5816 357.158 52.8949 361.043 50.9936C365.011 49.0922 369.434 48.1416 374.311 48.1416ZM506.154 30.9056V40.0816H482.594V117.334H471.31V40.0816H447.626V30.9056H506.154ZM553.772 48.1416C558.897 48.1416 563.527 49.2576 567.66 51.4896C571.793 53.6389 575.017 56.9042 577.332 61.2856C579.729 65.6669 580.928 70.9989 580.928 77.2816V117.334H569.768V78.8936C569.768 72.1149 568.073 66.9482 564.684 63.3936C561.295 59.7562 556.665 57.9376 550.796 57.9376C544.844 57.9376 540.091 59.7976 536.536 63.5176C533.064 67.2376 531.328 72.6522 531.328 79.7616V117.334H520.044V25.5736H531.328V59.0536C533.56 55.5816 536.619 52.8949 540.504 50.9936C544.472 49.0922 548.895 48.1416 553.772 48.1416ZM661.361 80.7536C661.361 82.9029 661.237 85.1762 660.989 87.5736H606.677C607.09 94.2696 609.363 99.5189 613.497 103.322C617.713 107.042 622.797 108.902 628.749 108.902C633.626 108.902 637.677 107.786 640.901 105.554C644.207 103.239 646.522 100.18 647.845 96.3776H659.997C658.178 102.908 654.541 108.24 649.085 112.374C643.629 116.424 636.85 118.45 628.749 118.45C622.301 118.45 616.514 117.003 611.389 114.11C606.346 111.216 602.378 107.124 599.485 101.834C596.591 96.4602 595.145 90.2602 595.145 83.2336C595.145 76.2069 596.55 70.0482 599.361 64.7576C602.171 59.4669 606.098 55.4162 611.141 52.6056C616.266 49.7122 622.135 48.2656 628.749 48.2656C635.197 48.2656 640.901 49.6709 645.861 52.4816C650.821 55.2922 654.623 59.1776 657.269 64.1376C659.997 69.0149 661.361 74.5536 661.361 80.7536ZM649.705 78.3976C649.705 74.0989 648.754 70.4202 646.853 67.3616C644.951 64.2202 642.347 61.8642 639.041 60.2936C635.817 58.6402 632.221 57.8136 628.253 57.8136C622.549 57.8136 617.671 59.6322 613.621 63.2696C609.653 66.9069 607.379 71.9496 606.801 78.3976H649.705ZM758.17 30.9056V40.0816H720.598V69.2216H751.102V78.3976H720.598V117.334H709.314V30.9056H758.17ZM777.626 38.3456C775.477 38.3456 773.658 37.6016 772.17 36.1136C770.682 34.6256 769.938 32.8069 769.938 30.6576C769.938 28.5082 770.682 26.6896 772.17 25.2016C773.658 23.7136 775.477 22.9696 777.626 22.9696C779.693 22.9696 781.429 23.7136 782.834 25.2016C784.322 26.6896 785.066 28.5082 785.066 30.6576C785.066 32.8069 784.322 34.6256 782.834 36.1136C781.429 37.6016 779.693 38.3456 777.626 38.3456ZM783.082 49.3816V117.334H771.798V49.3816H783.082ZM816.078 58.6816V98.7336C816.078 102.04 816.78 104.396 818.186 105.802C819.591 107.124 822.03 107.786 825.502 107.786H833.81V117.334H823.642C817.359 117.334 812.647 115.887 809.506 112.994C806.364 110.1 804.794 105.347 804.794 98.7336V58.6816H795.99V49.3816H804.794V32.2696H816.078V49.3816H833.81V58.6816H816.078Z"/>
</mask>
<path d="M7.11841 60.0976C7.11841 48.9456 9.63307 38.9416 14.6624 30.0856C19.6917 21.1202 26.5251 14.1229 35.1624 9.09356C43.9091 4.06423 53.5851 1.54956 64.1904 1.54956C76.6544 1.54956 87.5331 4.55623 96.8264 10.5696C106.12 16.5829 112.898 25.1109 117.162 36.1536H99.2864C96.1157 29.2656 91.5237 23.9629 85.5104 20.2456C79.6064 16.5282 72.4997 14.6696 64.1904 14.6696C56.2091 14.6696 49.0477 16.5282 42.7064 20.2456C36.3651 23.9629 31.3904 29.2656 27.7824 36.1536C24.1744 42.9322 22.3704 50.9136 22.3704 60.0976C22.3704 69.1722 24.1744 77.1536 27.7824 84.0416C31.3904 90.8202 36.3651 96.0682 42.7064 99.7856C49.0477 103.503 56.2091 105.362 64.1904 105.362C72.4997 105.362 79.6064 103.558 85.5104 99.9496C91.5237 96.2322 96.1157 90.9296 99.2864 84.0416H117.162C112.898 94.9749 106.12 103.448 96.8264 109.462C87.5331 115.366 76.6544 118.318 64.1904 118.318C53.5851 118.318 43.9091 115.858 35.1624 110.938C26.5251 105.908 19.6917 98.9656 14.6624 90.1096C9.63307 81.2536 7.11841 71.2496 7.11841 60.0976ZM132.082 83.1096C132.082 76.1656 133.487 70.0896 136.298 64.8816C139.109 59.5909 142.953 55.4989 147.83 52.6056C152.79 49.7122 158.287 48.2656 164.322 48.2656C170.274 48.2656 175.441 49.5469 179.822 52.1096C184.203 54.6722 187.469 57.8962 189.618 61.7816V49.3816H201.026V117.334H189.618V104.686C187.386 108.654 184.038 111.96 179.574 114.606C175.193 117.168 170.067 118.45 164.198 118.45C158.163 118.45 152.707 116.962 147.83 113.986C142.953 111.01 139.109 106.835 136.298 101.462C133.487 96.0882 132.082 89.9709 132.082 83.1096ZM189.618 83.2336C189.618 78.1082 188.585 73.6442 186.518 69.8416C184.451 66.0389 181.641 63.1456 178.086 61.1616C174.614 59.0949 170.77 58.0616 166.554 58.0616C162.338 58.0616 158.494 59.0536 155.022 61.0376C151.55 63.0216 148.781 65.9149 146.714 69.7176C144.647 73.5202 143.614 77.9842 143.614 83.1096C143.614 88.3176 144.647 92.8642 146.714 96.7496C148.781 100.552 151.55 103.487 155.022 105.554C158.494 107.538 162.338 108.53 166.554 108.53C170.77 108.53 174.614 107.538 178.086 105.554C181.641 103.487 184.451 100.552 186.518 96.7496C188.585 92.8642 189.618 88.3589 189.618 83.2336ZM233.859 58.6816V98.7336C233.859 102.04 234.562 104.396 235.967 105.802C237.372 107.124 239.811 107.786 243.283 107.786H251.591V117.334H241.423C235.14 117.334 230.428 115.887 227.287 112.994C224.146 110.1 222.575 105.347 222.575 98.7336V58.6816H213.771V49.3816H222.575V32.2696H233.859V49.3816H251.591V58.6816H233.859ZM261.047 83.2336C261.047 76.2069 262.452 70.0896 265.263 64.8816C268.074 59.5909 271.959 55.4989 276.919 52.6056C281.962 49.7122 287.707 48.2656 294.155 48.2656C302.504 48.2656 309.366 50.2909 314.739 54.3416C320.195 58.3922 323.791 64.0136 325.527 71.2056H313.375C312.218 67.0722 309.944 63.8069 306.555 61.4096C303.248 59.0122 299.115 57.8136 294.155 57.8136C287.707 57.8136 282.499 60.0456 278.531 64.5096C274.563 68.8909 272.579 75.1322 272.579 83.2336C272.579 91.4176 274.563 97.7416 278.531 102.206C282.499 106.67 287.707 108.902 294.155 108.902C299.115 108.902 303.248 107.744 306.555 105.43C309.862 103.115 312.135 99.8082 313.375 95.5096H325.527C323.708 102.454 320.071 108.034 314.615 112.25C309.159 116.383 302.339 118.45 294.155 118.45C287.707 118.45 281.962 117.003 276.919 114.11C271.959 111.216 268.074 107.124 265.263 101.834C262.452 96.5429 261.047 90.3429 261.047 83.2336ZM374.311 48.1416C379.436 48.1416 384.066 49.2576 388.199 51.4896C392.332 53.6389 395.556 56.9042 397.871 61.2856C400.268 65.6669 401.467 70.9989 401.467 77.2816V117.334H390.307V78.8936C390.307 72.1149 388.612 66.9482 385.223 63.3936C381.834 59.7562 377.204 57.9376 371.335 57.9376C365.383 57.9376 360.63 59.7976 357.075 63.5176C353.603 67.2376 351.867 72.6522 351.867 79.7616V117.334H340.583V25.5736H351.867V59.0536C354.099 55.5816 357.158 52.8949 361.043 50.9936C365.011 49.0922 369.434 48.1416 374.311 48.1416ZM506.154 30.9056V40.0816H482.594V117.334H471.31V40.0816H447.626V30.9056H506.154ZM553.772 48.1416C558.897 48.1416 563.527 49.2576 567.66 51.4896C571.793 53.6389 575.017 56.9042 577.332 61.2856C579.729 65.6669 580.928 70.9989 580.928 77.2816V117.334H569.768V78.8936C569.768 72.1149 568.073 66.9482 564.684 63.3936C561.295 59.7562 556.665 57.9376 550.796 57.9376C544.844 57.9376 540.091 59.7976 536.536 63.5176C533.064 67.2376 531.328 72.6522 531.328 79.7616V117.334H520.044V25.5736H531.328V59.0536C533.56 55.5816 536.619 52.8949 540.504 50.9936C544.472 49.0922 548.895 48.1416 553.772 48.1416ZM661.361 80.7536C661.361 82.9029 661.237 85.1762 660.989 87.5736H606.677C607.09 94.2696 609.363 99.5189 613.497 103.322C617.713 107.042 622.797 108.902 628.749 108.902C633.626 108.902 637.677 107.786 640.901 105.554C644.207 103.239 646.522 100.18 647.845 96.3776H659.997C658.178 102.908 654.541 108.24 649.085 112.374C643.629 116.424 636.85 118.45 628.749 118.45C622.301 118.45 616.514 117.003 611.389 114.11C606.346 111.216 602.378 107.124 599.485 101.834C596.591 96.4602 595.145 90.2602 595.145 83.2336C595.145 76.2069 596.55 70.0482 599.361 64.7576C602.171 59.4669 606.098 55.4162 611.141 52.6056C616.266 49.7122 622.135 48.2656 628.749 48.2656C635.197 48.2656 640.901 49.6709 645.861 52.4816C650.821 55.2922 654.623 59.1776 657.269 64.1376C659.997 69.0149 661.361 74.5536 661.361 80.7536ZM649.705 78.3976C649.705 74.0989 648.754 70.4202 646.853 67.3616C644.951 64.2202 642.347 61.8642 639.041 60.2936C635.817 58.6402 632.221 57.8136 628.253 57.8136C622.549 57.8136 617.671 59.6322 613.621 63.2696C609.653 66.9069 607.379 71.9496 606.801 78.3976H649.705ZM758.17 30.9056V40.0816H720.598V69.2216H751.102V78.3976H720.598V117.334H709.314V30.9056H758.17ZM777.626 38.3456C775.477 38.3456 773.658 37.6016 772.17 36.1136C770.682 34.6256 769.938 32.8069 769.938 30.6576C769.938 28.5082 770.682 26.6896 772.17 25.2016C773.658 23.7136 775.477 22.9696 777.626 22.9696C779.693 22.9696 781.429 23.7136 782.834 25.2016C784.322 26.6896 785.066 28.5082 785.066 30.6576C785.066 32.8069 784.322 34.6256 782.834 36.1136C781.429 37.6016 779.693 38.3456 777.626 38.3456ZM783.082 49.3816V117.334H771.798V49.3816H783.082ZM816.078 58.6816V98.7336C816.078 102.04 816.78 104.396 818.186 105.802C819.591 107.124 822.03 107.786 825.502 107.786H833.81V117.334H823.642C817.359 117.334 812.647 115.887 809.506 112.994C806.364 110.1 804.794 105.347 804.794 98.7336V58.6816H795.99V49.3816H804.794V32.2696H816.078V49.3816H833.81V58.6816H816.078Z" fill="white"/>
<path d="M14.6624 30.0856L16.0099 30.8508L16.0138 30.8437L14.6624 30.0856ZM35.1624 9.09356L34.39 7.75022L34.3827 7.75447L35.1624 9.09356ZM96.8264 10.5696L97.6682 9.2686V9.2686L96.8264 10.5696ZM117.162 36.1536V37.7031H119.422L118.608 35.5954L117.162 36.1536ZM99.2864 36.1536L97.8788 36.8015L98.2939 37.7031H99.2864V36.1536ZM85.5104 20.2456L84.6848 21.5569L84.6956 21.5636L85.5104 20.2456ZM42.7064 20.2456L43.4901 21.5824V21.5824L42.7064 20.2456ZM27.7824 36.1536L29.1503 36.8816L29.1551 36.8726L27.7824 36.1536ZM27.7824 84.0416L26.4097 84.7606L26.4145 84.7696L27.7824 84.0416ZM42.7064 99.7856L43.4901 98.4488V98.4488L42.7064 99.7856ZM85.5104 99.9496L86.3184 101.272L86.3252 101.268L85.5104 99.9496ZM99.2864 84.0416V82.492H98.2939L97.8788 83.3936L99.2864 84.0416ZM117.162 84.0416L118.606 84.6046L119.43 82.492H117.162V84.0416ZM96.8264 109.462L97.6574 110.77L97.6682 110.763L96.8264 109.462ZM35.1624 110.938L34.3827 112.277L34.3927 112.282L34.4027 112.288L35.1624 110.938ZM14.6624 90.1096L16.0098 89.3444L14.6624 90.1096ZM7.11841 60.0976H8.66797C8.66797 49.1877 11.1253 39.4517 16.0098 30.8508L14.6624 30.0856L13.315 29.3204C8.14081 38.4314 5.56885 48.7035 5.56885 60.0976H7.11841ZM14.6624 30.0856L16.0138 30.8437C20.9119 22.1124 27.5508 15.3187 35.9421 10.4327L35.1624 9.09356L34.3827 7.75447C25.4993 12.9271 18.4716 20.1281 13.311 29.3274L14.6624 30.0856ZM35.1624 9.09356L35.9348 10.4369C44.4343 5.54968 53.8417 3.09912 64.1904 3.09912V1.54956V0C53.3284 0 43.3838 2.57877 34.39 7.75024L35.1624 9.09356ZM64.1904 1.54956V3.09912C76.3945 3.09912 86.9728 6.03933 95.9846 11.8705L96.8264 10.5696L97.6682 9.2686C88.0934 3.07312 76.9143 0 64.1904 0V1.54956ZM96.8264 10.5696L95.9846 11.8705C104.984 17.6936 111.562 25.9517 115.717 36.7117L117.162 36.1536L118.608 35.5954C114.235 24.2701 107.256 15.4722 97.6682 9.2686L96.8264 10.5696ZM117.162 36.1536V34.604H99.2864V36.1536V37.7031H117.162V36.1536ZM99.2864 36.1536L100.694 35.5056C97.4056 28.3619 92.6168 22.8168 86.3252 18.9275L85.5104 20.2456L84.6956 21.5636C90.4307 25.1089 94.8259 30.1692 97.8788 36.8015L99.2864 36.1536ZM85.5104 20.2456L86.336 18.9343C80.141 15.0337 72.7355 13.12 64.1904 13.12V14.6696V16.2191C72.264 16.2191 79.0718 18.0227 84.6848 21.5569L85.5104 20.2456ZM64.1904 14.6696V13.12C55.958 13.12 48.522 15.0403 41.9228 18.9088L42.7064 20.2456L43.4901 21.5824C49.5735 18.0162 56.4602 16.2191 64.1904 16.2191V14.6696ZM42.7064 20.2456L41.9228 18.9088C35.3164 22.7814 30.1442 28.3051 26.4098 35.4346L27.7824 36.1536L29.1551 36.8726C32.6366 30.226 37.4137 25.1443 43.4901 21.5824L42.7064 20.2456ZM27.7824 36.1536L26.4145 35.4255C22.666 42.4683 20.8208 50.7092 20.8208 60.0976H22.3704H23.92C23.92 51.1179 25.6829 43.3962 29.1503 36.8816L27.7824 36.1536ZM22.3704 60.0976H20.8208C20.8208 69.3808 22.6676 77.6164 26.4098 84.7606L27.7824 84.0416L29.1551 83.3226C25.6813 76.6908 23.92 68.9637 23.92 60.0976H22.3704ZM27.7824 84.0416L26.4145 84.7696C30.1509 91.7895 35.3228 97.2534 41.9228 101.122L42.7064 99.7856L43.4901 98.4488C37.4073 94.883 32.6299 89.851 29.1503 83.3135L27.7824 84.0416ZM42.7064 99.7856L41.9228 101.122C48.522 104.991 55.958 106.911 64.1904 106.911V105.362V103.812C56.4602 103.812 49.5735 102.015 43.4901 98.4488L42.7064 99.7856ZM64.1904 105.362V106.911C72.7272 106.911 80.1263 105.056 86.3184 101.272L85.5104 99.9496L84.7024 98.6273C79.0866 102.059 72.2722 103.812 64.1904 103.812V105.362ZM85.5104 99.9496L86.3252 101.268C92.6168 97.3783 97.4056 91.8332 100.694 84.6895L99.2864 84.0416L97.8788 83.3936C94.8259 90.0259 90.4307 95.0862 84.6956 98.6315L85.5104 99.9496ZM99.2864 84.0416V85.5911H117.162V84.0416V82.492H99.2864V84.0416ZM117.162 84.0416L115.719 83.4785C111.565 94.1282 104.988 102.335 95.9846 108.161L96.8264 109.462L97.6682 110.763C107.252 104.562 114.231 95.8216 118.606 84.6046L117.162 84.0416ZM96.8264 109.462L95.9955 108.154C86.9822 113.88 76.4001 116.768 64.1904 116.768V118.318V119.867C76.9088 119.867 88.0839 116.851 97.6573 110.77L96.8264 109.462ZM64.1904 118.318V116.768C53.8355 116.768 44.4235 114.369 35.9221 109.587L35.1624 110.938L34.4027 112.288C43.3946 117.346 53.3346 119.867 64.1904 119.867V118.318ZM35.1624 110.938L35.9421 109.598C27.5461 104.71 20.9067 97.967 16.0098 89.3444L14.6624 90.1096L13.315 90.8748C18.4768 99.9641 25.5041 107.107 34.3827 112.277L35.1624 110.938ZM14.6624 90.1096L16.0098 89.3444C11.1253 80.7434 8.66797 71.0075 8.66797 60.0976H7.11841H5.56885C5.56885 71.4917 8.14081 81.7637 13.315 90.8748L14.6624 90.1096ZM136.298 64.8816L137.662 65.6175L137.666 65.6085L136.298 64.8816ZM147.83 52.6056L147.049 51.2671L147.039 51.2729L147.83 52.6056ZM179.822 52.1096L179.04 53.4471V53.4471L179.822 52.1096ZM189.618 61.7816L188.262 62.5316L191.168 61.7816H189.618ZM189.618 49.3816V47.832H188.068V49.3816H189.618ZM201.026 49.3816H202.576V47.832H201.026V49.3816ZM201.026 117.334V118.883H202.576V117.334H201.026ZM189.618 117.334H188.068V118.883H189.618V117.334ZM189.618 104.686H191.168V98.7701L188.267 103.926L189.618 104.686ZM179.574 114.606L180.356 115.943L180.364 115.939L179.574 114.606ZM147.83 113.986L147.023 115.308V115.308L147.83 113.986ZM136.298 101.462L137.671 100.743V100.743L136.298 101.462ZM178.086 61.1616L177.293 62.4931L177.312 62.5041L177.331 62.5146L178.086 61.1616ZM155.022 61.0376L154.253 59.6922V59.6922L155.022 61.0376ZM146.714 69.7176L148.075 70.4575V70.4575L146.714 69.7176ZM146.714 96.7496L145.346 97.4773L145.353 97.4895L146.714 96.7496ZM155.022 105.554L154.229 106.885L154.241 106.892L154.253 106.899L155.022 105.554ZM178.086 105.554L178.855 106.899L178.865 106.893L178.086 105.554ZM186.518 96.7496L187.88 97.4895L187.886 97.4773L186.518 96.7496ZM132.082 83.1096H133.632C133.632 76.3778 134.993 70.5631 137.662 65.6175L136.298 64.8816L134.934 64.1456C131.982 69.616 130.532 75.9533 130.532 83.1096H132.082ZM136.298 64.8816L137.666 65.6085C140.352 60.5542 144.002 56.6782 148.621 53.9383L147.83 52.6056L147.039 51.2729C141.904 54.3196 137.866 58.6276 134.93 64.1546L136.298 64.8816ZM147.83 52.6056L148.611 53.944C153.322 51.1961 158.547 49.8151 164.322 49.8151V48.2656V46.716C158.028 46.716 152.258 48.2284 147.049 51.2671L147.83 52.6056ZM164.322 48.2656V49.8151C170.047 49.8151 174.934 51.0456 179.04 53.4471L179.822 52.1096L180.604 50.772C175.947 48.0482 170.501 46.716 164.322 46.716V48.2656ZM179.822 52.1096L179.04 53.4471C183.216 55.8896 186.266 58.9234 188.262 62.5316L189.618 61.7816L190.974 61.0315C188.671 56.8691 185.191 53.4548 180.604 50.772L179.822 52.1096ZM189.618 61.7816H191.168V49.3816H189.618H188.068V61.7816H189.618ZM189.618 49.3816V50.9311H201.026V49.3816V47.832H189.618V49.3816ZM201.026 49.3816H199.476V117.334H201.026H202.576V49.3816H201.026ZM201.026 117.334V115.784H189.618V117.334V118.883H201.026V117.334ZM189.618 117.334H191.168V104.686H189.618H188.068V117.334H189.618ZM189.618 104.686L188.267 103.926C186.187 107.625 183.047 110.746 178.784 113.272L179.574 114.606L180.364 115.939C185.029 113.174 188.586 109.682 190.969 105.445L189.618 104.686ZM179.574 114.606L178.792 113.268C174.683 115.671 169.836 116.9 164.198 116.9V118.45V119.999C170.299 119.999 175.703 118.665 180.356 115.943L179.574 114.606ZM164.198 118.45V116.9C158.431 116.9 153.257 115.482 148.637 112.663L147.83 113.986L147.023 115.308C152.157 118.441 157.895 119.999 164.198 119.999V118.45ZM147.83 113.986L148.637 112.663C144.015 109.842 140.36 105.883 137.671 100.743L136.298 101.462L134.925 102.18C137.858 107.786 141.891 112.177 147.023 115.308L147.83 113.986ZM136.298 101.462L137.671 100.743C134.991 95.6194 133.632 89.754 133.632 83.1096H132.082H130.532C130.532 90.1878 131.984 96.5571 134.925 102.18L136.298 101.462ZM189.618 83.2336H191.168C191.168 77.8974 190.09 73.1699 187.879 69.1016L186.518 69.8416L185.157 70.5815C187.079 74.1186 188.068 78.3191 188.068 83.2336H189.618ZM186.518 69.8416L187.879 69.1016C185.682 65.0584 182.668 61.9445 178.841 59.8085L178.086 61.1616L177.331 62.5146C180.613 64.3466 183.221 67.0194 185.157 70.5815L186.518 69.8416ZM178.086 61.1616L178.879 59.83C175.156 57.6143 171.036 56.512 166.554 56.512V58.0616V59.6111C170.504 59.6111 174.072 60.5755 177.293 62.4931L178.086 61.1616ZM166.554 58.0616V56.512C162.084 56.512 157.972 57.567 154.253 59.6922L155.022 61.0376L155.791 62.383C159.016 60.5401 162.592 59.6111 166.554 59.6111V58.0616ZM155.022 61.0376L154.253 59.6922C150.511 61.8307 147.545 64.9436 145.353 68.9776L146.714 69.7176L148.075 70.4575C150.016 66.8862 152.589 64.2124 155.791 62.383L155.022 61.0376ZM146.714 69.7176L145.353 68.9776C143.142 73.0458 142.064 77.7734 142.064 83.1096H143.614H145.164C145.164 78.1951 146.153 73.9946 148.075 70.4575L146.714 69.7176ZM143.614 83.1096H142.064C142.064 88.5248 143.14 93.3302 145.346 97.4773L146.714 96.7496L148.082 96.0219C146.155 92.3983 145.164 88.1103 145.164 83.1096H143.614ZM146.714 96.7496L145.353 97.4895C147.542 101.519 150.501 104.666 154.229 106.885L155.022 105.554L155.815 104.222C152.599 102.308 150.019 99.5856 148.075 96.0096L146.714 96.7496ZM155.022 105.554L154.253 106.899C157.972 109.024 162.084 110.079 166.554 110.079V108.53V106.98C162.592 106.98 159.016 106.051 155.791 104.208L155.022 105.554ZM166.554 108.53V110.079C171.024 110.079 175.136 109.024 178.855 106.899L178.086 105.554L177.317 104.208C174.092 106.051 170.516 106.98 166.554 106.98V108.53ZM178.086 105.554L178.865 106.893C182.678 104.676 185.685 101.528 187.879 97.4895L186.518 96.7496L185.157 96.0096C183.218 99.5765 180.603 102.298 177.307 104.214L178.086 105.554ZM186.518 96.7496L187.886 97.4773C190.09 93.3336 191.168 88.5707 191.168 83.2336H189.618H188.068C188.068 88.1471 187.079 92.3949 185.15 96.0219L186.518 96.7496ZM233.859 58.6816V57.132H232.309V58.6816H233.859ZM235.967 105.802L234.871 106.897L234.888 106.914L234.905 106.93L235.967 105.802ZM251.591 107.786H253.14V106.236H251.591V107.786ZM251.591 117.334V118.883H253.14V117.334H251.591ZM227.287 112.994L226.237 114.133L227.287 112.994ZM222.575 58.6816H224.124V57.132H222.575V58.6816ZM213.771 58.6816H212.221V60.2311H213.771V58.6816ZM213.771 49.3816V47.832H212.221V49.3816H213.771ZM222.575 49.3816V50.9311H224.124V49.3816H222.575ZM222.575 32.2696V30.72H221.025V32.2696H222.575ZM233.859 32.2696H235.408V30.72H233.859V32.2696ZM233.859 49.3816H232.309V50.9311H233.859V49.3816ZM251.591 49.3816H253.14V47.832H251.591V49.3816ZM251.591 58.6816V60.2311H253.14V58.6816H251.591ZM233.859 58.6816H232.309V98.7336H233.859H235.408V58.6816H233.859ZM233.859 98.7336H232.309C232.309 102.193 233.033 105.059 234.871 106.897L235.967 105.802L237.063 104.706C236.09 103.733 235.408 101.887 235.408 98.7336H233.859ZM235.967 105.802L234.905 106.93C236.754 108.67 239.702 109.335 243.283 109.335V107.786V106.236C239.92 106.236 237.991 105.578 237.029 104.673L235.967 105.802ZM243.283 107.786V109.335H251.591V107.786V106.236H243.283V107.786ZM251.591 107.786H250.041V117.334H251.591H253.14V107.786H251.591ZM251.591 117.334V115.784H241.423V117.334V118.883H251.591V117.334ZM241.423 117.334V115.784C235.349 115.784 231.082 114.383 228.337 111.854L227.287 112.994L226.237 114.133C229.774 117.391 234.932 118.883 241.423 118.883V117.334ZM227.287 112.994L228.337 111.854C225.653 109.382 224.124 105.149 224.124 98.7336H222.575H221.025C221.025 105.545 222.638 110.818 226.237 114.133L227.287 112.994ZM222.575 98.7336H224.124V58.6816H222.575H221.025V98.7336H222.575ZM222.575 58.6816V57.132H213.771V58.6816V60.2311H222.575V58.6816ZM213.771 58.6816H215.32V49.3816H213.771H212.221V58.6816H213.771ZM213.771 49.3816V50.9311H222.575V49.3816V47.832H213.771V49.3816ZM222.575 49.3816H224.124V32.2696H222.575H221.025V49.3816H222.575ZM222.575 32.2696V33.8191H233.859V32.2696V30.72H222.575V32.2696ZM233.859 32.2696H232.309V49.3816H233.859H235.408V32.2696H233.859ZM233.859 49.3816V50.9311H251.591V49.3816V47.832H233.859V49.3816ZM251.591 49.3816H250.041V58.6816H251.591H253.14V49.3816H251.591ZM251.591 58.6816V57.132H233.859V58.6816V60.2311H251.591V58.6816ZM265.263 64.8816L266.627 65.6175L266.631 65.6085L265.263 64.8816ZM276.919 52.6056L276.148 51.2615L276.138 51.2671L276.919 52.6056ZM314.739 54.3416L313.806 55.579L313.815 55.5857L314.739 54.3416ZM325.527 71.2056V72.7551H327.495L327.033 70.842L325.527 71.2056ZM313.375 71.2056L311.883 71.6234L312.2 72.7551H313.375V71.2056ZM306.555 61.4096L305.645 62.6641L305.653 62.6694L305.66 62.6746L306.555 61.4096ZM278.531 64.5096L279.679 65.5497L279.684 65.5444L279.689 65.539L278.531 64.5096ZM278.531 102.206L279.689 101.176V101.176L278.531 102.206ZM306.555 105.43L307.443 106.699V106.699L306.555 105.43ZM313.375 95.5096V93.96H312.209L311.886 95.0801L313.375 95.5096ZM325.527 95.5096L327.026 95.9022L327.535 93.96H325.527V95.5096ZM314.615 112.25L315.551 113.485L315.556 113.48L315.562 113.476L314.615 112.25ZM276.919 114.11L276.138 115.448L276.148 115.454L276.919 114.11ZM265.263 101.834L263.894 102.561V102.561L265.263 101.834ZM261.047 83.2336H262.596C262.596 76.4158 263.959 70.5606 266.626 65.6175L265.263 64.8816L263.899 64.1456C260.946 69.6186 259.497 75.998 259.497 83.2336H261.047ZM265.263 64.8816L266.631 65.6085C269.313 60.5608 273 56.6857 277.7 53.944L276.919 52.6056L276.138 51.2671C270.918 54.3121 266.834 58.621 263.894 64.1546L265.263 64.8816ZM276.919 52.6056L277.69 53.9496C282.473 51.2052 287.947 49.8151 294.155 49.8151V48.2656V46.716C287.466 46.716 281.45 48.2192 276.148 51.2615L276.919 52.6056ZM294.155 48.2656V49.8151C302.25 49.8151 308.761 51.7755 313.806 55.5789L314.739 54.3416L315.672 53.1042C309.97 48.8063 302.758 46.716 294.155 46.716V48.2656ZM314.739 54.3416L313.815 55.5857C318.953 59.4004 322.362 64.6962 324.021 71.5692L325.527 71.2056L327.033 70.842C325.22 63.3309 321.436 57.3841 315.663 53.0974L314.739 54.3416ZM325.527 71.2056V69.656H313.375V71.2056V72.7551H325.527V71.2056ZM313.375 71.2056L314.867 70.7878C313.617 66.3244 311.14 62.7547 307.45 60.1445L306.555 61.4096L305.66 62.6746C308.748 64.8591 310.818 67.8201 311.883 71.6234L313.375 71.2056ZM306.555 61.4096L307.464 60.155C303.841 57.5278 299.37 56.264 294.155 56.264V57.8136V59.3631C298.86 59.3631 302.656 60.4966 305.645 62.6641L306.555 61.4096ZM294.155 57.8136V56.264C287.304 56.264 281.66 58.6567 277.373 63.4801L278.531 64.5096L279.689 65.539C283.338 61.4344 288.11 59.3631 294.155 59.3631V57.8136ZM278.531 64.5096L277.382 63.4694C273.074 68.2267 271.029 74.8913 271.029 83.2336H272.579H274.128C274.128 75.3731 276.052 69.5551 279.679 65.5497L278.531 64.5096ZM272.579 83.2336H271.029C271.029 91.6558 273.072 98.3971 277.373 103.235L278.531 102.206L279.689 101.176C276.053 97.086 274.128 91.1793 274.128 83.2336H272.579ZM278.531 102.206L277.373 103.235C281.66 108.058 287.304 110.451 294.155 110.451V108.902V107.352C288.11 107.352 283.338 105.281 279.689 101.176L278.531 102.206ZM294.155 108.902V110.451C299.359 110.451 303.822 109.234 307.443 106.699L306.555 105.43L305.666 104.16C302.674 106.254 298.871 107.352 294.155 107.352V108.902ZM306.555 105.43L307.443 106.699C311.072 104.159 313.537 100.539 314.864 95.939L313.375 95.5096L311.886 95.0801C310.733 99.0776 308.651 102.071 305.666 104.16L306.555 105.43ZM313.375 95.5096V97.0591H325.527V95.5096V93.96H313.375V95.5096ZM325.527 95.5096L324.028 95.117C322.292 101.744 318.841 107.026 313.667 111.023L314.615 112.25L315.562 113.476C321.301 109.041 325.124 103.163 327.026 95.9022L325.527 95.5096ZM314.615 112.25L313.679 111.014C308.542 114.906 302.069 116.9 294.155 116.9V118.45V119.999C302.609 119.999 309.776 117.86 315.551 113.485L314.615 112.25ZM294.155 118.45V116.9C287.947 116.9 282.473 115.51 277.69 112.766L276.919 114.11L276.148 115.454C281.45 118.496 287.466 119.999 294.155 119.999V118.45ZM276.919 114.11L277.7 112.771C273 110.029 269.313 106.154 266.631 101.107L265.263 101.834L263.894 102.561C266.834 108.094 270.918 112.403 276.138 115.448L276.919 114.11ZM265.263 101.834L266.631 101.107C263.96 96.0781 262.596 90.1366 262.596 83.2336H261.047H259.497C259.497 90.5492 260.944 97.0077 263.894 102.561L265.263 101.834ZM388.199 51.4896L387.463 52.853L387.474 52.8588L387.484 52.8644L388.199 51.4896ZM397.871 61.2856L396.501 62.0094L396.506 62.0194L396.512 62.0294L397.871 61.2856ZM401.467 117.334V118.883H403.017V117.334H401.467ZM390.307 117.334H388.758V118.883H390.307V117.334ZM385.223 63.3936L384.089 64.4499L384.096 64.4564L384.102 64.4629L385.223 63.3936ZM357.075 63.5176L355.955 62.447L355.949 62.4536L355.942 62.4603L357.075 63.5176ZM351.867 117.334V118.883H353.417V117.334H351.867ZM340.583 117.334H339.034V118.883H340.583V117.334ZM340.583 25.5736V24.024H339.034V25.5736H340.583ZM351.867 25.5736H353.417V24.024H351.867V25.5736ZM351.867 59.0536H350.318V64.3295L353.171 59.8915L351.867 59.0536ZM361.043 50.9936L360.374 49.5961L360.362 49.6017L361.043 50.9936ZM374.311 48.1416V49.6911C379.203 49.6911 383.576 50.7541 387.463 52.853L388.199 51.4896L388.935 50.1261C384.556 47.761 379.67 46.592 374.311 46.592V48.1416ZM388.199 51.4896L387.484 52.8644C391.32 54.8589 394.324 57.8879 396.501 62.0094L397.871 61.2856L399.241 60.5617C396.789 55.9206 393.345 52.4189 388.914 50.1148L388.199 51.4896ZM397.871 61.2856L396.512 62.0294C398.756 66.1311 399.918 71.193 399.918 77.2816H401.467H403.017C403.017 70.8048 401.781 65.2027 399.231 60.5418L397.871 61.2856ZM401.467 77.2816H399.918V117.334H401.467H403.017V77.2816H401.467ZM401.467 117.334V115.784H390.307V117.334V118.883H401.467V117.334ZM390.307 117.334H391.857V78.8936H390.307H388.758V117.334H390.307ZM390.307 78.8936H391.857C391.857 71.87 390.099 66.2617 386.345 62.3242L385.223 63.3936L384.102 64.4629C387.126 67.6348 388.758 72.3598 388.758 78.8936H390.307ZM385.223 63.3936L386.357 62.3372C382.621 58.3284 377.55 56.388 371.335 56.388V57.9376V59.4871C376.859 59.4871 381.046 61.184 384.089 64.4499L385.223 63.3936ZM371.335 57.9376V56.388C365.032 56.388 359.848 58.3724 355.955 62.447L357.075 63.5176L358.195 64.5881C361.411 61.2227 365.734 59.4871 371.335 59.4871V57.9376ZM357.075 63.5176L355.942 62.4603C352.112 66.5642 350.318 72.4164 350.318 79.7616H351.867H353.417C353.417 72.888 355.094 67.9109 358.208 64.5749L357.075 63.5176ZM351.867 79.7616H350.318V117.334H351.867H353.417V79.7616H351.867ZM351.867 117.334V115.784H340.583V117.334V118.883H351.867V117.334ZM340.583 117.334H342.133V25.5736H340.583H339.034V117.334H340.583ZM340.583 25.5736V27.1231H351.867V25.5736V24.024H340.583V25.5736ZM351.867 25.5736H350.318V59.0536H351.867H353.417V25.5736H351.867ZM351.867 59.0536L353.171 59.8915C355.242 56.6691 358.08 54.1686 361.724 52.3854L361.043 50.9936L360.362 49.6017C356.235 51.6212 352.956 54.494 350.564 58.2156L351.867 59.0536ZM361.043 50.9936L361.713 52.391C365.45 50.6002 369.64 49.6911 374.311 49.6911V48.1416V46.592C369.227 46.592 364.572 47.5842 360.374 49.5961L361.043 50.9936ZM506.154 30.9056H507.704V29.356H506.154V30.9056ZM506.154 40.0816V41.6311H507.704V40.0816H506.154ZM482.594 40.0816V38.532H481.045V40.0816H482.594ZM482.594 117.334V118.883H484.144V117.334H482.594ZM471.31 117.334H469.761V118.883H471.31V117.334ZM471.31 40.0816H472.86V38.532H471.31V40.0816ZM447.626 40.0816H446.077V41.6311H447.626V40.0816ZM447.626 30.9056V29.356H446.077V30.9056H447.626ZM506.154 30.9056H504.605V40.0816H506.154H507.704V30.9056H506.154ZM506.154 40.0816V38.532H482.594V40.0816V41.6311H506.154V40.0816ZM482.594 40.0816H481.045V117.334H482.594H484.144V40.0816H482.594ZM482.594 117.334V115.784H471.31V117.334V118.883H482.594V117.334ZM471.31 117.334H472.86V40.0816H471.31H469.761V117.334H471.31ZM471.31 40.0816V38.532H447.626V40.0816V41.6311H471.31V40.0816ZM447.626 40.0816H449.176V30.9056H447.626H446.077V40.0816H447.626ZM447.626 30.9056V32.4551H506.154V30.9056V29.356H447.626V30.9056ZM567.66 51.4896L566.924 52.853L566.934 52.8588L566.945 52.8644L567.66 51.4896ZM577.332 61.2856L575.962 62.0094L575.967 62.0194L575.973 62.0294L577.332 61.2856ZM580.928 117.334V118.883H582.478V117.334H580.928ZM569.768 117.334H568.219V118.883H569.768V117.334ZM564.684 63.3936L563.55 64.4499L563.556 64.4564L563.563 64.4629L564.684 63.3936ZM536.536 63.5176L535.416 62.447L535.409 62.4536L535.403 62.4603L536.536 63.5176ZM531.328 117.334V118.883H532.878V117.334H531.328ZM520.044 117.334H518.495V118.883H520.044V117.334ZM520.044 25.5736V24.024H518.495V25.5736H520.044ZM531.328 25.5736H532.878V24.024H531.328V25.5736ZM531.328 59.0536H529.779V64.3295L532.632 59.8915L531.328 59.0536ZM540.504 50.9936L539.834 49.5961L539.823 49.6017L540.504 50.9936ZM553.772 48.1416V49.6911C558.664 49.6911 563.037 50.7541 566.924 52.853L567.66 51.4896L568.396 50.1261C564.017 47.761 559.13 46.592 553.772 46.592V48.1416ZM567.66 51.4896L566.945 52.8644C570.781 54.8589 573.785 57.8879 575.962 62.0094L577.332 61.2856L578.702 60.5617C576.25 55.9206 572.806 52.4189 568.375 50.1148L567.66 51.4896ZM577.332 61.2856L575.973 62.0294C578.217 66.1311 579.379 71.193 579.379 77.2816H580.928H582.478C582.478 70.8048 581.242 65.2027 578.691 60.5418L577.332 61.2856ZM580.928 77.2816H579.379V117.334H580.928H582.478V77.2816H580.928ZM580.928 117.334V115.784H569.768V117.334V118.883H580.928V117.334ZM569.768 117.334H571.318V78.8936H569.768H568.219V117.334H569.768ZM569.768 78.8936H571.318C571.318 71.87 569.56 66.2617 565.806 62.3242L564.684 63.3936L563.563 64.4629C566.587 67.6348 568.219 72.3598 568.219 78.8936H569.768ZM564.684 63.3936L565.818 62.3372C562.082 58.3284 557.011 56.388 550.796 56.388V57.9376V59.4871C556.32 59.4871 560.507 61.184 563.55 64.4499L564.684 63.3936ZM550.796 57.9376V56.388C544.493 56.388 539.309 58.3724 535.416 62.447L536.536 63.5176L537.656 64.5881C540.872 61.2227 545.195 59.4871 550.796 59.4871V57.9376ZM536.536 63.5176L535.403 62.4603C531.573 66.5642 529.779 72.4164 529.779 79.7616H531.328H532.878C532.878 72.888 534.555 67.9109 537.669 64.5749L536.536 63.5176ZM531.328 79.7616H529.779V117.334H531.328H532.878V79.7616H531.328ZM531.328 117.334V115.784H520.044V117.334V118.883H531.328V117.334ZM520.044 117.334H521.594V25.5736H520.044H518.495V117.334H520.044ZM520.044 25.5736V27.1231H531.328V25.5736V24.024H520.044V25.5736ZM531.328 25.5736H529.779V59.0536H531.328H532.878V25.5736H531.328ZM531.328 59.0536L532.632 59.8915C534.703 56.6691 537.541 54.1686 541.185 52.3854L540.504 50.9936L539.823 49.6017C535.696 51.6212 532.417 54.494 530.025 58.2156L531.328 59.0536ZM540.504 50.9936L541.174 52.391C544.911 50.6002 549.101 49.6911 553.772 49.6911V48.1416V46.592C548.688 46.592 544.033 47.5842 539.834 49.5961L540.504 50.9936ZM660.989 87.5736V89.1231H662.386L662.53 87.733L660.989 87.5736ZM606.677 87.5736V86.024H605.028L605.13 87.669L606.677 87.5736ZM613.497 103.322L612.447 104.462L612.459 104.473L612.471 104.483L613.497 103.322ZM640.901 105.554L641.783 106.828L641.789 106.823L640.901 105.554ZM647.844 96.3776V94.828H646.743L646.381 95.8685L647.844 96.3776ZM659.997 96.3776L661.489 96.7933L662.037 94.828H659.997V96.3776ZM649.084 112.374L650.008 113.618L650.014 113.613L650.02 113.609L649.084 112.374ZM611.388 114.11L610.617 115.454L610.627 115.459L611.388 114.11ZM599.484 101.834L598.12 102.568L598.125 102.577L599.484 101.834ZM599.36 64.7576L600.729 65.4845V65.4845L599.36 64.7576ZM611.141 52.6056L611.895 53.9591L611.902 53.955L611.141 52.6056ZM645.86 52.4816L645.097 53.8297V53.8297L645.86 52.4816ZM657.268 64.1376L655.901 64.8668L655.909 64.8805L655.916 64.894L657.268 64.1376ZM649.705 78.3976V79.9471H651.254V78.3976H649.705ZM646.852 67.3616L645.527 68.1639L645.532 68.1718L645.536 68.1796L646.852 67.3616ZM639.041 60.2936L638.333 61.6724L638.354 61.6831L638.376 61.6932L639.041 60.2936ZM613.62 63.2696L612.585 62.1166L612.579 62.1219L612.573 62.1273L613.62 63.2696ZM606.8 78.3976L605.257 78.2591L605.106 79.9471H606.8V78.3976ZM661.36 80.7536H659.811C659.811 82.8437 659.69 85.0635 659.447 87.4141L660.989 87.5736L662.53 87.733C662.783 85.2889 662.91 82.9621 662.91 80.7536H661.36ZM660.989 87.5736V86.024H606.677V87.5736V89.1231H660.989V87.5736ZM606.677 87.5736L605.13 87.669C605.563 94.6817 607.964 100.337 612.447 104.462L613.497 103.322L614.546 102.181C610.763 98.7009 608.617 93.8574 608.223 87.4781L606.677 87.5736ZM613.497 103.322L612.471 104.483C616.988 108.469 622.443 110.451 628.748 110.451V108.902V107.352C623.15 107.352 618.437 105.614 614.522 102.16L613.497 103.322ZM628.748 108.902V110.451C633.864 110.451 638.242 109.279 641.783 106.828L640.901 105.554L640.018 104.28C637.111 106.293 633.388 107.352 628.748 107.352V108.902ZM640.901 105.554L641.789 106.823C645.362 104.322 647.878 100.998 649.308 96.8866L647.844 96.3776L646.381 95.8685C645.166 99.3628 643.052 102.156 640.012 104.284L640.901 105.554ZM647.844 96.3776V97.9271H659.997V96.3776V94.828H647.844V96.3776ZM659.997 96.3776L658.504 95.9619C656.777 102.162 653.337 107.208 648.149 111.138L649.084 112.374L650.02 113.609C655.744 109.273 659.579 103.654 661.489 96.7933L659.997 96.3776ZM649.084 112.374L648.161 111.129C643.02 114.946 636.583 116.9 628.748 116.9V118.45V119.999C637.117 119.999 644.237 117.903 650.008 113.618L649.084 112.374ZM628.748 118.45V116.9C622.541 116.9 617.021 115.51 612.15 112.76L611.388 114.11L610.627 115.459C616.006 118.496 622.06 119.999 628.748 119.999V118.45ZM611.388 114.11L612.16 112.766C607.374 110.02 603.606 106.14 600.844 101.09L599.484 101.834L598.125 102.577C601.15 108.109 605.317 112.413 610.617 115.454L611.388 114.11ZM599.484 101.834L600.849 101.099C598.094 95.9835 596.694 90.0429 596.694 83.2336H595.144H593.595C593.595 90.4775 595.088 96.937 598.12 102.568L599.484 101.834ZM595.144 83.2336H596.694C596.694 76.4165 598.056 70.5156 600.729 65.4845L599.36 64.7576L597.992 64.0306C595.043 69.5809 593.595 75.9973 593.595 83.2336H595.144ZM599.36 64.7576L600.729 65.4845C603.405 60.447 607.123 56.6187 611.895 53.9591L611.141 52.6056L610.386 51.2521C605.072 54.2137 600.937 58.4868 597.992 64.0306L599.36 64.7576ZM611.141 52.6056L611.902 53.955C616.768 51.2084 622.368 49.8151 628.748 49.8151V48.2656V46.716C621.902 46.716 615.764 48.216 610.379 51.2562L611.141 52.6056ZM628.748 48.2656V49.8151C634.964 49.8151 640.399 51.1676 645.097 53.8297L645.86 52.4816L646.624 51.1334C641.402 48.1742 635.429 46.716 628.748 46.716V48.2656ZM645.86 52.4816L645.097 53.8297C649.805 56.4976 653.396 60.17 655.901 64.8668L657.268 64.1376L658.636 63.4084C655.85 58.1851 651.836 54.0868 646.624 51.1334L645.86 52.4816ZM657.268 64.1376L655.916 64.894C658.501 69.5156 659.811 74.7888 659.811 80.7536H661.36H662.91C662.91 74.3183 661.492 68.5142 658.621 63.3811L657.268 64.1376ZM649.705 78.3976H651.254C651.254 73.8663 650.25 69.8917 648.169 66.5435L646.852 67.3616L645.536 68.1796C647.258 70.9488 648.155 74.3315 648.155 78.3976H649.705ZM646.852 67.3616L648.178 66.5592C646.12 63.1592 643.287 60.5951 639.705 58.8939L639.041 60.2936L638.376 61.6932C641.407 63.1334 643.782 65.2812 645.527 68.1639L646.852 67.3616ZM639.041 60.2936L639.748 58.9147C636.284 57.1388 632.443 56.264 628.253 56.264V57.8136V59.3631C631.998 59.3631 635.349 60.1417 638.333 61.6724L639.041 60.2936ZM628.253 57.8136V56.264C622.186 56.264 616.935 58.2109 612.585 62.1166L613.62 63.2696L614.656 64.4225C618.408 61.0536 622.911 59.3631 628.253 59.3631V57.8136ZM613.62 63.2696L612.573 62.1273C608.265 66.0766 605.863 71.5086 605.257 78.2591L606.8 78.3976L608.344 78.5361C608.895 72.3906 611.04 67.7372 614.668 64.4118L613.62 63.2696ZM606.8 78.3976V79.9471H649.705V78.3976V76.848H606.8V78.3976ZM758.17 30.9056H759.719V29.356H758.17V30.9056ZM758.17 40.0816V41.6311H759.719V40.0816H758.17ZM720.598 40.0816V38.532H719.048V40.0816H720.598ZM720.598 69.2216H719.048V70.7711H720.598V69.2216ZM751.102 69.2216H752.651V67.672H751.102V69.2216ZM751.102 78.3976V79.9471H752.651V78.3976H751.102ZM720.598 78.3976V76.848H719.048V78.3976H720.598ZM720.598 117.334V118.883H722.147V117.334H720.598ZM709.314 117.334H707.764V118.883H709.314V117.334ZM709.314 30.9056V29.356H707.764V30.9056H709.314ZM758.17 30.9056H756.62V40.0816H758.17H759.719V30.9056H758.17ZM758.17 40.0816V38.532H720.598V40.0816V41.6311H758.17V40.0816ZM720.598 40.0816H719.048V69.2216H720.598H722.147V40.0816H720.598ZM720.598 69.2216V70.7711H751.102V69.2216V67.672H720.598V69.2216ZM751.102 69.2216H749.552V78.3976H751.102H752.651V69.2216H751.102ZM751.102 78.3976V76.848H720.598V78.3976V79.9471H751.102V78.3976ZM720.598 78.3976H719.048V117.334H720.598H722.147V78.3976H720.598ZM720.598 117.334V115.784H709.314V117.334V118.883H720.598V117.334ZM709.314 117.334H710.863V30.9056H709.314H707.764V117.334H709.314ZM709.314 30.9056V32.4551H758.17V30.9056V29.356H709.314V30.9056ZM772.17 36.1136L773.266 35.0179V35.0179L772.17 36.1136ZM772.17 25.2016L773.266 26.2973V26.2973L772.17 25.2016ZM782.834 25.2016L781.707 26.2655L781.723 26.2816L781.738 26.2973L782.834 25.2016ZM782.834 36.1136L781.738 35.0179L781.723 35.0335L781.707 35.0496L782.834 36.1136ZM783.082 49.3816H784.632V47.832H783.082V49.3816ZM783.082 117.334V118.883H784.632V117.334H783.082ZM771.798 117.334H770.248V118.883H771.798V117.334ZM771.798 49.3816V47.832H770.248V49.3816H771.798ZM777.626 38.3456V36.796C775.878 36.796 774.456 36.2084 773.266 35.0179L772.17 36.1136L771.074 37.2093C772.86 38.9948 775.076 39.8951 777.626 39.8951V38.3456ZM772.17 36.1136L773.266 35.0179C772.075 33.8273 771.488 32.4058 771.488 30.6576H769.938H768.388C768.388 33.208 769.289 35.4238 771.074 37.2093L772.17 36.1136ZM769.938 30.6576H771.488C771.488 28.9093 772.075 27.4878 773.266 26.2973L772.17 25.2016L771.074 24.1059C769.289 25.8913 768.388 28.1071 768.388 30.6576H769.938ZM772.17 25.2016L773.266 26.2973C774.456 25.1068 775.878 24.5191 777.626 24.5191V22.9696V21.42C775.076 21.42 772.86 22.3204 771.074 24.1059L772.17 25.2016ZM777.626 22.9696V24.5191C779.271 24.5191 780.598 25.0909 781.707 26.2655L782.834 25.2016L783.961 24.1376C782.259 22.3362 780.114 21.42 777.626 21.42V22.9696ZM782.834 25.2016L781.738 26.2973C782.929 27.4878 783.516 28.9093 783.516 30.6576H785.066H786.616C786.616 28.1071 785.715 25.8913 783.93 24.1059L782.834 25.2016ZM785.066 30.6576H783.516C783.516 32.4058 782.929 33.8273 781.738 35.0179L782.834 36.1136L783.93 37.2093C785.715 35.4238 786.616 33.208 786.616 30.6576H785.066ZM782.834 36.1136L781.707 35.0496C780.598 36.2242 779.271 36.796 777.626 36.796V38.3456V39.8951C780.114 39.8951 782.259 38.9789 783.961 37.1775L782.834 36.1136ZM783.082 49.3816H781.532V117.334H783.082H784.632V49.3816H783.082ZM783.082 117.334V115.784H771.798V117.334V118.883H783.082V117.334ZM771.798 117.334H773.348V49.3816H771.798H770.248V117.334H771.798ZM771.798 49.3816V50.9311H783.082V49.3816V47.832H771.798V49.3816ZM816.078 58.6816V57.132H814.528V58.6816H816.078ZM818.186 105.802L817.09 106.897L817.107 106.914L817.124 106.93L818.186 105.802ZM833.81 107.786H835.359V106.236H833.81V107.786ZM833.81 117.334V118.883H835.359V117.334H833.81ZM809.506 112.994L808.456 114.133L809.506 112.994ZM804.794 58.6816H806.343V57.132H804.794V58.6816ZM795.99 58.6816H794.44V60.2311H795.99V58.6816ZM795.99 49.3816V47.832H794.44V49.3816H795.99ZM804.794 49.3816V50.9311H806.343V49.3816H804.794ZM804.794 32.2696V30.72H803.244V32.2696H804.794ZM816.078 32.2696H817.627V30.72H816.078V32.2696ZM816.078 49.3816H814.528V50.9311H816.078V49.3816ZM833.81 49.3816H835.359V47.832H833.81V49.3816ZM833.81 58.6816V60.2311H835.359V58.6816H833.81ZM816.078 58.6816H814.528V98.7336H816.078H817.627V58.6816H816.078ZM816.078 98.7336H814.528C814.528 102.193 815.252 105.059 817.09 106.897L818.186 105.802L819.281 104.706C818.309 103.733 817.627 101.887 817.627 98.7336H816.078ZM818.186 105.802L817.124 106.93C818.973 108.67 821.921 109.335 825.502 109.335V107.786V106.236C822.139 106.236 820.209 105.578 819.248 104.673L818.186 105.802ZM825.502 107.786V109.335H833.81V107.786V106.236H825.502V107.786ZM833.81 107.786H832.26V117.334H833.81H835.359V107.786H833.81ZM833.81 117.334V115.784H823.642V117.334V118.883H833.81V117.334ZM823.642 117.334V115.784C817.568 115.784 813.301 114.383 810.555 111.854L809.506 112.994L808.456 114.133C811.993 117.391 817.15 118.883 823.642 118.883V117.334ZM809.506 112.994L810.555 111.854C807.872 109.382 806.343 105.149 806.343 98.7336H804.794H803.244C803.244 105.545 804.857 110.818 808.456 114.133L809.506 112.994ZM804.794 98.7336H806.343V58.6816H804.794H803.244V98.7336H804.794ZM804.794 58.6816V57.132H795.99V58.6816V60.2311H804.794V58.6816ZM795.99 58.6816H797.539V49.3816H795.99H794.44V58.6816H795.99ZM795.99 49.3816V50.9311H804.794V49.3816V47.832H795.99V49.3816ZM804.794 49.3816H806.343V32.2696H804.794H803.244V49.3816H804.794ZM804.794 32.2696V33.8191H816.078V32.2696V30.72H804.794V32.2696ZM816.078 32.2696H814.528V49.3816H816.078H817.627V32.2696H816.078ZM816.078 49.3816V50.9311H833.81V49.3816V47.832H816.078V49.3816ZM833.81 49.3816H832.26V58.6816H833.81H835.359V49.3816H833.81ZM833.81 58.6816V57.132H816.078V58.6816V60.2311H833.81V58.6816Z" fill="#222222" mask="url(#path-3-outside-2_358_4218)"/>
<mask id="path-5-outside-3_358_4218" maskUnits="userSpaceOnUse" x="232.764" y="143.672" width="336" height="63" fill="black">
<rect fill="white" x="232.764" y="143.672" width="336" height="63"/>
<path d="M267.498 146.518V152.586H242.652V171.856H262.824V177.924H242.652V203.672H235.19V146.518H267.498ZM310.294 190.962H285.366L280.774 203.672H272.902L293.566 146.846H302.176L322.758 203.672H314.886L310.294 190.962ZM308.162 184.894L297.83 156.03L287.498 184.894H308.162ZM349.886 204.246C346.114 204.246 342.725 203.59 339.718 202.278C336.766 200.911 334.443 199.053 332.748 196.702C331.054 194.297 330.179 191.536 330.124 188.42H338.078C338.352 191.099 339.445 193.367 341.358 195.226C343.326 197.03 346.169 197.932 349.886 197.932C353.44 197.932 356.228 197.057 358.25 195.308C360.328 193.504 361.366 191.208 361.366 188.42C361.366 186.233 360.765 184.457 359.562 183.09C358.36 181.723 356.856 180.685 355.052 179.974C353.248 179.263 350.816 178.498 347.754 177.678C343.982 176.694 340.948 175.71 338.652 174.726C336.411 173.742 334.47 172.211 332.83 170.134C331.245 168.002 330.452 165.159 330.452 161.606C330.452 158.49 331.245 155.729 332.83 153.324C334.416 150.919 336.63 149.06 339.472 147.748C342.37 146.436 345.677 145.78 349.394 145.78C354.752 145.78 359.125 147.119 362.514 149.798C365.958 152.477 367.899 156.03 368.336 160.458H360.136C359.863 158.271 358.715 156.358 356.692 154.718C354.67 153.023 351.991 152.176 348.656 152.176C345.54 152.176 342.998 152.996 341.03 154.636C339.062 156.221 338.078 158.463 338.078 161.36C338.078 163.437 338.652 165.132 339.8 166.444C341.003 167.756 342.452 168.767 344.146 169.478C345.896 170.134 348.328 170.899 351.444 171.774C355.216 172.813 358.25 173.851 360.546 174.89C362.842 175.874 364.81 177.432 366.45 179.564C368.09 181.641 368.91 184.484 368.91 188.092C368.91 190.88 368.172 193.504 366.696 195.964C365.22 198.424 363.034 200.419 360.136 201.95C357.239 203.481 353.822 204.246 349.886 204.246ZM423.925 146.518V203.672H416.463V177.76H387.353V203.672H379.891V146.518H387.353V171.61H416.463V146.518H423.925ZM444.129 146.518V203.672H436.667V146.518H444.129ZM482.758 204.246C477.456 204.246 472.618 203.016 468.244 200.556C463.871 198.041 460.4 194.57 457.83 190.142C455.316 185.659 454.058 180.63 454.058 175.054C454.058 169.478 455.316 164.476 457.83 160.048C460.4 155.565 463.871 152.094 468.244 149.634C472.618 147.119 477.456 145.862 482.758 145.862C488.116 145.862 492.981 147.119 497.354 149.634C501.728 152.094 505.172 155.538 507.686 159.966C510.201 164.394 511.458 169.423 511.458 175.054C511.458 180.685 510.201 185.714 507.686 190.142C505.172 194.57 501.728 198.041 497.354 200.556C492.981 203.016 488.116 204.246 482.758 204.246ZM482.758 197.768C486.749 197.768 490.33 196.839 493.5 194.98C496.726 193.121 499.24 190.47 501.044 187.026C502.903 183.582 503.832 179.591 503.832 175.054C503.832 170.462 502.903 166.471 501.044 163.082C499.24 159.638 496.753 156.987 493.582 155.128C490.412 153.269 486.804 152.34 482.758 152.34C478.713 152.34 475.105 153.269 471.934 155.128C468.764 156.987 466.249 159.638 464.39 163.082C462.586 166.471 461.684 170.462 461.684 175.054C461.684 179.591 462.586 183.582 464.39 187.026C466.249 190.47 468.764 193.121 471.934 194.98C475.16 196.839 478.768 197.768 482.758 197.768ZM566.245 203.672H558.783L528.771 158.162V203.672H521.309V146.436H528.771L558.783 191.864V146.436H566.245V203.672Z"/>
</mask>
<path d="M267.498 146.518V152.586H242.652V171.856H262.824V177.924H242.652V203.672H235.19V146.518H267.498ZM310.294 190.962H285.366L280.774 203.672H272.902L293.566 146.846H302.176L322.758 203.672H314.886L310.294 190.962ZM308.162 184.894L297.83 156.03L287.498 184.894H308.162ZM349.886 204.246C346.114 204.246 342.725 203.59 339.718 202.278C336.766 200.911 334.443 199.053 332.748 196.702C331.054 194.297 330.179 191.536 330.124 188.42H338.078C338.352 191.099 339.445 193.367 341.358 195.226C343.326 197.03 346.169 197.932 349.886 197.932C353.44 197.932 356.228 197.057 358.25 195.308C360.328 193.504 361.366 191.208 361.366 188.42C361.366 186.233 360.765 184.457 359.562 183.09C358.36 181.723 356.856 180.685 355.052 179.974C353.248 179.263 350.816 178.498 347.754 177.678C343.982 176.694 340.948 175.71 338.652 174.726C336.411 173.742 334.47 172.211 332.83 170.134C331.245 168.002 330.452 165.159 330.452 161.606C330.452 158.49 331.245 155.729 332.83 153.324C334.416 150.919 336.63 149.06 339.472 147.748C342.37 146.436 345.677 145.78 349.394 145.78C354.752 145.78 359.125 147.119 362.514 149.798C365.958 152.477 367.899 156.03 368.336 160.458H360.136C359.863 158.271 358.715 156.358 356.692 154.718C354.67 153.023 351.991 152.176 348.656 152.176C345.54 152.176 342.998 152.996 341.03 154.636C339.062 156.221 338.078 158.463 338.078 161.36C338.078 163.437 338.652 165.132 339.8 166.444C341.003 167.756 342.452 168.767 344.146 169.478C345.896 170.134 348.328 170.899 351.444 171.774C355.216 172.813 358.25 173.851 360.546 174.89C362.842 175.874 364.81 177.432 366.45 179.564C368.09 181.641 368.91 184.484 368.91 188.092C368.91 190.88 368.172 193.504 366.696 195.964C365.22 198.424 363.034 200.419 360.136 201.95C357.239 203.481 353.822 204.246 349.886 204.246ZM423.925 146.518V203.672H416.463V177.76H387.353V203.672H379.891V146.518H387.353V171.61H416.463V146.518H423.925ZM444.129 146.518V203.672H436.667V146.518H444.129ZM482.758 204.246C477.456 204.246 472.618 203.016 468.244 200.556C463.871 198.041 460.4 194.57 457.83 190.142C455.316 185.659 454.058 180.63 454.058 175.054C454.058 169.478 455.316 164.476 457.83 160.048C460.4 155.565 463.871 152.094 468.244 149.634C472.618 147.119 477.456 145.862 482.758 145.862C488.116 145.862 492.981 147.119 497.354 149.634C501.728 152.094 505.172 155.538 507.686 159.966C510.201 164.394 511.458 169.423 511.458 175.054C511.458 180.685 510.201 185.714 507.686 190.142C505.172 194.57 501.728 198.041 497.354 200.556C492.981 203.016 488.116 204.246 482.758 204.246ZM482.758 197.768C486.749 197.768 490.33 196.839 493.5 194.98C496.726 193.121 499.24 190.47 501.044 187.026C502.903 183.582 503.832 179.591 503.832 175.054C503.832 170.462 502.903 166.471 501.044 163.082C499.24 159.638 496.753 156.987 493.582 155.128C490.412 153.269 486.804 152.34 482.758 152.34C478.713 152.34 475.105 153.269 471.934 155.128C468.764 156.987 466.249 159.638 464.39 163.082C462.586 166.471 461.684 170.462 461.684 175.054C461.684 179.591 462.586 183.582 464.39 187.026C466.249 190.47 468.764 193.121 471.934 194.98C475.16 196.839 478.768 197.768 482.758 197.768ZM566.245 203.672H558.783L528.771 158.162V203.672H521.309V146.436H528.771L558.783 191.864V146.436H566.245V203.672Z" fill="white"/>
<path d="M267.498 146.518H269.048V144.969H267.498V146.518ZM267.498 152.586V154.136H269.048V152.586H267.498ZM242.652 152.586V151.037H241.102V152.586H242.652ZM242.652 171.856H241.102V173.406H242.652V171.856ZM262.824 171.856H264.374V170.307H262.824V171.856ZM262.824 177.924V179.474H264.374V177.924H262.824ZM242.652 177.924V176.375H241.102V177.924H242.652ZM242.652 203.672V205.222H244.202V203.672H242.652ZM235.19 203.672H233.64V205.222H235.19V203.672ZM235.19 146.518V144.969H233.64V146.518H235.19ZM267.498 146.518H265.948V152.586H267.498H269.048V146.518H267.498ZM267.498 152.586V151.037H242.652V152.586V154.136H267.498V152.586ZM242.652 152.586H241.102V171.856H242.652H244.202V152.586H242.652ZM242.652 171.856V173.406H262.824V171.856V170.307H242.652V171.856ZM262.824 171.856H261.274V177.924H262.824H264.374V171.856H262.824ZM262.824 177.924V176.375H242.652V177.924V179.474H262.824V177.924ZM242.652 177.924H241.102V203.672H242.652H244.202V177.924H242.652ZM242.652 203.672V202.123H235.19V203.672V205.222H242.652V203.672ZM235.19 203.672H236.74V146.518H235.19H233.64V203.672H235.19ZM235.19 146.518V148.068H267.498V146.518V144.969H235.19V146.518ZM310.294 190.962L311.752 190.436L311.382 189.413H310.294V190.962ZM285.366 190.962V189.413H284.279L283.909 190.436L285.366 190.962ZM280.774 203.672V205.222H281.862L282.232 204.199L280.774 203.672ZM272.902 203.672L271.446 203.143L270.69 205.222H272.902V203.672ZM293.566 146.846V145.297H292.481L292.11 146.317L293.566 146.846ZM302.176 146.846L303.633 146.318L303.263 145.297H302.176V146.846ZM322.758 203.672V205.222H324.968L324.215 203.144L322.758 203.672ZM314.886 203.672L313.429 204.199L313.799 205.222H314.886V203.672ZM308.162 184.894V186.444H310.363L309.621 184.372L308.162 184.894ZM297.83 156.03L299.289 155.508L297.83 151.432L296.371 155.508L297.83 156.03ZM287.498 184.894L286.039 184.372L285.298 186.444H287.498V184.894ZM310.294 190.962V189.413H285.366V190.962V192.512H310.294V190.962ZM285.366 190.962L283.909 190.436L279.317 203.146L280.774 203.672L282.232 204.199L286.824 191.489L285.366 190.962ZM280.774 203.672V202.123H272.902V203.672V205.222H280.774V203.672ZM272.902 203.672L274.359 204.202L295.023 147.376L293.566 146.846L292.11 146.317L271.446 203.143L272.902 203.672ZM293.566 146.846V148.396H302.176V146.846V145.297H293.566V146.846ZM302.176 146.846L300.719 147.374L321.301 204.2L322.758 203.672L324.215 203.144L303.633 146.318L302.176 146.846ZM322.758 203.672V202.123H314.886V203.672V205.222H322.758V203.672ZM314.886 203.672L316.344 203.146L311.752 190.436L310.294 190.962L308.837 191.489L313.429 204.199L314.886 203.672ZM308.162 184.894L309.621 184.372L299.289 155.508L297.83 156.03L296.371 156.552L306.703 185.416L308.162 184.894ZM297.83 156.03L296.371 155.508L286.039 184.372L287.498 184.894L288.957 185.416L299.289 156.552L297.83 156.03ZM287.498 184.894V186.444H308.162V184.894V183.345H287.498V184.894ZM339.718 202.278L339.067 203.684L339.083 203.692L339.098 203.698L339.718 202.278ZM332.748 196.702L331.481 197.595L331.486 197.601L331.491 197.608L332.748 196.702ZM330.124 188.42V186.871H328.547L328.575 188.447L330.124 188.42ZM338.078 188.42L339.62 188.263L339.478 186.871H338.078V188.42ZM341.358 195.226L340.278 196.338L340.295 196.353L340.311 196.368L341.358 195.226ZM358.25 195.308L359.264 196.48L359.266 196.478L358.25 195.308ZM359.562 183.09L358.399 184.114V184.114L359.562 183.09ZM355.052 179.974L354.484 181.416V181.416L355.052 179.974ZM347.754 177.678L348.155 176.181L348.145 176.179L347.754 177.678ZM338.652 174.726L338.029 176.145L338.042 176.15L338.652 174.726ZM332.83 170.134L331.587 171.059L331.6 171.077L331.614 171.094L332.83 170.134ZM332.83 153.324L334.124 154.177V154.177L332.83 153.324ZM339.472 147.748L338.833 146.337L338.823 146.341L339.472 147.748ZM362.514 149.798L361.553 151.014L361.563 151.021L362.514 149.798ZM368.336 160.458V162.008H370.046L369.878 160.306L368.336 160.458ZM360.136 160.458L358.599 160.65L358.768 162.008H360.136V160.458ZM356.692 154.718L355.697 155.906L355.707 155.914L355.716 155.922L356.692 154.718ZM341.03 154.636L342.002 155.843L342.012 155.835L342.022 155.827L341.03 154.636ZM339.8 166.444L338.634 167.465L338.646 167.478L338.658 167.491L339.8 166.444ZM344.146 169.478L343.547 170.907L343.574 170.919L343.602 170.929L344.146 169.478ZM351.444 171.774L351.025 173.266L351.033 173.268L351.444 171.774ZM360.546 174.89L359.908 176.302L359.922 176.308L359.936 176.314L360.546 174.89ZM366.45 179.564L365.222 180.509L365.228 180.517L365.234 180.524L366.45 179.564ZM366.696 195.964L368.025 196.761V196.761L366.696 195.964ZM360.136 201.95L359.412 200.58L360.136 201.95ZM349.886 204.246V202.697C346.296 202.697 343.122 202.073 340.338 200.858L339.718 202.278L339.098 203.698C342.328 205.108 345.933 205.796 349.886 205.796V204.246ZM339.718 202.278L340.369 200.872C337.629 199.603 335.526 197.905 334.005 195.796L332.748 196.702L331.491 197.608C333.36 200.2 335.904 202.22 339.067 203.684L339.718 202.278ZM332.748 196.702L334.015 195.81C332.51 193.673 331.723 191.218 331.674 188.393L330.124 188.42L328.575 188.447C328.635 191.854 329.597 194.92 331.481 197.595L332.748 196.702ZM330.124 188.42V189.97H338.078V188.42V186.871H330.124V188.42ZM338.078 188.42L336.537 188.577C336.847 191.615 338.101 194.222 340.278 196.338L341.358 195.226L342.438 194.115C340.789 192.512 339.856 190.583 339.62 188.263L338.078 188.42ZM341.358 195.226L340.311 196.368C342.66 198.522 345.934 199.482 349.886 199.482V197.932V196.383C346.404 196.383 343.992 195.538 342.405 194.084L341.358 195.226ZM349.886 197.932V199.482C353.688 199.482 356.878 198.543 359.264 196.48L358.25 195.308L357.237 194.136C355.577 195.572 353.191 196.383 349.886 196.383V197.932ZM358.25 195.308L359.266 196.478C361.688 194.375 362.916 191.65 362.916 188.42H361.366H359.817C359.817 190.766 358.967 192.633 357.234 194.138L358.25 195.308ZM361.366 188.42H362.916C362.916 185.936 362.225 183.771 360.725 182.066L359.562 183.09L358.399 184.114C359.305 185.143 359.817 186.531 359.817 188.42H361.366ZM359.562 183.09L360.725 182.066C359.35 180.503 357.638 179.327 355.62 178.532L355.052 179.974L354.484 181.416C356.075 182.042 357.369 182.944 358.399 184.114L359.562 183.09ZM355.052 179.974L355.62 178.532C353.738 177.791 351.242 177.008 348.155 176.181L347.754 177.678L347.353 179.175C350.389 179.988 352.758 180.736 354.484 181.416L355.052 179.974ZM347.754 177.678L348.145 176.179C344.412 175.205 341.46 174.243 339.263 173.302L338.652 174.726L338.042 176.15C340.437 177.177 343.553 178.184 347.363 179.178L347.754 177.678ZM338.652 174.726L339.275 173.307C337.285 172.433 335.542 171.069 334.046 169.174L332.83 170.134L331.614 171.094C333.398 173.354 335.537 175.051 338.029 176.145L338.652 174.726ZM332.83 170.134L334.074 169.209C332.745 167.422 332.002 164.938 332.002 161.606H330.452H328.903C328.903 165.381 329.745 168.582 331.587 171.059L332.83 170.134ZM330.452 161.606H332.002C332.002 158.767 332.719 156.308 334.124 154.177L332.83 153.324L331.536 152.471C329.771 155.151 328.903 158.213 328.903 161.606H330.452ZM332.83 153.324L334.124 154.177C335.537 152.034 337.518 150.357 340.122 149.155L339.472 147.748L338.823 146.341C335.742 147.763 333.294 149.804 331.536 152.471L332.83 153.324ZM339.472 147.748L340.111 149.16C342.777 147.953 345.86 147.33 349.394 147.33V145.78V144.231C345.493 144.231 341.962 144.92 338.833 146.337L339.472 147.748ZM349.394 145.78V147.33C354.489 147.33 358.498 148.599 361.553 151.014L362.514 149.798L363.475 148.582C359.752 145.64 355.014 144.231 349.394 144.231V145.78ZM362.514 149.798L361.563 151.021C364.664 153.433 366.398 156.596 366.794 160.61L368.336 160.458L369.878 160.306C369.4 155.464 367.252 151.52 363.466 148.575L362.514 149.798ZM368.336 160.458V158.909H360.136V160.458V162.008H368.336V160.458ZM360.136 160.458L361.674 160.266C361.342 157.611 359.941 155.358 357.668 153.514L356.692 154.718L355.716 155.922C357.488 157.359 358.384 158.932 358.599 160.65L360.136 160.458ZM356.692 154.718L357.687 153.53C355.319 151.546 352.256 150.627 348.656 150.627V152.176V153.726C351.725 153.726 354.02 154.501 355.697 155.906L356.692 154.718ZM348.656 152.176V150.627C345.259 150.627 342.341 151.526 340.038 153.446L341.03 154.636L342.022 155.827C343.655 154.466 345.821 153.726 348.656 153.726V152.176ZM341.03 154.636L340.058 153.429C337.669 155.354 336.529 158.071 336.529 161.36H338.078H339.628C339.628 158.854 340.456 157.089 342.002 155.843L341.03 154.636ZM338.078 161.36H336.529C336.529 163.737 337.193 165.818 338.634 167.465L339.8 166.444L340.966 165.424C340.111 164.446 339.628 163.138 339.628 161.36H338.078ZM339.8 166.444L338.658 167.491C340.017 168.974 341.653 170.113 343.547 170.907L344.146 169.478L344.745 168.049C343.25 167.422 341.989 166.539 340.942 165.397L339.8 166.444ZM344.146 169.478L343.602 170.929C345.412 171.608 347.893 172.387 351.025 173.266L351.444 171.774L351.863 170.282C348.764 169.412 346.379 168.661 344.69 168.027L344.146 169.478ZM351.444 171.774L351.033 173.268C354.765 174.296 357.714 175.309 359.908 176.302L360.546 174.89L361.185 173.478C358.787 172.393 355.668 171.33 351.856 170.28L351.444 171.774ZM360.546 174.89L359.936 176.314C361.97 177.186 363.731 178.57 365.222 180.509L366.45 179.564L367.678 178.619C365.89 176.294 363.715 174.562 361.157 173.466L360.546 174.89ZM366.45 179.564L365.234 180.524C366.591 182.244 367.361 184.707 367.361 188.092H368.91H370.46C370.46 184.261 369.589 181.039 367.666 178.604L366.45 179.564ZM368.91 188.092H367.361C367.361 190.591 366.703 192.94 365.367 195.167L366.696 195.964L368.025 196.761C369.641 194.068 370.46 191.169 370.46 188.092H368.91ZM366.696 195.964L365.367 195.167C364.057 197.351 362.096 199.162 359.412 200.58L360.136 201.95L360.86 203.32C363.971 201.677 366.384 199.497 368.025 196.761L366.696 195.964ZM360.136 201.95L359.412 200.58C356.779 201.971 353.62 202.697 349.886 202.697V204.246V205.796C354.024 205.796 357.699 204.99 360.86 203.32L360.136 201.95ZM423.925 146.518H425.475V144.969H423.925V146.518ZM423.925 203.672V205.222H425.475V203.672H423.925ZM416.463 203.672H414.914V205.222H416.463V203.672ZM416.463 177.76H418.013V176.211H416.463V177.76ZM387.353 177.76V176.211H385.804V177.76H387.353ZM387.353 203.672V205.222H388.903V203.672H387.353ZM379.891 203.672H378.342V205.222H379.891V203.672ZM379.891 146.518V144.969H378.342V146.518H379.891ZM387.353 146.518H388.903V144.969H387.353V146.518ZM387.353 171.61H385.804V173.16H387.353V171.61ZM416.463 171.61V173.16H418.013V171.61H416.463ZM416.463 146.518V144.969H414.914V146.518H416.463ZM423.925 146.518H422.376V203.672H423.925H425.475V146.518H423.925ZM423.925 203.672V202.123H416.463V203.672V205.222H423.925V203.672ZM416.463 203.672H418.013V177.76H416.463H414.914V203.672H416.463ZM416.463 177.76V176.211H387.353V177.76V179.31H416.463V177.76ZM387.353 177.76H385.804V203.672H387.353H388.903V177.76H387.353ZM387.353 203.672V202.123H379.891V203.672V205.222H387.353V203.672ZM379.891 203.672H381.441V146.518H379.891H378.342V203.672H379.891ZM379.891 146.518V148.068H387.353V146.518V144.969H379.891V146.518ZM387.353 146.518H385.804V171.61H387.353H388.903V146.518H387.353ZM387.353 171.61V173.16H416.463V171.61V170.061H387.353V171.61ZM416.463 171.61H418.013V146.518H416.463H414.914V171.61H416.463ZM416.463 146.518V148.068H423.925V146.518V144.969H416.463V146.518ZM444.129 146.518H445.678V144.969H444.129V146.518ZM444.129 203.672V205.222H445.678V203.672H444.129ZM436.667 203.672H435.117V205.222H436.667V203.672ZM436.667 146.518V144.969H435.117V146.518H436.667ZM444.129 146.518H442.579V203.672H444.129H445.678V146.518H444.129ZM444.129 203.672V202.123H436.667V203.672V205.222H444.129V203.672ZM436.667 203.672H438.216V146.518H436.667H435.117V203.672H436.667ZM436.667 146.518V148.068H444.129V146.518V144.969H436.667V146.518ZM468.244 200.556L467.472 201.899L467.478 201.903L467.485 201.907L468.244 200.556ZM457.83 190.142L456.479 190.9L456.484 190.91L456.49 190.92L457.83 190.142ZM457.83 160.048L456.486 159.278L456.483 159.283L457.83 160.048ZM468.244 149.634L469.004 150.985L469.01 150.981L469.017 150.977L468.244 149.634ZM497.354 149.634L496.582 150.977L496.588 150.981L496.595 150.985L497.354 149.634ZM507.686 159.966L509.034 159.201V159.201L507.686 159.966ZM497.354 200.556L498.114 201.907L498.12 201.903L498.127 201.899L497.354 200.556ZM493.5 194.98L492.727 193.638L492.717 193.643L493.5 194.98ZM501.044 187.026L499.681 186.29L499.676 186.299L499.672 186.307L501.044 187.026ZM501.044 163.082L499.672 163.801L499.678 163.814L499.686 163.827L501.044 163.082ZM493.582 155.128L492.799 156.465V156.465L493.582 155.128ZM471.934 155.128L472.718 156.465V156.465L471.934 155.128ZM464.39 163.082L463.027 162.346L463.022 162.354L464.39 163.082ZM464.39 187.026L463.018 187.745L463.022 187.754L463.027 187.762L464.39 187.026ZM471.934 194.98L471.151 196.317L471.161 196.323L471.934 194.98ZM482.758 204.246V202.697C477.706 202.697 473.132 201.528 469.004 199.206L468.244 200.556L467.485 201.907C472.103 204.505 477.205 205.796 482.758 205.796V204.246ZM468.244 200.556L469.017 199.213C464.883 196.836 461.606 193.561 459.171 189.364L457.83 190.142L456.49 190.92C459.194 195.579 462.859 199.247 467.472 201.899L468.244 200.556ZM457.83 190.142L459.182 189.384C456.808 185.152 455.608 180.388 455.608 175.054H454.058H452.509C452.509 180.872 453.823 186.167 456.479 190.9L457.83 190.142ZM454.058 175.054H455.608C455.608 169.72 456.808 164.986 459.178 160.813L457.83 160.048L456.483 159.283C453.823 163.966 452.509 169.236 452.509 175.054H454.058ZM457.83 160.048L459.175 160.819C461.609 156.571 464.882 153.303 469.004 150.985L468.244 149.634L467.485 148.284C462.86 150.885 459.19 154.56 456.486 159.278L457.83 160.048ZM468.244 149.634L469.017 150.977C473.143 148.605 477.712 147.412 482.758 147.412V145.862V144.313C477.199 144.313 472.092 145.634 467.472 148.291L468.244 149.634ZM482.758 145.862V147.412C487.862 147.412 492.458 148.606 496.582 150.977L497.354 149.634L498.127 148.291C493.504 145.633 488.369 144.313 482.758 144.313V145.862ZM497.354 149.634L496.595 150.985C500.719 153.304 503.961 156.544 506.339 160.731L507.686 159.966L509.034 159.201C506.382 154.532 502.737 150.884 498.114 148.284L497.354 149.634ZM507.686 159.966L506.339 160.731C508.707 164.902 509.909 169.663 509.909 175.054H511.458H513.008C513.008 169.184 511.694 163.886 509.034 159.201L507.686 159.966ZM511.458 175.054H509.909C509.909 180.446 508.707 185.206 506.339 189.377L507.686 190.142L509.034 190.907C511.694 186.222 513.008 180.924 513.008 175.054H511.458ZM507.686 190.142L506.339 189.377C503.959 193.567 500.713 196.837 496.582 199.213L497.354 200.556L498.127 201.899C502.742 199.246 506.384 195.574 509.034 190.907L507.686 190.142ZM497.354 200.556L496.595 199.206C492.469 201.526 487.868 202.697 482.758 202.697V204.246V205.796C488.363 205.796 493.493 204.506 498.114 201.907L497.354 200.556ZM482.758 197.768V199.318C487 199.318 490.855 198.327 494.284 196.317L493.5 194.98L492.717 193.643C489.804 195.351 486.498 196.219 482.758 196.219V197.768ZM493.5 194.98L494.274 196.323C497.766 194.311 500.483 191.437 502.417 187.745L501.044 187.026L499.672 186.307C497.998 189.503 495.685 191.932 492.727 193.638L493.5 194.98ZM501.044 187.026L502.408 187.762C504.407 184.058 505.382 179.807 505.382 175.054H503.832H502.283C502.283 179.376 501.399 183.106 499.681 186.29L501.044 187.026ZM503.832 175.054H505.382C505.382 170.251 504.408 165.994 502.403 162.337L501.044 163.082L499.686 163.827C501.397 166.949 502.283 170.674 502.283 175.054H503.832ZM501.044 163.082L502.417 162.363C500.486 158.678 497.802 155.805 494.366 153.791L493.582 155.128L492.799 156.465C495.704 158.168 497.994 160.599 499.672 163.801L501.044 163.082ZM493.582 155.128L494.366 153.791C490.934 151.78 487.051 150.791 482.758 150.791V152.34V153.89C486.557 153.89 489.889 154.759 492.799 156.465L493.582 155.128ZM482.758 152.34V150.791C478.466 150.791 474.582 151.78 471.151 153.791L471.934 155.128L472.718 156.465C475.627 154.759 478.96 153.89 482.758 153.89V152.34ZM471.934 155.128L471.151 153.791C467.719 155.803 465.011 158.669 463.027 162.346L464.39 163.082L465.754 163.818C467.487 160.607 469.808 158.171 472.718 156.465L471.934 155.128ZM464.39 163.082L463.022 162.354C461.078 166.008 460.135 170.258 460.135 175.054H461.684H463.234C463.234 170.667 464.095 166.935 465.758 163.81L464.39 163.082ZM461.684 175.054H460.135C460.135 179.8 461.079 184.045 463.018 187.745L464.39 187.026L465.763 186.307C464.093 183.119 463.234 179.383 463.234 175.054H461.684ZM464.39 187.026L463.027 187.762C465.011 191.439 467.719 194.305 471.151 196.317L471.934 194.98L472.718 193.643C469.808 191.937 467.487 189.501 465.754 186.29L464.39 187.026ZM471.934 194.98L471.161 196.323C474.638 198.327 478.516 199.318 482.758 199.318V197.768V196.219C479.019 196.219 475.681 195.351 472.708 193.638L471.934 194.98ZM566.245 203.672V205.222H567.795V203.672H566.245ZM558.783 203.672L557.49 204.525L557.949 205.222H558.783V203.672ZM528.771 158.162L530.065 157.309L527.222 152.998V158.162H528.771ZM528.771 203.672V205.222H530.321V203.672H528.771ZM521.309 203.672H519.76V205.222H521.309V203.672ZM521.309 146.436V144.887H519.76V146.436H521.309ZM528.771 146.436L530.064 145.582L529.605 144.887H528.771V146.436ZM558.783 191.864L557.49 192.718L560.333 197.021V191.864H558.783ZM558.783 146.436V144.887H557.234V146.436H558.783ZM566.245 146.436H567.795V144.887H566.245V146.436ZM566.245 203.672V202.123H558.783V203.672V205.222H566.245V203.672ZM558.783 203.672L560.077 202.819L530.065 157.309L528.771 158.162L527.478 159.015L557.49 204.525L558.783 203.672ZM528.771 158.162H527.222V203.672H528.771H530.321V158.162H528.771ZM528.771 203.672V202.123H521.309V203.672V205.222H528.771V203.672ZM521.309 203.672H522.859V146.436H521.309H519.76V203.672H521.309ZM521.309 146.436V147.986H528.771V146.436V144.887H521.309V146.436ZM528.771 146.436L527.478 147.29L557.49 192.718L558.783 191.864L560.076 191.01L530.064 145.582L528.771 146.436ZM558.783 191.864H560.333V146.436H558.783H557.234V191.864H558.783ZM558.783 146.436V147.986H566.245V146.436V144.887H558.783V146.436ZM566.245 146.436H564.696V203.672H566.245H567.795V146.436H566.245Z" fill="#222222" mask="url(#path-5-outside-3_358_4218)"/>
</svg>
