<svg width="16" height="29" viewBox="0 0 16 29" fill="none" xmlns="http://www.w3.org/2000/svg">
<path d="M10.5735 0.000128269L10.5735 5.61182L15.8605 5.61182L15.8605 0.000128332L10.5735 0.000128269Z" fill="#222222"/>
<path d="M10.5735 5.60829L10.5735 11.2231L15.8605 11.2231L15.8605 5.60829L10.5735 5.60829Z" fill="#222222"/>
<path d="M5.28711 5.60829L5.28711 11.2231L10.5711 11.2231L10.5711 5.60829L5.28711 5.60829Z" fill="#222222"/>
<path d="M10.5735 11.2223L10.5735 16.834L15.8605 16.834L15.8605 11.2223L10.5735 11.2223Z" fill="#222222"/>
<path d="M5.28711 11.2223L5.28711 16.834L10.5711 16.834L10.5711 11.2223L5.28711 11.2223Z" fill="#222222"/>
<path d="M6.69187e-08 11.2223L0 16.834L5.28697 16.834L5.28697 11.2223L6.69187e-08 11.2223Z" fill="#222222"/>
<path d="M10.5735 16.8334L10.5735 22.4482L15.8605 22.4482L15.8605 16.8334L10.5735 16.8334Z" fill="#222222"/>
<path d="M5.2876 16.8324L5.2876 22.4473L10.5716 22.4473L10.5716 16.8324L5.2876 16.8324Z" fill="#222222"/>
<path d="M10.5735 22.4474L10.5735 28.0591L15.8605 28.0591L15.8605 22.4474L10.5735 22.4474Z" fill="#222222"/>
</svg>
