<svg width="71" height="31" viewBox="0 0 71 31" fill="none" xmlns="http://www.w3.org/2000/svg">
<path d="M66.6272 11.2153H68.3965V11.6482H67.7732V13.2691H67.2404V11.6482H66.6172V11.2153H66.6272Z" fill="white"/>
<path d="M69.3112 11.2153L69.8038 12.4134H69.8339L70.3265 11.2153H71V13.2691H70.4672V12.061H70.4471L69.9747 13.2591H69.653L69.1906 12.051H69.1705V13.2691H68.6377V11.2153H69.3112Z" fill="white"/>
<path d="M11.3591 0H7.56934V3.79552H11.3591V0Z" fill="white"/>
<path d="M15.1489 3.79541H11.3591V7.59093H15.1489V3.79541Z" fill="white"/>
<path d="M67.532 22.5518C67.532 17.1052 64.1443 15.1621 60.9778 15.1621C56.9066 15.1621 54.1724 18.2227 54.1724 22.7834C54.1724 27.344 56.9167 30.3241 61.1588 30.3241C64.2951 30.3241 66.6574 28.7736 67.341 26.2769L67.4616 25.8339H64.0237L63.9232 26.0151C63.4608 26.8708 62.4656 27.3541 61.1889 27.3541C59.1181 27.3541 57.8113 26.0654 57.6203 23.8807H67.532V22.5518ZM64.1242 21.1222H57.6605C57.8917 19.5818 59.0578 18.1321 61.008 18.1321C62.7672 18.1321 63.9835 19.3201 64.1242 21.1222Z" fill="white"/>
<path d="M30.8808 15.1621H27.0911V18.9576H30.8808V15.1621Z" fill="white"/>
<path d="M23.3115 15.1621H19.5217V18.9576H23.3115V15.1621Z" fill="white"/>
<path d="M27.0913 11.3965H23.3015V30.3238H27.0913V11.3965Z" fill="white"/>
<path d="M17.3002 12.2522C17.3002 11.2253 16.4658 10.3896 15.4405 10.3896C14.4152 10.3896 13.5808 11.2253 13.5808 12.2522C13.5808 13.2791 14.4152 14.1147 15.4405 14.1147C16.4658 14.1147 17.3002 13.2791 17.3002 12.2522Z" fill="white"/>
<path d="M17.3303 15.1621H13.5405V30.3241H17.3303V15.1621Z" fill="white"/>
<path d="M40.6318 11.3765H36.842V15.172H40.6318V11.3765Z" fill="white"/>
<path d="M48.2111 11.3765H44.4214V15.172H48.2111V11.3765Z" fill="white"/>
<path d="M44.4216 15.1621H40.6318V30.3241H44.4216V15.1621Z" fill="white"/>
<path d="M36.852 15.1621H33.0623V30.3241H36.852V15.1621Z" fill="white"/>
<path d="M51.9909 15.1621H48.2012V30.3241H51.9909V15.1621Z" fill="white"/>
<path d="M7.5793 3.79541H3.78955V30.3339H7.5793V3.79541Z" fill="white"/>
<path d="M11.3592 15.1621H0V18.9576H11.3592V15.1621Z" fill="white"/>
</svg>
