<svg width="16" height="29" viewBox="0 0 16 29" fill="none" xmlns="http://www.w3.org/2000/svg">
<path d="M5.28697 28.059L5.28697 22.4473L3.26443e-06 22.4473L2.70692e-06 28.059L5.28697 28.059Z" fill="#222222"/>
<path d="M5.28697 22.4513L5.28697 16.8364L3.26443e-06 16.8364L2.70661e-06 22.4513L5.28697 22.4513Z" fill="#222222"/>
<path d="M10.5733 22.4513L10.5733 16.8364L5.28936 16.8364L5.28936 22.4513L10.5733 22.4513Z" fill="#222222"/>
<path d="M5.28697 16.8373L5.28697 11.2256L3.26443e-06 11.2256L2.70692e-06 16.8373L5.28697 16.8373Z" fill="#222222"/>
<path d="M10.5733 16.8373L10.5733 11.2256L5.28936 11.2256L5.28936 16.8373L10.5733 16.8373Z" fill="#222222"/>
<path d="M15.8605 16.8373L15.8605 11.2256L10.5735 11.2256L10.5735 16.8373L15.8605 16.8373Z" fill="#222222"/>
<path d="M5.28697 11.2262L5.28697 5.61133L3.26443e-06 5.61133L2.70661e-06 11.2262L5.28697 11.2262Z" fill="#222222"/>
<path d="M10.5729 11.2272L10.5729 5.61231L5.28887 5.61231L5.28887 11.2272L10.5729 11.2272Z" fill="#222222"/>
<path d="M5.28697 5.61169L5.28697 1.5757e-06L3.26443e-06 1.05045e-06L2.70692e-06 5.61169L5.28697 5.61169Z" fill="#222222"/>
</svg>
