<svg width="26" height="26" viewBox="0 0 26 26" fill="none" xmlns="http://www.w3.org/2000/svg">
<path d="M20.2158 23.1035V25.9922H2.8877V23.1035H20.2158ZM2.8877 5.77637V23.1035H0V5.77637H2.8877ZM23.1035 14.4395V23.1035H20.2158V14.4395H23.1035ZM11.5518 14.4395V17.3281H8.66406V14.4395H11.5518ZM14.4395 11.5518V14.4395H11.5518V11.5518H14.4395ZM17.3281 8.66406V11.5518H14.4395V8.66406H17.3281ZM25.9922 0V11.5518H23.1035V5.77637H20.2158V2.8877H14.4404V0H25.9922ZM20.2158 5.77637V8.66406H17.3281V5.77637H20.2158ZM11.5518 2.8877V5.77637H2.8877V2.8877H11.5518Z" fill="white"/>
</svg>
