<svg width="54" height="31" viewBox="0 0 54 31" fill="none" xmlns="http://www.w3.org/2000/svg">
<g opacity="0.92">
<path d="M30.5786 30.0492L30.5786 22.5379L22.9382 22.5379L22.9382 30.0492L30.5786 30.0492Z" fill="white"/>
<path d="M22.9385 22.5379L22.9385 15.0266L15.2937 15.0266L15.2937 22.5379L22.9385 22.5379Z" fill="white"/>
<path d="M38.2241 22.5379L38.2241 15.0266L30.5794 15.0266L30.5794 22.5379L38.2241 22.5379Z" fill="white"/>
<path d="M15.2893 15.0267L15.2893 7.51126L7.64455 7.51126L7.64455 15.0267L15.2893 15.0267Z" fill="white"/>
<path d="M45.873 15.0267L45.873 7.51126L38.2283 7.51126L38.2283 15.0267L45.873 15.0267Z" fill="white"/>
<path d="M7.64478 7.51124L7.64478 0L1.85966e-05 -3.34163e-07L1.82683e-05 7.51124L7.64478 7.51124Z" fill="white"/>
<path d="M53.5178 7.5113L53.5178 6.10352e-05L45.8731 6.0701e-05L45.8731 7.5113L53.5178 7.5113Z" fill="white"/>
</g>
</svg>
