<svg width="12" height="20" viewBox="0 0 12 20" fill="none" xmlns="http://www.w3.org/2000/svg">
<rect width="11.7371" height="19.9521" fill="white"/>
<path d="M6.89868 3.708L6.89868 6.21545L9.26104 6.21545L9.26104 3.708L6.89868 3.708Z" fill="#222222"/>
<path d="M6.89868 6.21318L6.89868 8.72205L9.26104 8.72205L9.26104 6.21318L6.89868 6.21318Z" fill="#222222"/>
<path d="M4.53711 6.21318L4.53711 8.72205L6.89814 8.72205L6.89814 6.21318L4.53711 6.21318Z" fill="#222222"/>
<path d="M6.89868 8.72143L6.89868 11.2289L9.26104 11.2289L9.26104 8.72143L6.89868 8.72143Z" fill="#222222"/>
<path d="M4.53711 8.72143L4.53711 11.2289L6.89814 11.2289L6.89814 8.72143L4.53711 8.72143Z" fill="#222222"/>
<path d="M2.17529 8.72143L2.17529 11.2289L4.53765 11.2289L4.53765 8.72143L2.17529 8.72143Z" fill="#222222"/>
<path d="M6.89868 11.228L6.89868 13.7368L9.26104 13.7368L9.26104 11.228L6.89868 11.228Z" fill="#222222"/>
<path d="M4.53735 11.2277L4.53735 13.7366L6.89838 13.7366L6.89838 11.2277L4.53735 11.2277Z" fill="#222222"/>
<path d="M6.89868 13.7361L6.89868 16.2435L9.26104 16.2435L9.26104 13.7361L6.89868 13.7361Z" fill="#222222"/>
</svg>
