<svg width="12" height="20" viewBox="0 0 12 20" fill="none" xmlns="http://www.w3.org/2000/svg">
<rect x="11.7371" y="19.9521" width="11.7371" height="19.9521" transform="rotate(-180 11.7371 19.9521)" fill="white"/>
<path d="M4.83862 16.2441L4.83862 13.7367L2.47627 13.7367L2.47627 16.2441L4.83862 16.2441Z" fill="#222222"/>
<path d="M4.83887 13.7391L4.83887 11.2302L2.47651 11.2302L2.47651 13.7391L4.83887 13.7391Z" fill="#222222"/>
<path d="M7.20044 13.7391L7.20044 11.2302L4.83941 11.2302L4.83941 13.7391L7.20044 13.7391Z" fill="#222222"/>
<path d="M4.83862 11.231L4.83862 8.72351L2.47627 8.72351L2.47627 11.231L4.83862 11.231Z" fill="#222222"/>
<path d="M7.20044 11.231L7.20044 8.72351L4.83941 8.72351L4.83941 11.231L7.20044 11.231Z" fill="#222222"/>
<path d="M9.56177 11.231L9.56177 8.72351L7.19941 8.72351L7.19941 11.231L9.56177 11.231Z" fill="#222222"/>
<path d="M4.83887 8.7242L4.83887 6.21533L2.47651 6.21533L2.47651 8.7242L4.83887 8.7242Z" fill="#222222"/>
<path d="M7.20044 8.7242L7.20044 6.21533L4.83941 6.21533L4.83941 8.7242L7.20044 8.7242Z" fill="#222222"/>
<path d="M4.83862 6.21619L4.83862 3.70874L2.47627 3.70874L2.47627 6.21619L4.83862 6.21619Z" fill="#222222"/>
</svg>
