<svg width="89" height="89" viewBox="0 0 89 89" fill="none" xmlns="http://www.w3.org/2000/svg">
<g clip-path="url(#clip0_679_4)">
<path d="M86.0249 41.5503V38.5751H83.0497V35.6H80.1V32.6503V29.6751H77.1249V26.7H74.1497V23.7503H71.2V20.7751V17.8H68.2249V14.8503V11.8751V8.9V5.95029H65.2497V2.97514V0H62.3V2.97514V5.95029H59.3249V8.9H56.3497V11.8751V14.8503H53.4V17.8H50.4249H47.4497H44.5H41.5249H38.5497H35.6H32.6249V14.8503V11.8751H29.6497V8.9V5.95029H26.7V2.97514V0H23.7249V2.97514H20.7497V5.95029V8.9V11.8751H17.8V14.8503V17.8H14.8249V20.7751V23.7503H11.8497V26.7H8.9V29.6751H5.92486V32.6503V35.6H2.94971V38.5751H0V41.5503H2.94971H5.92486V44.5H8.9V47.4751H5.92486V50.4503H2.94971V53.4H5.92486V56.3751H8.9H11.8497V59.3503H14.8249H17.8H20.7497V62.3V65.2751H17.8V68.2503H14.8249V71.2V74.1751H11.8497V77.1503V80.1H14.8249H17.8H20.7497V83.0751V86.0503H23.7249V89H26.7H29.6497H32.6249H35.6V86.0503H38.5497V83.0751V80.1H41.5249H44.5V83.0751V86.0503H47.4497V89H50.4249H53.4H56.3497H59.3249V86.0503H62.3V83.0751V80.1H65.2497H68.2249H71.2H74.1497V77.1503H71.2V74.1751V71.2H68.2249V68.2503V65.2751H65.2497V62.3V59.3503H68.2249H71.2H74.1497V56.3751H77.1249H80.1H83.0497V53.4V50.4503H80.1V47.4751H83.0497V44.5H86.0249H89V41.5503H86.0249Z" fill="#222222"/>
<path d="M47.9582 46.1528H44.9067V49.2297H47.9582H51.0096H54.061V46.1528H51.0096H47.9582Z" fill="#C4D92D"/>
<path d="M35.7526 46.1528H32.7012V49.2297H35.7526H38.804H41.8555V46.1528H38.804H35.7526Z" fill="#C4D92D"/>
<path d="M44.9069 39.9992V36.9224H41.8555V39.9992V43.0761V46.1529H44.9069V43.0761V39.9992Z" fill="#C4D92D"/>
<path d="M32.7011 39.9992V36.9224H29.6497V39.9992V43.0761V46.1529H32.7011V43.0761V39.9992Z" fill="#C4D92D"/>
<path d="M54.061 36.9224V39.9992V43.0761V46.1529H57.1125V43.0761V39.9992V36.9224H54.061Z" fill="#C4D92D"/>
<path d="M51.0096 36.9223H54.061V33.8455H51.0096H47.9582H44.9067V36.9223H47.9582H51.0096Z" fill="#C4D92D"/>
<path d="M38.804 36.9223H41.8555V33.8455H38.804H35.7526H32.7012V36.9223H35.7526H38.804Z" fill="#C4D92D"/>
</g>
<defs>
<clipPath id="clip0_679_4">
<rect width="89" height="89" fill="white"/>
</clipPath>
</defs>
</svg>
