<svg width="182" height="50" viewBox="0 0 182 50" fill="none" xmlns="http://www.w3.org/2000/svg">
<path d="M0 40.5V0H27V4.5H4.5V18H27V22.5H4.5V36H27V40.5H0ZM31.4824 18V9H35.9824V18H31.4824ZM53.9824 18V9H58.4824V18H53.9824ZM35.9824 22.5V18H40.4824V22.5H35.9824ZM49.4824 22.5V18H53.9824V22.5H49.4824ZM40.4824 27V22.5H49.4824V27H40.4824ZM35.9824 31.5V27H40.4824V31.5H35.9824ZM49.4824 31.5V27H53.9824V31.5H49.4824ZM31.4824 40.5V31.5H35.9824V40.5H31.4824ZM53.9824 40.5V31.5H58.4824V40.5H53.9824ZM62.9648 49.5V9H67.4648V13.5H71.9648V18H67.4648V31.5H71.9648V36H67.4648V49.5H62.9648ZM71.9648 13.5V9H80.9648V13.5H71.9648ZM80.9648 18V13.5H85.4648V18H80.9648ZM85.4648 31.5V18H89.9648V31.5H85.4648ZM80.9648 36V31.5H85.4648V36H80.9648ZM71.9648 40.5V36H80.9648V40.5H71.9648ZM94.4473 36V0H98.9473V36H94.4473ZM98.9473 40.5V36H103.447V40.5H98.9473ZM119.557 41.148C117.037 41.148 114.769 40.572 112.753 39.42C110.737 38.232 109.153 36.576 108.001 34.452C106.849 32.292 106.273 29.79 106.273 26.946C106.273 24.03 106.849 21.51 108.001 19.386C109.189 17.226 110.791 15.57 112.807 14.418C114.859 13.23 117.145 12.636 119.665 12.636C122.257 12.636 124.543 13.23 126.523 14.418C128.539 15.57 130.123 17.226 131.275 19.386C132.463 21.51 133.057 24.012 133.057 26.892C133.057 29.772 132.463 32.292 131.275 34.452C130.087 36.576 128.485 38.232 126.469 39.42C124.453 40.572 122.149 41.148 119.557 41.148ZM119.611 37.26C121.159 37.26 122.599 36.882 123.931 36.126C125.263 35.334 126.343 34.164 127.171 32.616C127.999 31.068 128.413 29.16 128.413 26.892C128.413 24.588 127.999 22.68 127.171 21.168C126.379 19.62 125.317 18.468 123.985 17.712C122.689 16.92 121.249 16.524 119.665 16.524C118.153 16.524 116.713 16.92 115.345 17.712C114.013 18.468 112.933 19.62 112.105 21.168C111.313 22.68 110.917 24.588 110.917 26.892C110.917 29.16 111.313 31.068 112.105 32.616C112.933 34.164 113.995 35.334 115.291 36.126C116.623 36.882 118.063 37.26 119.611 37.26ZM137.797 40.5V9H142.297V13.5H146.797V18H142.297V40.5H137.797ZM146.797 13.5V9H155.797V13.5H146.797ZM169.009 41.148C166.453 41.148 164.185 40.554 162.205 39.366C160.261 38.178 158.731 36.522 157.615 34.398C156.499 32.238 155.941 29.736 155.941 26.892C155.941 24.012 156.481 21.51 157.561 19.386C158.677 17.262 160.225 15.606 162.205 14.418C164.221 13.23 166.525 12.636 169.117 12.636C171.781 12.636 174.031 13.23 175.867 14.418C177.739 15.606 179.161 17.172 180.133 19.116C181.141 21.024 181.645 23.13 181.645 25.434C181.645 25.794 181.645 26.172 181.645 26.568C181.645 26.964 181.627 27.414 181.591 27.918H159.343V24.408H177.217C177.109 21.924 176.281 19.98 174.733 18.576C173.221 17.172 171.313 16.47 169.009 16.47C167.461 16.47 166.021 16.83 164.689 17.55C163.393 18.234 162.349 19.26 161.557 20.628C160.765 21.96 160.369 23.634 160.369 25.65V27.162C160.369 29.394 160.765 31.266 161.557 32.778C162.385 34.29 163.447 35.424 164.743 36.18C166.075 36.936 167.497 37.314 169.009 37.314C170.917 37.314 172.483 36.9 173.707 36.072C174.967 35.208 175.867 34.056 176.407 32.616H180.889C180.457 34.236 179.701 35.694 178.621 36.99C177.541 38.286 176.191 39.312 174.571 40.068C172.987 40.788 171.133 41.148 169.009 41.148Z" fill="#222222"/>
</svg>
