<svg width="248" height="42" viewBox="0 0 248 42" fill="none" xmlns="http://www.w3.org/2000/svg">
<path d="M5.31077e-05 40.5V36.558H8.58605V6.642H5.31077e-05V2.7H21.7081V6.642H13.1221V36.558H21.7081V40.5H5.31077e-05ZM27.033 40.5V9H31.533V13.5H36.033V18H31.533V40.5H27.033ZM36.033 13.5V9H49.533V13.5H36.033ZM49.533 40.5V13.5H54.033V40.5H49.533ZM58.5154 13.5V9H63.0154V0H67.5154V9H76.5154V13.5H67.5154V36H63.0154V13.5H58.5154ZM67.5154 40.5V36H76.5154V40.5H67.5154ZM92.427 41.148C89.871 41.148 87.603 40.554 85.623 39.366C83.679 38.178 82.149 36.522 81.033 34.398C79.917 32.238 79.359 29.736 79.359 26.892C79.359 24.012 79.899 21.51 80.979 19.386C82.095 17.262 83.643 15.606 85.623 14.418C87.639 13.23 89.943 12.636 92.535 12.636C95.199 12.636 97.449 13.23 99.285 14.418C101.157 15.606 102.579 17.172 103.551 19.116C104.559 21.024 105.063 23.13 105.063 25.434C105.063 25.794 105.063 26.172 105.063 26.568C105.063 26.964 105.045 27.414 105.009 27.918H82.761V24.408H100.635C100.527 21.924 99.699 19.98 98.151 18.576C96.639 17.172 94.731 16.47 92.427 16.47C90.879 16.47 89.439 16.83 88.107 17.55C86.811 18.234 85.767 19.26 84.975 20.628C84.183 21.96 83.787 23.634 83.787 25.65V27.162C83.787 29.394 84.183 31.266 84.975 32.778C85.803 34.29 86.865 35.424 88.161 36.18C89.493 36.936 90.915 37.314 92.427 37.314C94.335 37.314 95.901 36.9 97.125 36.072C98.385 35.208 99.285 34.056 99.825 32.616H104.307C103.875 34.236 103.119 35.694 102.039 36.99C100.959 38.286 99.609 39.312 97.989 40.068C96.405 40.788 94.551 41.148 92.427 41.148ZM110.644 40.5V9H115.144V13.5H119.644V18H115.144V40.5H110.644ZM119.644 13.5V9H128.644V13.5H119.644ZM134.242 18V9H138.742V18H134.242ZM152.242 18V9H156.742V18H152.242ZM138.742 31.5V18H143.242V31.5H138.742ZM147.742 31.5V18H152.242V31.5H147.742ZM143.242 40.5V31.5H147.742V40.5H143.242ZM165.454 40.5V13.284H169.99V40.5H165.454ZM167.722 7.506C166.822 7.506 166.066 7.218 165.454 6.642C164.878 6.03 164.59 5.274 164.59 4.374C164.59 3.474 164.878 2.754 165.454 2.214C166.066 1.638 166.822 1.35 167.722 1.35C168.586 1.35 169.324 1.638 169.936 2.214C170.548 2.754 170.854 3.474 170.854 4.374C170.854 5.274 170.548 6.03 169.936 6.642C169.324 7.218 168.586 7.506 167.722 7.506ZM189.929 41.148C187.373 41.148 185.105 40.554 183.125 39.366C181.181 38.178 179.651 36.522 178.535 34.398C177.419 32.238 176.861 29.736 176.861 26.892C176.861 24.012 177.401 21.51 178.481 19.386C179.597 17.262 181.145 15.606 183.125 14.418C185.141 13.23 187.445 12.636 190.037 12.636C192.701 12.636 194.951 13.23 196.787 14.418C198.659 15.606 200.081 17.172 201.053 19.116C202.061 21.024 202.565 23.13 202.565 25.434C202.565 25.794 202.565 26.172 202.565 26.568C202.565 26.964 202.547 27.414 202.511 27.918H180.263V24.408H198.137C198.029 21.924 197.201 19.98 195.653 18.576C194.141 17.172 192.233 16.47 189.929 16.47C188.381 16.47 186.941 16.83 185.609 17.55C184.313 18.234 183.269 19.26 182.477 20.628C181.685 21.96 181.289 23.634 181.289 25.65V27.162C181.289 29.394 181.685 31.266 182.477 32.778C183.305 34.29 184.367 35.424 185.663 36.18C186.995 36.936 188.417 37.314 189.929 37.314C191.837 37.314 193.403 36.9 194.627 36.072C195.887 35.208 196.787 34.056 197.327 32.616H201.809C201.377 34.236 200.621 35.694 199.541 36.99C198.461 38.286 197.111 39.312 195.491 40.068C193.907 40.788 192.053 41.148 189.929 41.148ZM206.526 22.5V9H211.026V22.5H206.526ZM224.526 22.5V9H229.026V22.5H224.526ZM242.526 22.5V9H247.026V22.5H242.526ZM211.026 31.5V22.5H215.526V31.5H211.026ZM220.026 31.5V22.5H224.526V31.5H220.026ZM229.026 31.5V22.5H233.526V31.5H229.026ZM238.026 31.5V22.5H242.526V31.5H238.026ZM215.526 40.5V31.5H220.026V40.5H215.526ZM233.526 40.5V31.5H238.026V40.5H233.526Z" fill="black"/>
</svg>
