<svg width="333" height="97" viewBox="0 0 333 97" fill="none" xmlns="http://www.w3.org/2000/svg">
<path d="M301.43 74.945L304.096 71.9629L307.078 74.6289L304.412 77.6109L316.34 88.2749L321.672 82.3108L309.744 71.6469L312.41 68.6648L309.428 65.9989L314.76 60.0348L317.742 62.7008L320.408 59.7188L332.336 70.3827L329.67 73.3647L332.652 76.0307L329.986 79.0127L327.004 76.3468L329.67 73.3647L317.742 62.7008L312.41 68.6648L324.338 79.3288L321.672 82.3108L324.654 84.9768L319.322 90.9409L316.34 88.2749L313.674 91.2569L301.746 80.593L304.412 77.6109L301.43 74.945Z" fill="#222222"/>
<path d="M304.085 67.1853L287.638 55.8061L285.362 59.0956L288.652 61.3714L286.376 64.6609L296.244 71.4884L298.52 68.1989L301.81 70.4747L299.534 73.7642L296.244 71.4884L293.968 74.7778L284.1 67.9503L286.376 64.6609L283.086 62.385L285.362 59.0956L282.073 56.8197L288.9 46.9513L292.19 49.2272L294.466 45.9377L297.755 48.2135L300.031 44.9241L306.61 49.4757L304.334 52.7652L307.623 55.041L305.348 58.3305L308.637 60.6063L304.085 67.1853ZM295.479 51.503L292.19 49.2272L289.914 52.5166L303.072 61.62L305.348 58.3305L302.058 56.0547L304.334 52.7652L297.755 48.2135L295.479 51.503Z" fill="#222222"/>
<path d="M278.224 41L268.5 58.4767L265.005 56.5318L278.619 32.0645L282.114 34.0094L280.169 37.5047L283.665 39.4496L285.61 35.9543L292.6 39.8441L290.655 43.3394L283.665 39.4496L281.72 42.9449L278.224 41Z" fill="#222222"/>
<path d="M248.76 28.0542L244.084 39.1056L247.768 40.6643L246.209 44.3481L257.26 49.0243L258.819 45.3405L262.503 46.8993L267.179 35.8479L263.495 34.2892L265.054 30.6054L254.003 25.9292L252.444 29.6129L248.76 28.0542ZM242.525 42.7894L244.084 39.1056L240.4 37.5468L245.076 26.4955L248.76 28.0542L250.319 24.3704L254.003 25.9292L255.561 22.2454L266.613 26.9216L265.054 30.6054L268.738 32.1641L267.179 35.8479L270.863 37.4066L266.187 48.458L262.503 46.8993L260.944 50.5831L257.26 49.0243L255.702 52.7081L244.65 48.0319L246.209 44.3481L242.525 42.7894Z" fill="#222222"/>
<path d="M226.764 16.9832L227.882 13.1426L231.722 14.2609L233.959 6.57983L237.799 7.69806L235.563 15.3791L243.244 17.6155L242.126 21.4561L234.445 19.2196L228.853 38.4222L236.534 40.6586L235.416 44.4992L227.735 42.2627L228.853 38.4222L225.013 37.304L230.604 18.1014L226.764 16.9832Z" fill="#222222"/>
<path d="M191.21 31.2047L191.878 27.2609L195.822 27.9289L195.154 31.8728L214.873 35.2132L216.877 23.3818L197.158 20.0413L197.826 16.0975L193.883 15.4294L195.887 3.59798L199.831 4.26608L200.499 0.322266L220.218 3.66273L219.55 7.60654L223.494 8.27463L222.825 12.2184L218.882 11.5503L219.55 7.60654L199.831 4.26608L197.826 16.0975L217.545 19.438L216.877 23.3818L220.821 24.0499L218.817 35.8813L214.873 35.2132L214.205 39.157L194.486 35.8166L195.154 31.8728L191.21 31.2047Z" fill="#222222"/>
<path d="M154.308 43.0439L154.202 39.0453L162.199 38.8326L161.88 26.8368L157.882 26.9432L157.669 18.946L153.67 19.0523L153.351 7.05658L157.35 6.95025L157.669 18.946L161.667 18.8397L161.88 26.8368L165.879 26.7305L165.666 18.7333L169.665 18.627L169.346 6.63124L173.344 6.5249L173.663 18.5207L169.665 18.627L169.877 26.6242L165.879 26.7305L166.198 38.7263L162.199 38.8326L162.306 42.8312L154.308 43.0439Z" fill="#222222"/>
<path d="M143.76 0L147.145 31.8205L151.122 31.3974L151.545 35.375L147.568 35.7981L147.145 31.8205L143.167 32.2436L139.782 0.423075L143.76 0Z" fill="#222222"/>
<path d="M117.786 20.9926L121.652 40.6154L117.728 41.3886L110.769 6.06769L114.693 5.29443L117.013 17.0681L120.937 16.2948L120.164 12.3703L128.013 10.8238L128.787 14.7483L132.711 13.9751L133.484 17.8996L137.409 17.1263L141.275 36.7491L137.351 37.5223L133.484 17.8996L129.56 18.6729L128.787 14.7483L120.937 16.2948L121.711 20.2194L117.786 20.9926Z" fill="#222222"/>
<path d="M93.3606 23.9478L92.1714 20.1287L95.9905 18.9395L93.6122 11.3012L97.4313 10.1121L99.8097 17.7503L107.448 15.372L108.637 19.1911L100.999 21.5695L106.945 40.6652L114.583 38.2869L115.772 42.106L108.134 44.4844L106.945 40.6652L103.126 41.8544L97.1797 22.7587L93.3606 23.9478Z" fill="#222222"/>
<path d="M72.3611 37.3766L80.3181 55.7256L76.6483 57.317L65.5085 31.6284L69.1784 30.037L70.7697 33.7068L74.4396 32.1154L72.8482 28.4456L83.8576 23.6714L85.449 27.3412L89.1188 25.7498L98.6671 47.7686L94.9973 49.36L85.449 27.3412L74.4396 32.1154L76.0309 35.7852L72.3611 37.3766Z" fill="#222222"/>
<path d="M44.4944 53.5595L50.6978 63.8317L54.1218 61.7639L56.1896 65.188L66.4618 58.9846L64.394 55.5605L67.8181 53.4927L61.6147 43.2205L58.1907 45.2883L56.1229 41.8643L45.8507 48.0676L47.9184 51.4917L44.4944 53.5595ZM52.7655 67.2558L50.6978 63.8317L47.2737 65.8995L41.0703 55.6273L44.4944 53.5595L42.4266 50.1354L45.8507 48.0676L43.7829 44.6436L54.0551 38.4402L56.1229 41.8643L59.5469 39.7965L61.6147 43.2205L65.0388 41.1527L71.2422 51.4249L67.8181 53.4927L69.8859 56.9168L66.4618 58.9846L68.5296 62.4087L58.2574 68.612L56.1896 65.188L52.7655 67.2558Z" fill="#222222"/>
<path d="M10.808 75.9835L26.3194 94.2974L23.267 96.8826L0 69.4118L3.05231 66.8266L5.63754 69.8789L8.68985 67.2937L13.8603 73.3983L16.9126 70.8131L22.0831 76.9177L25.1354 74.3325L30.3058 80.4371L33.3581 77.8519L28.1877 71.7472L31.24 69.162L26.0695 63.0574L29.1219 60.4722L23.9514 54.3675L27.0037 51.7823L24.4185 48.73L27.4708 46.1448L50.7378 73.6156L47.6855 76.2008L32.1742 57.8869L29.1219 60.4722L34.2923 66.5768L31.24 69.162L36.4105 75.2666L33.3581 77.8519L38.5286 83.9565L35.4763 86.5417L30.3058 80.4371L27.2535 83.0223L22.0831 76.9177L19.0308 79.5029L13.8603 73.3983L10.808 75.9835Z" fill="#222222"/>
</svg>
