<svg width="192" height="61" viewBox="0 0 192 61" fill="none" xmlns="http://www.w3.org/2000/svg">
<path d="M6.66667 6.66667L6.66667 0L40 0L40 6.66667L6.66667 6.66667ZM0 26.6667L0 6.66667H6.66667L6.66667 26.6667H0ZM40 13.3333V6.66667H46.6667V13.3333H40ZM6.66667 33.3333L6.66667 26.6667L40 26.6667V33.3333L6.66667 33.3333ZM40 53.3333L40 33.3333H46.6667L46.6667 53.3333L40 53.3333ZM0 53.3333L0 46.6667H6.66667L6.66667 53.3333H0ZM6.66667 60L6.66667 53.3333H40V60H6.66667ZM53.3594 20V13.3333H60.026L60.026 0H66.6927V13.3333H80.026V20H66.6927L66.6927 53.3333H60.026L60.026 20H53.3594ZM66.6927 60V53.3333H80.026V60H66.6927ZM102.319 60.96C98.5854 60.96 95.2254 60.1067 92.2388 58.4C89.2521 56.64 86.9054 54.1867 85.1988 51.04C83.4921 47.84 82.6388 44.1333 82.6388 39.92C82.6388 35.6 83.4921 31.8667 85.1988 28.72C86.9588 25.52 89.3321 23.0667 92.3188 21.36C95.3588 19.6 98.7454 18.72 102.479 18.72C106.319 18.72 109.705 19.6 112.639 21.36C115.625 23.0667 117.972 25.52 119.679 28.72C121.439 31.8667 122.319 35.5733 122.319 39.84C122.319 44.1067 121.439 47.84 119.679 51.04C117.919 54.1867 115.545 56.64 112.559 58.4C109.572 60.1067 106.159 60.96 102.319 60.96ZM102.399 55.2C104.692 55.2 106.825 54.64 108.799 53.52C110.772 52.3467 112.372 50.6133 113.599 48.32C114.825 46.0267 115.439 43.2 115.439 39.84C115.439 36.4267 114.825 33.6 113.599 31.36C112.425 29.0667 110.852 27.36 108.879 26.24C106.959 25.0667 104.825 24.48 102.479 24.48C100.239 24.48 98.1054 25.0667 96.0788 26.24C94.1054 27.36 92.5054 29.0667 91.2788 31.36C90.1054 33.6 89.5188 36.4267 89.5188 39.84C89.5188 43.2 90.1054 46.0267 91.2788 48.32C92.5054 50.6133 94.0788 52.3467 95.9988 53.52C97.9721 54.64 100.105 55.2 102.399 55.2ZM128.541 60V13.3333H135.207V20H141.874V26.6667H135.207V60L128.541 60ZM141.874 20V13.3333L155.207 13.3333V20L141.874 20ZM172.38 60.96C168.593 60.96 165.233 60.08 162.3 58.32C159.42 56.56 157.153 54.1067 155.5 50.96C153.847 47.76 153.02 44.0533 153.02 39.84C153.02 35.5733 153.82 31.8667 155.42 28.72C157.073 25.5733 159.367 23.12 162.3 21.36C165.287 19.6 168.7 18.72 172.54 18.72C176.487 18.72 179.82 19.6 182.54 21.36C185.313 23.12 187.42 25.44 188.86 28.32C190.353 31.1467 191.1 34.2667 191.1 37.68C191.1 38.2133 191.1 38.7733 191.1 39.36C191.1 39.9467 191.073 40.6133 191.02 41.36H158.06V36.16H184.54C184.38 32.48 183.153 29.6 180.86 27.52C178.62 25.44 175.793 24.4 172.38 24.4C170.087 24.4 167.953 24.9333 165.98 26C164.06 27.0133 162.513 28.5333 161.34 30.56C160.167 32.5333 159.58 35.0133 159.58 38V40.24C159.58 43.5467 160.167 46.32 161.34 48.56C162.567 50.8 164.14 52.48 166.06 53.6C168.033 54.72 170.14 55.28 172.38 55.28C175.207 55.28 177.527 54.6667 179.34 53.44C181.207 52.16 182.54 50.4533 183.34 48.32H189.98C189.34 50.72 188.22 52.88 186.62 54.8C185.02 56.72 183.02 58.24 180.62 59.36C178.273 60.4267 175.527 60.96 172.38 60.96Z" fill="white"/>
</svg>
