<svg width="16" height="16" viewBox="0 0 16 16" fill="none" xmlns="http://www.w3.org/2000/svg">
<path d="M15.0322 12.8842H12.884V15.0313H15.0322V12.8842Z" fill="white"/>
<path d="M12.8843 10.7369H10.7373V12.8841H12.8843V10.7369Z" fill="white"/>
<path d="M10.7371 6.44263H8.58887V8.58856H10.7371V6.44263Z" fill="white"/>
<path d="M10.7371 4.29541H8.58887V6.44255H10.7371V4.29541Z" fill="white"/>
<path d="M10.7371 2.14709H8.58887V4.29423H10.7371V2.14709Z" fill="white"/>
<path d="M8.59035 8.58862H6.44336V10.7358H8.59035V8.58862Z" fill="white"/>
<path d="M8.59035 0H6.44336V2.14714H8.59035V0Z" fill="white"/>
<path d="M6.44336 8.58862H4.29517V10.7358H6.44336V8.58862Z" fill="white"/>
<path d="M6.44336 0H4.29517V2.14714H6.44336V0Z" fill="white"/>
<path d="M4.29518 8.58862H2.14819V10.7358H4.29518V8.58862Z" fill="white"/>
<path d="M4.29518 0H2.14819V2.14714H4.29518V0Z" fill="white"/>
<path d="M2.1482 6.44263H0V8.58856H2.1482V6.44263Z" fill="white"/>
<path d="M2.1482 4.29541H0V6.44255H2.1482V4.29541Z" fill="white"/>
<path d="M2.1482 2.14709H0V4.29423H2.1482V2.14709Z" fill="white"/>
</svg>
