<svg width="145" height="88" viewBox="0 0 145 88" fill="none" xmlns="http://www.w3.org/2000/svg">
<path d="M145 78.2188H140.157V83.0947H135.343V88H111.157V78.2188H130.5V68.4385H145V78.2188ZM87 24.4385H101.5V29.3428H111.157V34.2188H116V39.0947H120.843V44H125.657V53.7812H120.843V58.6572H140.157V63.5332H145V68.4375H24.1572V63.5332H9.65723V58.6572H4.84277V53.7812H9.65723V48.876H4.84277V44H0V39.0947H4.84277V34.2188H9.65723V29.3428H14.5V24.4385H19.3428V19.5625H87V24.4385ZM29 4.87598H33.8428V9.78125H38.6572V19.5615H19.3428V14.6572H24.1572V0H29V4.87598ZM77.3428 9.78125H82.1572V14.6572H87V19.5615H62.8428V14.6572H67.6572V4.87598H72.5V0H77.3428V9.78125Z" fill="#222222"/>
<path d="M48.3428 58.6279H33.8428V53.752H48.3428V58.6279ZM67.6855 39.124H72.5V53.752H67.6855V58.6279H53.1572V53.752H48.3428V39.124H53.1572V34.248H67.6855V39.124ZM33.8428 53.752H29V39.124H33.8428V53.752ZM53.1855 53.752H67.6572V39.124H53.1855V53.752ZM48.3428 39.124H33.8428V34.248H48.3428V39.124Z" fill="#C4D92E"/>
</svg>
