<svg width="233" height="233" viewBox="0 0 233 233" fill="none" xmlns="http://www.w3.org/2000/svg">
<g clip-path="url(#clip0_679_16)">
<path d="M225.211 108.778V100.989H217.422V93.2H209.7V85.4777V77.6889H201.911V69.9H194.122V62.1777H186.4V54.3889V46.6H178.611V38.8777V31.0889V23.3V15.5777H170.822V7.78886V0H163.1V7.78886V15.5777H155.311V23.3H147.522V31.0889V38.8777H139.8V46.6H132.011H124.222H116.5H108.711H100.922H93.2H85.4111V38.8777V31.0889H77.6223V23.3V15.5777H69.9V7.78886V0H62.1111V7.78886H54.3223V15.5777V23.3V31.0889H46.6V38.8777V46.6H38.8111V54.3889V62.1777H31.0223V69.9H23.3V77.6889H15.5111V85.4777V93.2H7.72229V100.989H0V108.778H7.72229H15.5111V116.5H23.3V124.289H15.5111V132.078H7.72229V139.8H15.5111V147.589H23.3H31.0223V155.378H38.8111H46.6H54.3223V163.1V170.889H46.6V178.678H38.8111V186.4V194.189H31.0223V201.978V209.7H38.8111H46.6H54.3223V217.489V225.278H62.1111V233H69.9H77.6223H85.4111H93.2V225.278H100.922V217.489V209.7H108.711H116.5V217.489V225.278H124.222V233H132.011H139.8H147.522H155.311V225.278H163.1V217.489V209.7H170.822H178.611H186.4H194.122V201.978H186.4V194.189V186.4H178.611V178.678V170.889H170.822V163.1V155.378H178.611H186.4H194.122V147.589H201.911H209.7H217.422V139.8V132.078H209.7V124.289H217.422V116.5H225.211H233V108.778H225.211Z" fill="#222222"/>
<path d="M125.554 120.827H117.565V128.882H125.554H133.542H141.531V120.827H133.542H125.554Z" fill="#C4D92D"/>
<path d="M93.5994 120.827H85.6108V128.882H93.5994H101.588H109.577V120.827H101.588H93.5994Z" fill="#C4D92D"/>
<path d="M117.565 104.717V96.6616H109.577V104.717V112.772V120.827H117.565V112.772V104.717Z" fill="#C4D92D"/>
<path d="M85.6109 104.717V96.6616H77.6223V104.717V112.772V120.827H85.6109V112.772V104.717Z" fill="#C4D92D"/>
<path d="M141.531 96.6616V104.717V112.772V120.827H149.519V112.772V104.717V96.6616H141.531Z" fill="#C4D92D"/>
<path d="M133.542 96.6616H141.531V88.6064H133.542H125.554H117.565V96.6616H125.554H133.542Z" fill="#C4D92D"/>
<path d="M101.588 96.6616H109.577V88.6064H101.588H93.5994H85.6108V96.6616H93.5994H101.588Z" fill="#C4D92D"/>
</g>
<defs>
<clipPath id="clip0_679_16">
<rect width="233" height="233" fill="white"/>
</clipPath>
</defs>
</svg>
