<svg width="85" height="88" viewBox="0 0 85 88" fill="none" xmlns="http://www.w3.org/2000/svg">
<g clip-path="url(#clip0_482_4)">
<path d="M19.833 82.3203H17V88H25.5V85.1602H28.333V88H36.833V82.3203H51V88H62.333V85.1602H65.167V76.6406H19.833V82.3203ZM73.667 53.9404H70.833V56.7803H68V62.46H65.167V68.1201H62.333V65.2998H59.5V62.46H56.667V59.6201H53.833V56.7803H51V53.9404H48.167V51.1006H22.667V56.7803H19.833V76.6396H65.167V73.7998H68V70.96H73.667V65.2998H76.5V62.46H79.333V56.7803H82.167V51.1006H73.667V53.9404ZM76.5 45.4199H73.667V51.0996H85V45.4199H82.167V39.7402H76.5V45.4199ZM0 34.0605H2.83301V36.9004H5.66699V39.7402H2.83301V42.5801H5.66699V45.4199H14.167V48.2598H19.833V51.0996H48.167V48.2598H53.833V45.4199H62.333V42.5801H68V36.9004H62.333V34.0605H65.167V31.2207H0V34.0605ZM45.333 8.52051H42.5V14.2002H25.5V8.52051H22.667V5.68066H14.167V14.2002H11.333V19.8799H8.5V22.7002H5.66699V28.3799H2.83301V31.2197H70.833V28.3799H68V22.7002H65.167V19.8799H62.333V17.04H59.5V14.2002H56.667V11.3604H53.833V5.68066H45.333V8.52051ZM48.167 2.83984H45.333V5.67969H51V0H48.167V2.83984ZM17 5.67969H22.667V2.83984H19.833V0H17V5.67969Z" fill="#222222"/>
<path d="M29.5481 38.3208H36.8333V35.9009H29.5481V38.3208ZM19.8333 38.3208H27.1194V35.9009H19.8333V38.3208ZM36.8333 35.8999H39.262V28.6401H36.8333V35.8999ZM27.1194 35.8999H29.5481V28.6401H27.1194V35.8999ZM17.4045 35.8999H19.8333V28.6401H17.4045V35.8999ZM29.5481 26.2202V28.6401H36.8333V26.2202H29.5481ZM19.8333 28.6401H27.1194V26.2202H19.8333V28.6401Z" fill="#C4D92E"/>
</g>
<defs>
<clipPath id="clip0_482_4">
<rect width="85" height="88" fill="white" transform="matrix(-1 0 0 1 85 0)"/>
</clipPath>
</defs>
</svg>
