<svg width="56" height="71" viewBox="0 0 56 71" fill="none" xmlns="http://www.w3.org/2000/svg">
<path d="M52.499 71H48.999V67.5176H52.499V71ZM48.999 67.5156H45.5V64.0352H48.999V67.5156ZM56 67.5156H52.499V64.0352H56V67.5156ZM52.499 64.0352H48.999V60.5537H52.499V64.0352ZM41.998 60.5527H35V57.0713H41.998V60.5527ZM35 57.0684H31.5V53.5869H35V57.0684ZM45.5 57.0684H41.999V53.5869H45.5V57.0684ZM31.5 53.5859H27.999V50.1064H31.5V53.5859ZM48.999 53.5859H45.5V50.1064H48.999V53.5859ZM35 50.1045H31.5V46.6221H35V50.1045ZM45.5 50.1045H41.999V46.6221H45.5V50.1045ZM41.998 46.6221H35V43.1396H41.998V46.6221ZM35 38.3076H10.5V34.8252H35V38.3076ZM10.5 34.8252H7.00098V31.3428H10.5V34.8252ZM41.998 31.3428H38.501V34.8252H35V31.3428H38.499V27.8604H41.998V31.3428ZM7.00098 31.3428H3.49902V27.8604H7.00098V31.3428ZM24.5 31.3428H20.998V27.8604H24.5V31.3428ZM3.49902 27.8584H0V20.8965H3.49902V27.8584ZM45.5 27.8584H41.999V20.8965H45.5V27.8584ZM24.5 24.3779H20.998V20.8965H24.5V24.3779ZM3.49902 20.8955H0V17.4141H3.49902V20.8955ZM24.5 20.8955H20.998V17.4141H24.5V20.8955ZM45.5 20.8955H41.999V17.4141H45.5V20.8955ZM3.49902 17.4111H0V13.9297H3.49902V17.4111ZM27.999 17.4111H24.5V13.9297H27.999V17.4111ZM45.5 17.4111H41.999V13.9297H45.5V17.4111ZM3.49902 10.4492V13.9287H0V10.4492H3.49902ZM17.499 13.9287H13.998V10.4492H17.499V13.9287ZM31.5 13.9287H27.999V10.4492H31.5V13.9287ZM45.5 13.9287H41.999V10.4492H45.5V13.9287ZM7.00098 10.4492H3.49902V6.9668H7.00098V10.4492ZM27.999 10.4492H17.499V6.9668H27.999V10.4492ZM41.998 10.4492H38.499V6.9668H41.998V10.4492ZM10.5 6.96484H7.00098V3.48242H10.5V6.96484ZM38.501 6.96484H35V3.48242H38.501V6.96484ZM35 3.48242H10.5V0H35V3.48242Z" fill="#222222"/>
</svg>
