<svg width="102" height="41" viewBox="0 0 102 41" fill="none" xmlns="http://www.w3.org/2000/svg">
<g clip-path="url(#clip0_679_38)">
<path d="M94.6506 13.5379V6.76702H87.8874V0H81.128H74.3648H67.6092H60.846H54.0866H47.3272H40.564H33.8046H27.0414H20.2858H13.5226V6.76702H6.76321V13.5379H0V20.3049V27.0719H6.76321V33.8389H13.5226V40.6059H20.2858H27.0414H33.8046H40.564H47.3272H54.0866H60.846H67.6092H74.3648H81.128H87.8874V33.8389H94.6506V27.0719H101.41V20.3049V13.5379H94.6506Z" fill="#231F20"/>
</g>
<path d="M26.3564 14.6667V13H34.6897V14.6667H26.3564ZM24.6897 16.3333V14.6667H26.3564V16.3333H24.6897ZM34.6897 16.3333V14.6667H36.3564V16.3333H34.6897ZM23.023 24.6667V16.3333H24.6897V24.6667H23.023ZM24.6897 26.3333V24.6667H26.3564V26.3333H24.6897ZM34.6897 26.3333V24.6667H36.3564V26.3333H34.6897ZM26.3564 28V26.3333H34.6897V28H26.3564ZM42.123 28.24C41.2964 28.24 40.6097 28.1 40.063 27.82C39.5164 27.54 39.1097 27.1667 38.843 26.7C38.5764 26.22 38.443 25.7067 38.443 25.16C38.443 24.4933 38.6164 23.9267 38.963 23.46C39.3097 22.98 39.803 22.6133 40.443 22.36C41.083 22.1067 41.8497 21.98 42.743 21.98H45.363C45.363 21.3933 45.2764 20.9067 45.103 20.52C44.9297 20.1333 44.6697 19.8467 44.323 19.66C43.9897 19.46 43.563 19.36 43.043 19.36C42.443 19.36 41.9297 19.5067 41.503 19.8C41.0764 20.08 40.8097 20.5 40.703 21.06H38.703C38.783 20.3533 39.023 19.7533 39.423 19.26C39.8364 18.7533 40.363 18.3667 41.003 18.1C41.643 17.82 42.323 17.68 43.043 17.68C43.9897 17.68 44.783 17.8467 45.423 18.18C46.063 18.5133 46.543 18.9867 46.863 19.6C47.1964 20.2 47.363 20.92 47.363 21.76V28H45.623L45.463 26.3C45.3164 26.5667 45.143 26.82 44.943 27.06C44.743 27.3 44.503 27.5067 44.223 27.68C43.9564 27.8533 43.643 27.9867 43.283 28.08C42.9364 28.1867 42.5497 28.24 42.123 28.24ZM42.503 26.62C42.9297 26.62 43.3164 26.5333 43.663 26.36C44.0097 26.1867 44.303 25.9533 44.543 25.66C44.7964 25.3533 44.983 25.0133 45.103 24.64C45.2364 24.2533 45.3097 23.86 45.323 23.46V23.4H42.943C42.3697 23.4 41.903 23.4733 41.543 23.62C41.1964 23.7533 40.943 23.94 40.783 24.18C40.623 24.42 40.543 24.7 40.543 25.02C40.543 25.3533 40.6164 25.64 40.763 25.88C40.923 26.1067 41.1497 26.2867 41.443 26.42C41.7364 26.5533 42.0897 26.62 42.503 26.62ZM47.9559 18V16.3333H49.6225V13H51.2892V16.3333H54.6225V18H51.2892V26.3333H49.6225V18H47.9559ZM51.2892 28V26.3333H54.6225V28H51.2892ZM58.1689 18V16.3333H63.1689V18H58.1689ZM56.5022 19.6667V18H58.1689V19.6667H56.5022ZM63.1689 19.6667V18H64.8355V19.6667H63.1689ZM54.8355 24.6667V19.6667H56.5022V24.6667H54.8355ZM56.5022 26.3333V24.6667H58.1689V26.3333H56.5022ZM63.1689 26.3333V24.6667H64.8355V26.3333H63.1689ZM58.1689 28V26.3333H63.1689V28H58.1689ZM66.6957 28V13H68.3624V18H70.029V19.6667H68.3624V28H66.6957ZM70.029 18V16.3333H73.3624V18H70.029ZM73.3624 19.6667V18H75.029V19.6667H73.3624ZM75.029 28V19.6667H76.6957V28H75.029Z" fill="white"/>
<defs>
<clipPath id="clip0_679_38">
<rect width="101.41" height="40.6059" fill="white"/>
</clipPath>
</defs>
</svg>
