<svg width="56" height="71" viewBox="0 0 56 71" fill="none" xmlns="http://www.w3.org/2000/svg">
<g clip-path="url(#clip0_262_612)">
<path d="M56 64.0352H52.4987V67.5155H56V64.0352Z" fill="#222222"/>
<path d="M52.4987 67.5176H48.9993V70.9999H52.4987V67.5176Z" fill="#222222"/>
<path d="M52.4987 60.5532H48.9993V64.0355H52.4987V60.5532Z" fill="#222222"/>
<path d="M48.9993 64.0352H45.4999V67.5155H48.9993V64.0352Z" fill="#222222"/>
<path d="M48.9993 50.106H45.4999V53.5863H48.9993V50.106Z" fill="#222222"/>
<path d="M45.4999 53.5864H41.9985V57.0687H45.4999V53.5864Z" fill="#222222"/>
<path d="M45.4999 46.6221H41.9985V50.1044H45.4999V46.6221Z" fill="#222222"/>
<path d="M41.9985 57.0708H38.4991V60.5531H41.9985V57.0708Z" fill="#222222"/>
<path d="M41.9985 43.1396H38.4991V46.622H41.9985V43.1396Z" fill="#222222"/>
<path d="M38.5011 57.0708H34.9998V60.5531H38.5011V57.0708Z" fill="#222222"/>
<path d="M38.5011 43.1396H34.9998V46.622H38.5011V43.1396Z" fill="#222222"/>
<path d="M34.9997 53.5864H31.5004V57.0687H34.9997V53.5864Z" fill="#222222"/>
<path d="M34.9997 46.6221H31.5004V50.1044H34.9997V46.6221Z" fill="#222222"/>
<path d="M31.5004 50.106H27.999V53.5863H31.5004V50.106Z" fill="#222222"/>
<path d="M45.4999 24.3779H41.9985V27.8583H45.4999V24.3779Z" fill="#222222"/>
<path d="M45.4999 20.896H41.9985V24.3783H45.4999V20.896Z" fill="#222222"/>
<path d="M45.4999 17.4136H41.9985V20.8959H45.4999V17.4136Z" fill="#222222"/>
<path d="M45.4999 13.9292H41.9985V17.4115H45.4999V13.9292Z" fill="#222222"/>
<path d="M45.4999 10.4487H41.9985V13.9291H45.4999V10.4487Z" fill="#222222"/>
<path d="M41.9985 27.8604H38.4991V31.3427H41.9985V27.8604Z" fill="#222222"/>
<path d="M41.9985 6.9668H38.4991V10.4491H41.9985V6.9668Z" fill="#222222"/>
<path d="M38.5011 31.3428H34.9998V34.8251H38.5011V31.3428Z" fill="#222222"/>
<path d="M38.5011 3.48242H34.9998V6.96474H38.5011V3.48242Z" fill="#222222"/>
<path d="M34.9997 34.8252H31.5004V38.3075H34.9997V34.8252Z" fill="#222222"/>
<path d="M34.9997 0H31.5004V3.48232H34.9997V0Z" fill="#222222"/>
<path d="M31.5004 34.8252H27.999V38.3075H31.5004V34.8252Z" fill="#222222"/>
<path d="M31.5004 10.4487H27.999V13.9291H31.5004V10.4487Z" fill="#222222"/>
<path d="M31.5004 0H27.999V3.48232H31.5004V0Z" fill="#222222"/>
<path d="M27.999 34.8252H24.4996V38.3075H27.999V34.8252Z" fill="#222222"/>
<path d="M27.999 13.9292H24.4996V17.4115H27.999V13.9292Z" fill="#222222"/>
<path d="M27.999 6.9668H24.4996V10.4491H27.999V6.9668Z" fill="#222222"/>
<path d="M27.999 0H24.4996V3.48232H27.999V0Z" fill="#222222"/>
<path d="M24.4996 34.8252H20.9983V38.3075H24.4996V34.8252Z" fill="#222222"/>
<path d="M24.4996 27.8604H20.9983V31.3427H24.4996V27.8604Z" fill="#222222"/>
<path d="M24.4996 20.896H20.9983V24.3783H24.4996V20.896Z" fill="#222222"/>
<path d="M24.4996 17.4136H20.9983V20.8959H24.4996V17.4136Z" fill="#222222"/>
<path d="M24.4996 6.9668H20.9983V10.4491H24.4996V6.9668Z" fill="#222222"/>
<path d="M24.4996 0H20.9983V3.48232H24.4996V0Z" fill="#222222"/>
<path d="M20.9983 34.8252H17.4989V38.3075H20.9983V34.8252Z" fill="#222222"/>
<path d="M20.9983 6.9668H17.4989V10.4491H20.9983V6.9668Z" fill="#222222"/>
<path d="M20.9983 0H17.4989V3.48232H20.9983V0Z" fill="#222222"/>
<path d="M17.4989 34.8252H13.9976V38.3075H17.4989V34.8252Z" fill="#222222"/>
<path d="M17.4989 10.4487H13.9976V13.9291H17.4989V10.4487Z" fill="#222222"/>
<path d="M17.4989 0H13.9976V3.48232H17.4989V0Z" fill="#222222"/>
<path d="M13.9995 34.8252H10.5001V38.3075H13.9995V34.8252Z" fill="#222222"/>
<path d="M13.9995 0H10.5001V3.48232H13.9995V0Z" fill="#222222"/>
<path d="M10.5001 31.3428H7.00073V34.8251H10.5001V31.3428Z" fill="#222222"/>
<path d="M10.5001 3.48242H7.00073V6.96474H10.5001V3.48242Z" fill="#222222"/>
<path d="M7.00075 27.8604H3.49939V31.3427H7.00075V27.8604Z" fill="#222222"/>
<path d="M7.00075 6.9668H3.49939V10.4491H7.00075V6.9668Z" fill="#222222"/>
<path d="M3.49938 24.3779H0V27.8583H3.49938V24.3779Z" fill="#222222"/>
<path d="M3.49938 20.896H0V24.3783H3.49938V20.896Z" fill="#222222"/>
<path d="M3.49938 17.4136H0V20.8959H3.49938V17.4136Z" fill="#222222"/>
<path d="M3.49938 13.9292H0V17.4115H3.49938V13.9292Z" fill="#222222"/>
<path d="M3.49938 10.4487H0V13.9291H3.49938V10.4487Z" fill="#222222"/>
</g>
<defs>
<clipPath id="clip0_262_612">
<rect width="56" height="71" fill="white"/>
</clipPath>
</defs>
</svg>
