<svg width="338" height="53" viewBox="0 0 338 53" fill="none" xmlns="http://www.w3.org/2000/svg">
<path d="M0 40.5V0H27V4.5H4.5V18H27V22.5H4.5V40.5H0ZM35.6944 40.5V13.284H40.2304V40.5H35.6944ZM37.9624 7.506C37.0624 7.506 36.3064 7.218 35.6944 6.642C35.1184 6.03 34.8304 5.274 34.8304 4.374C34.8304 3.474 35.1184 2.754 35.6944 2.214C36.3064 1.638 37.0624 1.35 37.9624 1.35C38.8264 1.35 39.5644 1.638 40.1764 2.214C40.7884 2.754 41.0944 3.474 41.0944 4.374C41.0944 5.274 40.7884 6.03 40.1764 6.642C39.5644 7.218 38.8264 7.506 37.9624 7.506ZM46.6151 13.5V9H51.1151V0H55.6151V9H64.6151V13.5H55.6151V36H51.1151V13.5H46.6151ZM55.6151 40.5V36H64.6151V40.5H55.6151ZM69.1327 40.5V9H73.6327V13.5H78.1327V18H73.6327V40.5H69.1327ZM78.1327 13.5V9H87.1327V13.5H78.1327ZM96.1327 13.5V9H105.133V13.5H96.1327ZM87.1327 40.5V13.5H96.1327V18H91.6327V40.5H87.1327ZM105.133 40.5V13.5H109.633V40.5H105.133ZM129.829 41.148C127.273 41.148 125.005 40.554 123.025 39.366C121.081 38.178 119.551 36.522 118.435 34.398C117.319 32.238 116.761 29.736 116.761 26.892C116.761 24.012 117.301 21.51 118.381 19.386C119.497 17.262 121.045 15.606 123.025 14.418C125.041 13.23 127.345 12.636 129.937 12.636C132.601 12.636 134.851 13.23 136.687 14.418C138.559 15.606 139.981 17.172 140.953 19.116C141.961 21.024 142.465 23.13 142.465 25.434C142.465 25.794 142.465 26.172 142.465 26.568C142.465 26.964 142.447 27.414 142.411 27.918H120.163V24.408H138.037C137.929 21.924 137.101 19.98 135.553 18.576C134.041 17.172 132.133 16.47 129.829 16.47C128.281 16.47 126.841 16.83 125.509 17.55C124.213 18.234 123.169 19.26 122.377 20.628C121.585 21.96 121.189 23.634 121.189 25.65V27.162C121.189 29.394 121.585 31.266 122.377 32.778C123.205 34.29 124.267 35.424 125.563 36.18C126.895 36.936 128.317 37.314 129.829 37.314C131.737 37.314 133.303 36.9 134.527 36.072C135.787 35.208 136.687 34.056 137.227 32.616H141.709C141.277 34.236 140.521 35.694 139.441 36.99C138.361 38.286 137.011 39.312 135.391 40.068C133.807 40.788 131.953 41.148 129.829 41.148ZM167.289 4.5V0H189.789V4.5H167.289ZM162.789 18V4.5H167.289V18H162.789ZM189.789 9V4.5H194.289V9H189.789ZM167.289 22.5V18H189.789V22.5H167.289ZM189.789 36V22.5H194.289V36H189.789ZM162.789 36V31.5H167.289V36H162.789ZM167.289 40.5V36H189.789V40.5H167.289ZM198.806 13.5V9H203.306V0H207.806V9H216.806V13.5H207.806V36H203.306V13.5H198.806ZM207.806 40.5V36H216.806V40.5H207.806ZM228.074 52.38L234.716 37.476H233.15L222.458 13.284H227.372L236.228 34.074L245.516 13.284H250.214L232.826 52.38H228.074ZM254.57 36V0H259.07V36H254.57ZM259.07 40.5V36H263.57V40.5H259.07ZM267.962 40.5V13.284H272.498V40.5H267.962ZM270.23 7.506C269.33 7.506 268.574 7.218 267.962 6.642C267.386 6.03 267.098 5.274 267.098 4.374C267.098 3.474 267.386 2.754 267.962 2.214C268.574 1.638 269.33 1.35 270.23 1.35C271.094 1.35 271.832 1.638 272.444 2.214C273.056 2.754 273.362 3.474 273.362 4.374C273.362 5.274 273.056 6.03 272.444 6.642C271.832 7.218 271.094 7.506 270.23 7.506ZM278.883 40.5V9H283.383V13.5H287.883V18H283.383V40.5H278.883ZM287.883 13.5V9H301.383V13.5H287.883ZM301.383 40.5V13.5H305.883V40.5H301.383ZM328.365 31.5V27H332.865V18H328.365V13.5H314.865V9H328.365V13.5H332.865V9H337.365V45H332.865V31.5H328.365ZM310.365 31.5V13.5H314.865V31.5H310.365ZM314.865 36V31.5H328.365V36H314.865ZM310.365 45V40.5H314.865V45H310.365ZM314.865 49.5V45H332.865V49.5H314.865Z" fill="#222222"/>
</svg>
