<svg width="27" height="22" viewBox="0 0 27 22" fill="none" xmlns="http://www.w3.org/2000/svg">
<path d="M26.655 12.2268H23.9907V9.17119H26.655V12.2268Z" fill="#373537"/>
<path d="M23.9901 9.16943H21.3243V6.11554H23.9901V9.16943Z" fill="#373537"/>
<path d="M23.9901 12.2268H21.3243V9.17119H23.9901V12.2268Z" fill="#373537"/>
<path d="M23.9901 15.2837H21.3243V12.2281H23.9901V15.2837Z" fill="#373537"/>
<path d="M21.3236 6.11255H18.6593V3.05694H21.3236V6.11255Z" fill="#373537"/>
<path d="M21.3236 12.2268H18.6593V9.17119H21.3236V12.2268Z" fill="#373537"/>
<path d="M21.3236 18.3423H18.6593V15.2867H21.3236V18.3423Z" fill="#373537"/>
<path d="M18.6586 3.05566H15.9928V5.14984e-05H18.6586V3.05566Z" fill="#373537"/>
<path d="M18.6586 12.2268H15.9928V9.17119H18.6586V12.2268Z" fill="#373537"/>
<path d="M18.6586 21.3975H15.9928V18.3436H18.6586V21.3975Z" fill="#373537"/>
<path d="M15.9922 12.2268H13.3279V9.17119H15.9922V12.2268Z" fill="#373537"/>
<path d="M13.3272 12.2268H10.6614V9.17119H13.3272V12.2268Z" fill="#373537"/>
<path d="M10.6622 12.2268H7.99792V9.17119H10.6622V12.2268Z" fill="#373537"/>
<path d="M7.99707 12.2268H5.3313V9.17119H7.99707V12.2268Z" fill="#373537"/>
<path d="M5.33078 12.2268H2.6665V9.17119H5.33078V12.2268Z" fill="#373537"/>
<path d="M2.66578 12.2268H0V9.17119H2.66578V12.2268Z" fill="#373537"/>
</svg>
