<svg width="240" height="42" viewBox="0 0 240 42" fill="none" xmlns="http://www.w3.org/2000/svg">
<path d="M-2.98023e-07 40.5V36.558H8.586V6.642H-2.98023e-07V2.7H21.708V6.642H13.122V36.558H21.708V40.5H-2.98023e-07ZM27.0329 40.5V9H31.5329V13.5H36.0329V18H31.5329V40.5H27.0329ZM36.0329 13.5V9H49.5329V13.5H36.0329ZM49.5329 40.5V13.5H54.0329V40.5H49.5329ZM58.5153 13.5V9H63.0153V0H67.5153V9H76.5153V13.5H67.5153V36H63.0153V13.5H58.5153ZM67.5153 40.5V36H76.5153V40.5H67.5153ZM91.2389 41.148C88.6829 41.148 86.4149 40.572 84.4349 39.42C82.4549 38.232 80.8889 36.594 79.7369 34.506C78.6209 32.382 78.0629 29.916 78.0629 27.108C78.0629 24.264 78.6209 21.798 79.7369 19.71C80.8529 17.622 82.4009 16.002 84.3809 14.85C86.3969 13.662 88.7189 13.068 91.3469 13.068C93.9749 13.068 96.2249 13.662 98.0969 14.85C99.9689 16.002 101.409 17.532 102.417 19.44C103.425 21.312 103.929 23.364 103.929 25.596C103.929 25.956 103.929 26.352 103.929 26.784C103.929 27.18 103.911 27.63 103.875 28.134H81.4649V24.624H99.4469C99.3389 22.068 98.5109 20.088 96.9629 18.684C95.4509 17.28 93.5429 16.578 91.2389 16.578C89.6909 16.578 88.2509 16.92 86.9189 17.604C85.5869 18.288 84.5069 19.314 83.6789 20.682C82.8869 22.05 82.4909 23.778 82.4909 25.866V27.378C82.4909 29.61 82.9049 31.464 83.7329 32.94C84.5609 34.416 85.6409 35.532 86.9729 36.288C88.3409 37.008 89.7629 37.368 91.2389 37.368C93.1109 37.368 94.6769 36.936 95.9369 36.072C97.1969 35.208 98.1149 34.02 98.6909 32.508H103.173C102.705 34.164 101.931 35.64 100.851 36.936C99.7709 38.232 98.4209 39.258 96.8009 40.014C95.2169 40.77 93.3629 41.148 91.2389 41.148ZM108.271 40.5V9H112.771V13.5H117.271V18H112.771V40.5H108.271ZM117.271 13.5V9H126.271V13.5H117.271ZM131.869 18V9H136.369V18H131.869ZM149.869 18V9H154.369V18H149.869ZM136.369 31.5V18H140.869V31.5H136.369ZM145.369 31.5V18H149.869V31.5H145.369ZM140.869 40.5V31.5H145.369V40.5H140.869ZM161.947 40.5V13.716H166.483V40.5H161.947ZM164.215 8.37C163.315 8.37 162.559 8.064 161.947 7.452C161.335 6.84 161.029 6.084 161.029 5.184C161.029 4.32 161.335 3.582 161.947 2.97C162.559 2.358 163.315 2.052 164.215 2.052C165.079 2.052 165.817 2.358 166.429 2.97C167.041 3.582 167.347 4.338 167.347 5.238C167.347 6.102 167.041 6.84 166.429 7.452C165.817 8.064 165.079 8.37 164.215 8.37ZM184.047 41.148C181.491 41.148 179.223 40.572 177.243 39.42C175.263 38.232 173.697 36.594 172.545 34.506C171.429 32.382 170.871 29.916 170.871 27.108C170.871 24.264 171.429 21.798 172.545 19.71C173.661 17.622 175.209 16.002 177.189 14.85C179.205 13.662 181.527 13.068 184.155 13.068C186.783 13.068 189.033 13.662 190.905 14.85C192.777 16.002 194.217 17.532 195.225 19.44C196.233 21.312 196.737 23.364 196.737 25.596C196.737 25.956 196.737 26.352 196.737 26.784C196.737 27.18 196.719 27.63 196.683 28.134H174.273V24.624H192.255C192.147 22.068 191.319 20.088 189.771 18.684C188.259 17.28 186.351 16.578 184.047 16.578C182.499 16.578 181.059 16.92 179.727 17.604C178.395 18.288 177.315 19.314 176.487 20.682C175.695 22.05 175.299 23.778 175.299 25.866V27.378C175.299 29.61 175.713 31.464 176.541 32.94C177.369 34.416 178.449 35.532 179.781 36.288C181.149 37.008 182.571 37.368 184.047 37.368C185.919 37.368 187.485 36.936 188.745 36.072C190.005 35.208 190.923 34.02 191.499 32.508H195.981C195.513 34.164 194.739 35.64 193.659 36.936C192.579 38.232 191.229 39.258 189.609 40.014C188.025 40.77 186.171 41.148 184.047 41.148ZM199.46 22.5V9H203.96V22.5H199.46ZM217.46 22.5V9H221.96V22.5H217.46ZM235.46 22.5V9H239.96V22.5H235.46ZM203.96 31.5V22.5H208.46V31.5H203.96ZM212.96 31.5V22.5H217.46V31.5H212.96ZM221.96 31.5V22.5H226.46V31.5H221.96ZM230.96 31.5V22.5H235.46V31.5H230.96ZM208.46 40.5V31.5H212.96V40.5H208.46ZM226.46 40.5V31.5H230.96V40.5H226.46Z" fill="black"/>
</svg>
