<svg width="183" height="119" viewBox="0 0 183 119" fill="none" xmlns="http://www.w3.org/2000/svg">
<path d="M5.67436e-05 112.976L5.77356 118.749L11.5471 112.976L5.77356 107.202L5.67436e-05 112.976ZM181.5 112.976V113.976H182.5V112.976H181.5ZM5.77356 112.976V113.976H7.77046V112.976V111.976H5.77356V112.976ZM11.7642 112.976V113.976H15.758V112.976V111.976H11.7642V112.976ZM19.7518 112.976V113.976H23.7456V112.976V111.976H19.7518V112.976ZM27.7394 112.976V113.976H31.7332V112.976V111.976H27.7394V112.976ZM35.727 112.976V113.976H39.7208V112.976V111.976H35.727V112.976ZM43.7146 112.976V113.976H47.7084V112.976V111.976H43.7146V112.976ZM51.7022 112.976V113.976H55.6959V112.976V111.976H51.7022V112.976ZM59.6897 112.976V113.976H63.6835V112.976V111.976H59.6897V112.976ZM67.6773 112.976V113.976H71.6711V112.976V111.976H67.6773V112.976ZM75.6649 112.976V113.976H79.6587V112.976V111.976H75.6649V112.976ZM83.6525 112.976V113.976H87.6463V112.976V111.976H83.6525V112.976ZM91.6401 112.976V113.976H95.6339V112.976V111.976H91.6401V112.976ZM99.6276 112.976V113.976H103.621V112.976V111.976H99.6276V112.976ZM107.615 112.976V113.976H111.609V112.976V111.976H107.615V112.976ZM115.603 112.976V113.976H119.597V112.976V111.976H115.603V112.976ZM123.59 112.976V113.976H127.584V112.976V111.976H123.59V112.976ZM131.578 112.976V113.976H135.572V112.976V111.976H131.578V112.976ZM139.566 112.976V113.976H143.559V112.976V111.976H139.566V112.976ZM147.553 112.976V113.976H151.547V112.976V111.976H147.553V112.976ZM155.541 112.976V113.976H159.534V112.976V111.976H155.541V112.976ZM163.528 112.976V113.976H167.522V112.976V111.976H163.528V112.976ZM171.516 112.976V113.976H175.51V112.976V111.976H171.516V112.976ZM179.503 112.976V113.976H181.5V112.976V111.976H179.503V112.976ZM181.5 112.976H182.5V110.958H181.5H180.5V112.976H181.5ZM181.5 106.923H182.5V102.888H181.5H180.5V106.923H181.5ZM181.5 98.8536H182.5V94.8188H181.5H180.5V98.8536H181.5ZM181.5 90.784H182.5V86.7491H181.5H180.5V90.784H181.5ZM181.5 82.7143H182.5V78.6794H181.5H180.5V82.7143H181.5ZM181.5 74.6446H182.5V70.6097H181.5H180.5V74.6446H181.5ZM181.5 66.5749H182.5V62.54H181.5H180.5V66.5749H181.5ZM181.5 58.5052H182.5V54.4704H181.5H180.5V58.5052H181.5ZM181.5 50.4355H182.5V46.4007H181.5H180.5V50.4355H181.5ZM181.5 42.3658H182.5V38.331H181.5H180.5V42.3658H181.5ZM181.5 34.2961H182.5V30.2613H181.5H180.5V34.2961H181.5ZM181.5 26.2265H182.5V22.1916H181.5H180.5V26.2265H181.5ZM181.5 18.1568H182.5V14.1219H181.5H180.5V18.1568H181.5ZM181.5 10.0871H182.5V6.05224H181.5H180.5V10.0871H181.5ZM181.5 2.01739H182.5V0H181.5H180.5V2.01739H181.5Z" fill="#222222"/>
</svg>
