<svg width="213" height="37" viewBox="0 0 213 37" fill="none" xmlns="http://www.w3.org/2000/svg">
<path d="M211.836 5.77344L212.836 5.77344L212.836 4.77344L211.836 4.77344L211.836 5.77344ZM-5.64659e-06 5.77345L5.7735 11.5469L11.547 5.77345L5.7735 -5.34058e-05L-5.64659e-06 5.77345ZM211.836 36.7734L212.836 36.7734L212.836 34.8359L211.836 34.8359L210.836 34.8359L210.836 36.7734L211.836 36.7734ZM211.836 30.9609L212.836 30.9609L212.836 27.0859L211.836 27.0859L210.836 27.0859L210.836 30.9609L211.836 30.9609ZM211.836 23.2109L212.836 23.2109L212.836 19.3359L211.836 19.3359L210.836 19.3359L210.836 23.2109L211.836 23.2109ZM211.836 15.4609L212.836 15.4609L212.836 11.5859L211.836 11.5859L210.836 11.5859L210.836 15.4609L211.836 15.4609ZM211.836 7.71094L212.836 7.71094L212.836 5.77344L211.836 5.77344L210.836 5.77344L210.836 7.71094L211.836 7.71094ZM211.836 5.77344L211.836 4.77344L209.855 4.77344L209.855 5.77344L209.855 6.77344L211.836 6.77344L211.836 5.77344ZM205.892 5.77344L205.892 4.77344L201.929 4.77344L201.929 5.77344L201.929 6.77344L205.892 6.77344L205.892 5.77344ZM197.967 5.77344L197.967 4.77344L194.004 4.77344L194.004 5.77344L194.004 6.77344L197.967 6.77344L197.967 5.77344ZM190.041 5.77344L190.041 4.77344L186.078 4.77344L186.078 5.77344L186.078 6.77344L190.041 6.77344L190.041 5.77344ZM182.116 5.77344L182.116 4.77344L178.153 4.77344L178.153 5.77344L178.153 6.77344L182.116 6.77344L182.116 5.77344ZM174.19 5.77344L174.19 4.77344L170.227 4.77344L170.227 5.77344L170.227 6.77344L174.19 6.77344L174.19 5.77344ZM166.265 5.77344L166.265 4.77344L162.302 4.77344L162.302 5.77344L162.302 6.77344L166.265 6.77344L166.265 5.77344ZM158.339 5.77344L158.339 4.77344L154.376 4.77344L154.376 5.77344L154.376 6.77344L158.339 6.77344L158.339 5.77344ZM150.414 5.77344L150.414 4.77344L146.451 4.77344L146.451 5.77344L146.451 6.77344L150.414 6.77344L150.414 5.77344ZM142.488 5.77344L142.488 4.77344L138.525 4.77344L138.525 5.77344L138.525 6.77344L142.488 6.77344L142.488 5.77344ZM134.563 5.77344L134.563 4.77344L130.6 4.77344L130.6 5.77344L130.6 6.77344L134.563 6.77344L134.563 5.77344ZM126.637 5.77344L126.637 4.77344L122.674 4.77344L122.674 5.77344L122.674 6.77344L126.637 6.77344L126.637 5.77344ZM118.712 5.77344L118.712 4.77344L114.749 4.77344L114.749 5.77344L114.749 6.77344L118.712 6.77344L118.712 5.77344ZM110.786 5.77344L110.786 4.77344L106.823 4.77344L106.823 5.77344L106.823 6.77344L110.786 6.77344L110.786 5.77344ZM102.861 5.77344L102.861 4.77344L98.898 4.77344L98.898 5.77344L98.898 6.77344L102.861 6.77344L102.861 5.77344ZM94.9352 5.77344L94.9352 4.77344L90.9725 4.77344L90.9725 5.77344L90.9725 6.77344L94.9352 6.77344L94.9352 5.77344ZM87.0098 5.77344L87.0098 4.77344L83.047 4.77344L83.047 5.77344L83.047 6.77344L87.0098 6.77344L87.0098 5.77344ZM79.0843 5.77344L79.0843 4.77344L75.1215 4.77344L75.1215 5.77344L75.1215 6.77344L79.0843 6.77344L79.0843 5.77344ZM71.1588 5.77344L71.1588 4.77344L67.1961 4.77344L67.1961 5.77344L67.1961 6.77344L71.1588 6.77344L71.1588 5.77344ZM63.2333 5.77344L63.2333 4.77344L59.2706 4.77344L59.2706 5.77344L59.2706 6.77344L63.2333 6.77344L63.2333 5.77344ZM55.3078 5.77344L55.3078 4.77344L51.3451 4.77345L51.3451 5.77345L51.3451 6.77345L55.3078 6.77344L55.3078 5.77344ZM47.3824 5.77345L47.3824 4.77345L43.4196 4.77345L43.4196 5.77345L43.4196 6.77345L47.3824 6.77345L47.3824 5.77345ZM39.4569 5.77345L39.4569 4.77345L35.4941 4.77345L35.4941 5.77345L35.4941 6.77345L39.4569 6.77345L39.4569 5.77345ZM31.5314 5.77345L31.5314 4.77345L27.5687 4.77345L27.5687 5.77345L27.5687 6.77345L31.5314 6.77345L31.5314 5.77345ZM23.6059 5.77345L23.6059 4.77345L19.6432 4.77345L19.6432 5.77345L19.6432 6.77345L23.6059 6.77345L23.6059 5.77345ZM15.6805 5.77345L15.6805 4.77345L11.7177 4.77345L11.7177 5.77345L11.7177 6.77345L15.6805 6.77345L15.6805 5.77345ZM7.75499 5.77345L7.75499 4.77345L5.7735 4.77345L5.7735 5.77345L5.7735 6.77345L7.75499 6.77345L7.75499 5.77345Z" fill="#222222"/>
</svg>
