<svg width="193" height="42" viewBox="0 0 193 42" fill="none" xmlns="http://www.w3.org/2000/svg">
<path d="M22.5 36V0H27V36H22.5ZM0 36V31.5H4.5V36H0ZM4.5 40.5V36H22.5V40.5H4.5ZM47.4124 41.148C44.8924 41.148 42.6244 40.572 40.6084 39.42C38.5924 38.232 37.0084 36.576 35.8564 34.452C34.7044 32.292 34.1284 29.79 34.1284 26.946C34.1284 24.03 34.7044 21.51 35.8564 19.386C37.0444 17.226 38.6464 15.57 40.6624 14.418C42.7144 13.23 45.0004 12.636 47.5204 12.636C50.1124 12.636 52.3984 13.23 54.3784 14.418C56.3944 15.57 57.9784 17.226 59.1304 19.386C60.3184 21.51 60.9124 24.012 60.9124 26.892C60.9124 29.772 60.3184 32.292 59.1304 34.452C57.9424 36.576 56.3404 38.232 54.3244 39.42C52.3084 40.572 50.0044 41.148 47.4124 41.148ZM47.4664 37.26C49.0144 37.26 50.4544 36.882 51.7864 36.126C53.1184 35.334 54.1984 34.164 55.0264 32.616C55.8544 31.068 56.2684 29.16 56.2684 26.892C56.2684 24.588 55.8544 22.68 55.0264 21.168C54.2344 19.62 53.1724 18.468 51.8404 17.712C50.5444 16.92 49.1044 16.524 47.5204 16.524C46.0084 16.524 44.5684 16.92 43.2004 17.712C41.8684 18.468 40.7884 19.62 39.9604 21.168C39.1684 22.68 38.7724 24.588 38.7724 26.892C38.7724 29.16 39.1684 31.068 39.9604 32.616C40.7884 34.164 41.8504 35.334 43.1464 36.126C44.4784 36.882 45.9184 37.26 47.4664 37.26ZM77.1542 41.148C75.0662 41.148 73.2302 40.734 71.6462 39.906C70.0982 39.078 68.8922 37.8 68.0282 36.072C67.2002 34.344 66.7862 32.184 66.7862 29.592V13.284H71.3222V29.106C71.3222 31.806 71.9162 33.84 73.1042 35.208C74.2922 36.576 75.9662 37.26 78.1262 37.26C79.6382 37.26 81.0062 36.9 82.2302 36.18C83.4542 35.424 84.4082 34.362 85.0922 32.994C85.8122 31.59 86.1722 29.88 86.1722 27.864V13.284H90.7082V40.5H86.6042L86.3342 35.748C85.5062 37.44 84.2822 38.772 82.6622 39.744C81.0422 40.68 79.2062 41.148 77.1542 41.148ZM96.0673 40.5V9H100.567V13.5H105.067V18H100.567V40.5H96.0673ZM105.067 13.5V9H114.067V13.5H105.067ZM120.205 40.5V9H124.705V13.5H129.205V18H124.705V40.5H120.205ZM129.205 13.5V9H142.705V13.5H129.205ZM142.705 40.5V13.5H147.205V40.5H142.705ZM164.323 41.148C162.127 41.148 160.291 40.77 158.815 40.014C157.339 39.222 156.241 38.196 155.521 36.936C154.801 35.64 154.441 34.236 154.441 32.724C154.441 30.888 154.909 29.34 155.845 28.08C156.817 26.784 158.167 25.812 159.895 25.164C161.659 24.48 163.729 24.138 166.105 24.138H173.287C173.287 22.446 173.017 21.042 172.477 19.926C171.973 18.774 171.217 17.91 170.209 17.334C169.237 16.758 168.013 16.47 166.537 16.47C164.809 16.47 163.315 16.902 162.055 17.766C160.795 18.63 160.021 19.908 159.733 21.6H155.089C155.305 19.656 155.953 18.036 157.033 16.74C158.149 15.408 159.553 14.4 161.245 13.716C162.937 12.996 164.701 12.636 166.537 12.636C169.057 12.636 171.145 13.104 172.801 14.04C174.493 14.94 175.753 16.218 176.581 17.874C177.409 19.494 177.823 21.42 177.823 23.652V40.5H173.773L173.503 35.694C173.143 36.45 172.675 37.17 172.099 37.854C171.559 38.502 170.911 39.078 170.155 39.582C169.399 40.05 168.535 40.428 167.563 40.716C166.627 41.004 165.547 41.148 164.323 41.148ZM165.025 37.314C166.285 37.314 167.419 37.062 168.427 36.558C169.471 36.018 170.353 35.298 171.073 34.398C171.793 33.462 172.333 32.436 172.693 31.32C173.089 30.204 173.287 29.034 173.287 27.81V27.648H166.483C164.719 27.648 163.297 27.864 162.217 28.296C161.137 28.692 160.363 29.268 159.895 30.024C159.427 30.744 159.193 31.572 159.193 32.508C159.193 33.48 159.409 34.326 159.841 35.046C160.309 35.766 160.975 36.324 161.839 36.72C162.739 37.116 163.801 37.314 165.025 37.314ZM183.22 36V0H187.72V36H183.22ZM187.72 40.5V36H192.22V40.5H187.72Z" fill="#222222"/>
</svg>
