<svg width="109" height="12" viewBox="0 0 109 12" fill="none" xmlns="http://www.w3.org/2000/svg">
<path d="M108.625 5.77344L102.852 -6.53267e-05L97.0782 5.77344L102.852 11.5469L108.625 5.77344ZM0 5.77344V6.77344H1.97792V5.77344V4.77344H0V5.77344ZM5.93375 5.77344V6.77344H9.88958V5.77344V4.77344H5.93375V5.77344ZM13.8454 5.77344V6.77344H17.8013V5.77344V4.77344H13.8454V5.77344ZM21.7571 5.77344V6.77344H25.7129V5.77344V4.77344H21.7571V5.77344ZM29.6688 5.77344V6.77344H33.6246V5.77344V4.77344H29.6688V5.77344ZM37.5804 5.77344V6.77344H41.5363V5.77344V4.77344H37.5804V5.77344ZM45.4921 5.77344V6.77344H49.4479V5.77344V4.77344H45.4921V5.77344ZM53.4038 5.77344V6.77344H57.3596V5.77344V4.77344H53.4038V5.77344ZM61.3154 5.77344V6.77344H65.2712V5.77344V4.77344H61.3154V5.77344ZM69.2271 5.77344V6.77344H73.1829V5.77344V4.77344H69.2271V5.77344ZM77.1388 5.77344V6.77344H81.0946V5.77344V4.77344H77.1388V5.77344ZM85.0504 5.77344V6.77344H89.0063V5.77344V4.77344H85.0504V5.77344ZM92.9621 5.77344V6.77344H96.9179V5.77344V4.77344H92.9621V5.77344ZM100.874 5.77344V6.77344H102.852V5.77344V4.77344H100.874V5.77344Z" fill="#222222"/>
</svg>
