<svg width="337" height="144" viewBox="0 0 337 144" fill="none" xmlns="http://www.w3.org/2000/svg">
<g clip-path="url(#clip0_286_10113)">
<path d="M316.289 53.2412H324.688V55.2963H321.729V62.991H319.2V55.2963H316.242V53.2412H316.289Z" fill="#222222"/>
<path d="M329.031 53.2412L331.369 58.9286H331.512L333.85 53.2412H337.048V62.991H334.519V57.2558H334.423L332.18 62.9432H330.653L328.458 57.208H328.363V62.991H325.833V53.2412H329.031Z" fill="#222222"/>
<path d="M53.9238 0H35.9333V18.0179H53.9238V0Z" fill="#222222"/>
<path d="M71.9143 18.0176H53.9238V36.0355H71.9143V18.0176Z" fill="#222222"/>
<path d="M320.584 107.057C320.584 81.2006 304.502 71.9766 289.471 71.9766C270.144 71.9766 257.164 86.5056 257.164 108.156C257.164 129.806 270.192 143.953 290.33 143.953C305.218 143.953 316.432 136.593 319.677 124.74L320.25 122.637H303.93L303.453 123.497C301.257 127.56 296.533 129.854 290.473 129.854C280.642 129.854 274.439 123.736 273.532 113.365H320.584V107.057ZM304.407 100.27H273.723C274.82 92.9576 280.356 86.0755 289.614 86.0755C297.965 86.0755 303.739 91.715 304.407 100.27Z" fill="#222222"/>
<path d="M146.596 71.9766H128.606V89.9945H146.596V71.9766Z" fill="#222222"/>
<path d="M110.663 71.9766H92.6726V89.9945H110.663V71.9766Z" fill="#222222"/>
<path d="M128.606 54.1016H110.615V143.952H128.606V54.1016Z" fill="#222222"/>
<path d="M82.1264 58.163C82.1264 53.2881 78.1657 49.3213 73.2982 49.3213C68.4307 49.3213 64.47 53.2881 64.47 58.163C64.47 63.0379 68.4307 67.0047 73.2982 67.0047C78.1657 67.0047 82.1264 63.0379 82.1264 58.163Z" fill="#222222"/>
<path d="M82.2696 71.9756H64.2791V143.952H82.2696V71.9756Z" fill="#222222"/>
<path d="M192.885 54.0059H174.895V72.0238H192.885V54.0059Z" fill="#222222"/>
<path d="M228.866 54.0059H210.876V72.0238H228.866V54.0059Z" fill="#222222"/>
<path d="M210.876 71.9756H192.885V143.952H210.876V71.9756Z" fill="#222222"/>
<path d="M174.942 71.9756H156.952V143.952H174.942V71.9756Z" fill="#222222"/>
<path d="M246.809 71.9756H228.818V143.952H246.809V71.9756Z" fill="#222222"/>
<path d="M35.981 18.0176H17.9905V144H35.981V18.0176Z" fill="#222222"/>
<path d="M53.9238 71.9756H0V89.9935H53.9238V71.9756Z" fill="#222222"/>
</g>
<defs>
<clipPath id="clip0_286_10113">
<rect width="337" height="144" fill="white"/>
</clipPath>
</defs>
</svg>
