<svg width="110" height="47" viewBox="0 0 110 47" fill="none" xmlns="http://www.w3.org/2000/svg">
<g clip-path="url(#clip0_221_6504)">
<path d="M103.24 17.3774H105.981V18.0481H105.016V20.5596H104.19V18.0481H103.224V17.3774H103.24Z" fill="#222222"/>
<path d="M107.399 17.3774L108.162 19.2337H108.209L108.972 17.3774H110.016V20.5596H109.19V18.6877H109.159L108.427 20.544H107.928L107.212 18.6721H107.181V20.5596H106.355V17.3774H107.399Z" fill="#222222"/>
<path d="M17.6012 0H11.729V5.88085H17.6012V0Z" fill="#222222"/>
<path d="M23.4735 5.88085H17.6012V11.7617H23.4735V5.88085Z" fill="#222222"/>
<path d="M104.642 34.9419C104.642 26.5028 99.3925 23.4922 94.486 23.4922C88.1776 23.4922 83.9408 28.2343 83.9408 35.3007C83.9408 42.3671 88.1931 46.9844 94.7663 46.9844C99.6262 46.9844 103.287 44.5821 104.346 40.7136L104.533 40.0272H99.2056L99.0498 40.308C98.3333 41.6339 96.7913 42.3827 94.8131 42.3827C91.6044 42.3827 89.5794 40.386 89.2835 37.001H104.642V34.9419ZM99.3614 32.7268H89.3458C89.704 30.3402 91.5109 28.0939 94.5327 28.0939C97.2586 28.0939 99.1433 29.9346 99.3614 32.7268Z" fill="#222222"/>
<path d="M47.8505 23.4922H41.9782V29.3731H47.8505V23.4922Z" fill="#222222"/>
<path d="M36.1215 23.4922H30.2492V29.3731H36.1215V23.4922Z" fill="#222222"/>
<path d="M41.9782 17.6581H36.1059V46.9844H41.9782V17.6581Z" fill="#222222"/>
<path d="M26.8069 18.9841C26.8069 17.393 25.514 16.0982 23.9252 16.0982C22.3364 16.0982 21.0436 17.393 21.0436 18.9841C21.0436 20.5752 22.3364 21.8699 23.9252 21.8699C25.514 21.8699 26.8069 20.5752 26.8069 18.9841Z" fill="#222222"/>
<path d="M26.8536 23.4922H20.9813V46.9844H26.8536V23.4922Z" fill="#222222"/>
<path d="M62.9595 17.627H57.0872V23.5078H62.9595V17.627Z" fill="#222222"/>
<path d="M74.704 17.627H68.8318V23.5078H74.704V17.627Z" fill="#222222"/>
<path d="M68.8318 23.4922H62.9595V46.9844H68.8318V23.4922Z" fill="#222222"/>
<path d="M57.1028 23.4922H51.2305V46.9844H57.1028V23.4922Z" fill="#222222"/>
<path d="M80.5608 23.4922H74.6885V46.9844H80.5608V23.4922Z" fill="#222222"/>
<path d="M11.7445 5.88085H5.87227V47H11.7445V5.88085Z" fill="#222222"/>
<path d="M17.6012 23.4922H0V29.3731H17.6012V23.4922Z" fill="#222222"/>
</g>
<defs>
<clipPath id="clip0_221_6504">
<rect width="110" height="47" fill="white"/>
</clipPath>
</defs>
</svg>
