<svg width="420" height="341" viewBox="0 0 420 341" fill="none" xmlns="http://www.w3.org/2000/svg">
<path d="M419.26 130.943H393.051V157.132H419.26V130.943Z" fill="#7A9A3D"/>
<path d="M393.051 104.754H366.843V130.943H393.051V104.754Z" fill="#F9BCC0"/>
<path d="M366.843 130.943H340.671V157.132H366.843V130.943Z" fill="#BEDAFF"/>
<path d="M366.843 52.3765H340.671V78.5652H366.843V52.3765Z" fill="#7A9A3D"/>
<path d="M340.671 104.754H314.463V130.943H340.671V104.754Z" fill="#7A9A3D"/>
<path d="M314.463 130.943H288.255V157.132H314.463V130.943Z" fill="#F9BCC0"/>
<path d="M262.046 209.474H235.838V235.662H262.046V209.474Z" fill="#BEDAFF"/>
<path d="M262.046 157.132H235.838V183.285H262.046V157.132Z" fill="#7A9A3D"/>
<path d="M235.838 157.132H209.63V183.285H235.838V157.132Z" fill="#F9BCC0"/>
<path d="M209.63 183.284H183.422V209.472H209.63V183.284Z" fill="#7A9A3D"/>
<path d="M209.63 52.3765H183.422V78.5652H209.63V52.3765Z" fill="#F9BCC0"/>
<path d="M183.421 26.189H157.213V52.3777H183.421V26.189Z" fill="#7A9A3D"/>
<path d="M157.213 130.943H131.005V157.132H157.213V130.943Z" fill="#7A9A3D"/>
<path d="M157.213 52.3765H131.005V78.5652H157.213V52.3765Z" fill="#7A9A3D"/>
<path d="M157.213 0H131.005V26.1887H157.213V0Z" fill="#BEDAFF"/>
<path d="M131.005 209.474H104.832V235.662H131.005V209.474Z" fill="#F9BCC0"/>
<path d="M131.005 157.132H104.832V183.285H131.005V157.132Z" fill="#BEDAFF"/>
<path d="M104.833 130.943H78.6246V157.132H104.833V130.943Z" fill="#7A9A3D"/>
<path d="M78.6247 235.661H52.4165V261.85H78.6247V235.661Z" fill="#7A9A3D"/>
<path d="M78.6247 183.284H52.4165V209.472H78.6247V183.284Z" fill="#7A9A3D"/>
<path d="M52.4161 314.228H26.2078V340.416H52.4161V314.228Z" fill="#BEDAFF"/>
<path d="M52.4161 261.851H26.2078V288.04H52.4161V261.851Z" fill="#F9BCC0"/>
<path d="M52.4161 157.132H26.2078V183.285H52.4161V157.132Z" fill="#F9BCC0"/>
<path d="M26.2082 288.04H0V314.229H26.2082V288.04Z" fill="#7A9A3D"/>
</svg>
