<svg width="367" height="53" viewBox="0 0 367 53" fill="none" xmlns="http://www.w3.org/2000/svg">
<path d="M0 40.5V0H4.5V4.5H9V13.5H4.5V40.5H0ZM31.5 13.5V4.5H36V0H40.5V40.5H36V13.5H31.5ZM9 22.5V13.5H13.5V22.5H9ZM27 22.5V13.5H31.5V22.5H27ZM13.5 31.5V22.5H18V31.5H13.5ZM22.5 31.5V22.5H27V31.5H22.5ZM18 40.5V31.5H22.5V40.5H18ZM60.5224 41.22C57.7224 41.22 55.2024 40.58 52.9624 39.3C50.7224 37.98 48.9624 36.14 47.6824 33.78C46.4024 31.38 45.7624 28.6 45.7624 25.44C45.7624 22.2 46.4024 19.4 47.6824 17.04C49.0024 14.64 50.7824 12.8 53.0224 11.52C55.3024 10.2 57.8424 9.54 60.6424 9.54C63.5224 9.54 66.0624 10.2 68.2624 11.52C70.5024 12.8 72.2624 14.64 73.5424 17.04C74.8624 19.4 75.5224 22.18 75.5224 25.38C75.5224 28.58 74.8624 31.38 73.5424 33.78C72.2224 36.14 70.4424 37.98 68.2024 39.3C65.9624 40.58 63.4024 41.22 60.5224 41.22ZM60.5824 36.9C62.3024 36.9 63.9024 36.48 65.3824 35.64C66.8624 34.76 68.0624 33.46 68.9824 31.74C69.9024 30.02 70.3624 27.9 70.3624 25.38C70.3624 22.82 69.9024 20.7 68.9824 19.02C68.1024 17.3 66.9224 16.02 65.4424 15.18C64.0024 14.3 62.4024 13.86 60.6424 13.86C58.9624 13.86 57.3624 14.3 55.8424 15.18C54.3624 16.02 53.1624 17.3 52.2424 19.02C51.3624 20.7 50.9224 22.82 50.9224 25.38C50.9224 27.9 51.3624 30.02 52.2424 31.74C53.1624 33.46 54.3424 34.76 55.7824 35.64C57.2624 36.48 58.8624 36.9 60.5824 36.9ZM79.5888 40.5V9H84.0888V13.5H88.5888V18H84.0888V40.5H79.5888ZM88.5888 13.5V9H102.089V13.5H88.5888ZM102.089 40.5V13.5H106.589V40.5H102.089ZM112.151 13.5V9H116.651V0H121.151V9H130.151V13.5H121.151V36H116.651V13.5H112.151ZM121.151 40.5V36H130.151V40.5H121.151ZM135.749 40.5V0H140.249V13.5H144.749V18H140.249V40.5H135.749ZM144.749 13.5V9H153.749V13.5H144.749ZM153.749 18V13.5H158.249V18H153.749ZM158.249 40.5V18H162.749V40.5H158.249ZM168.311 36V0H172.811V36H168.311ZM172.811 40.5V36H177.311V40.5H172.811ZM187.481 52.38L194.123 37.476H192.557L181.865 13.284H186.779L195.635 34.074L204.923 13.284H209.621L192.233 52.38H187.481ZM229.98 4.5V0H252.48V4.5H229.98ZM225.48 18V4.5H229.98V18H225.48ZM252.48 9V4.5H256.98V9H252.48ZM229.98 22.5V18H252.48V22.5H229.98ZM252.48 36V22.5H256.98V36H252.48ZM225.48 36V31.5H229.98V36H225.48ZM229.98 40.5V36H252.48V40.5H229.98ZM260.417 13.5V9H264.917V0H269.417V9H278.417V13.5H269.417V36H264.917V13.5H260.417ZM269.417 40.5V36H278.417V40.5H269.417ZM297.395 41.22C294.595 41.22 292.075 40.58 289.835 39.3C287.595 37.98 285.835 36.14 284.555 33.78C283.275 31.38 282.635 28.6 282.635 25.44C282.635 22.2 283.275 19.4 284.555 17.04C285.875 14.64 287.655 12.8 289.895 11.52C292.175 10.2 294.715 9.54 297.515 9.54C300.395 9.54 302.935 10.2 305.135 11.52C307.375 12.8 309.135 14.64 310.415 17.04C311.735 19.4 312.395 22.18 312.395 25.38C312.395 28.58 311.735 31.38 310.415 33.78C309.095 36.14 307.315 37.98 305.075 39.3C302.835 40.58 300.275 41.22 297.395 41.22ZM297.455 36.9C299.175 36.9 300.775 36.48 302.255 35.64C303.735 34.76 304.935 33.46 305.855 31.74C306.775 30.02 307.235 27.9 307.235 25.38C307.235 22.82 306.775 20.7 305.855 19.02C304.975 17.3 303.795 16.02 302.315 15.18C300.875 14.3 299.275 13.86 297.515 13.86C295.835 13.86 294.235 14.3 292.715 15.18C291.235 16.02 290.035 17.3 289.115 19.02C288.235 20.7 287.795 22.82 287.795 25.38C287.795 27.9 288.235 30.02 289.115 31.74C290.035 33.46 291.215 34.76 292.655 35.64C294.135 36.48 295.735 36.9 297.455 36.9ZM318.261 40.5V9H322.761V13.5H327.261V18H322.761V40.5H318.261ZM327.261 13.5V9H336.261V13.5H327.261ZM352.839 41.22C349.999 41.22 347.479 40.56 345.279 39.24C343.119 37.92 341.419 36.08 340.179 33.72C338.939 31.32 338.319 28.54 338.319 25.38C338.319 22.18 338.919 19.4 340.119 17.04C341.359 14.68 343.079 12.84 345.279 11.52C347.519 10.2 350.079 9.54 352.959 9.54C355.919 9.54 358.419 10.2 360.459 11.52C362.539 12.84 364.119 14.58 365.199 16.74C366.319 18.86 366.879 21.2 366.879 23.76C366.879 24.16 366.879 24.58 366.879 25.02C366.879 25.46 366.859 25.96 366.819 26.52H342.099V22.62H361.959C361.839 19.86 360.919 17.7 359.199 16.14C357.519 14.58 355.399 13.8 352.839 13.8C351.119 13.8 349.519 14.2 348.039 15C346.599 15.76 345.439 16.9 344.559 18.42C343.679 19.9 343.239 21.76 343.239 24V25.68C343.239 28.16 343.679 30.24 344.559 31.92C345.479 33.6 346.659 34.86 348.099 35.7C349.579 36.54 351.159 36.96 352.839 36.96C354.959 36.96 356.699 36.5 358.059 35.58C359.459 34.62 360.459 33.34 361.059 31.74H366.039C365.559 33.54 364.719 35.16 363.519 36.6C362.319 38.04 360.819 39.18 359.019 40.02C357.259 40.82 355.199 41.22 352.839 41.22Z" fill="#222222"/>
</svg>
