<svg width="174" height="50" viewBox="0 0 174 50" fill="none" xmlns="http://www.w3.org/2000/svg">
<path d="M0 40.5V0H22.5V4.5H4.5V18H22.5V22.5H4.5V40.5H0ZM22.5 18V4.5H27V18H22.5ZM31.4824 40.5V9H35.9824V13.5H40.4824V18H35.9824V40.5H31.4824ZM40.4824 13.5V9H49.4824V13.5H40.4824ZM64.53 41.148C62.01 41.148 59.742 40.572 57.726 39.42C55.71 38.232 54.126 36.576 52.974 34.452C51.822 32.292 51.246 29.79 51.246 26.946C51.246 24.03 51.822 21.51 52.974 19.386C54.162 17.226 55.764 15.57 57.78 14.418C59.832 13.23 62.118 12.636 64.638 12.636C67.23 12.636 69.516 13.23 71.496 14.418C73.512 15.57 75.096 17.226 76.248 19.386C77.436 21.51 78.03 24.012 78.03 26.892C78.03 29.772 77.436 32.292 76.248 34.452C75.06 36.576 73.458 38.232 71.442 39.42C69.426 40.572 67.122 41.148 64.53 41.148ZM64.584 37.26C66.132 37.26 67.572 36.882 68.904 36.126C70.236 35.334 71.316 34.164 72.144 32.616C72.972 31.068 73.386 29.16 73.386 26.892C73.386 24.588 72.972 22.68 72.144 21.168C71.352 19.62 70.29 18.468 68.958 17.712C67.662 16.92 66.222 16.524 64.638 16.524C63.126 16.524 61.686 16.92 60.318 17.712C58.986 18.468 57.906 19.62 57.078 21.168C56.286 22.68 55.89 24.588 55.89 26.892C55.89 29.16 56.286 31.068 57.078 32.616C57.906 34.164 58.968 35.334 60.264 36.126C61.596 36.882 63.036 37.26 64.584 37.26ZM84.2098 9V0H88.7098V9H84.2098ZM84.2098 45V13.5H88.7098V45H84.2098ZM75.2098 49.5V45H84.2098V49.5H75.2098ZM108.906 41.148C106.35 41.148 104.082 40.554 102.102 39.366C100.158 38.178 98.6282 36.522 97.5122 34.398C96.3962 32.238 95.8382 29.736 95.8382 26.892C95.8382 24.012 96.3782 21.51 97.4582 19.386C98.5742 17.262 100.122 15.606 102.102 14.418C104.118 13.23 106.422 12.636 109.014 12.636C111.678 12.636 113.928 13.23 115.764 14.418C117.636 15.606 119.058 17.172 120.03 19.116C121.038 21.024 121.542 23.13 121.542 25.434C121.542 25.794 121.542 26.172 121.542 26.568C121.542 26.964 121.524 27.414 121.488 27.918H99.2402V24.408H117.114C117.006 21.924 116.178 19.98 114.63 18.576C113.118 17.172 111.21 16.47 108.906 16.47C107.358 16.47 105.918 16.83 104.586 17.55C103.29 18.234 102.246 19.26 101.454 20.628C100.662 21.96 100.266 23.634 100.266 25.65V27.162C100.266 29.394 100.662 31.266 101.454 32.778C102.282 34.29 103.344 35.424 104.64 36.18C105.972 36.936 107.394 37.314 108.906 37.314C110.814 37.314 112.38 36.9 113.604 36.072C114.864 35.208 115.764 34.056 116.304 32.616H120.786C120.354 34.236 119.598 35.694 118.518 36.99C117.438 38.286 116.088 39.312 114.468 40.068C112.884 40.788 111.03 41.148 108.906 41.148ZM132.884 13.5V9H146.384V13.5H132.884ZM128.384 18V13.5H132.884V18H128.384ZM146.384 18V13.5H150.884V18H146.384ZM123.884 31.5V18H128.384V31.5H123.884ZM128.384 36V31.5H132.884V36H128.384ZM146.384 36V31.5H150.884V36H146.384ZM132.884 40.5V36H146.384V40.5H132.884ZM155.366 13.5V9H159.866V0H164.366V9H173.366V13.5H164.366V36H159.866V13.5H155.366ZM164.366 40.5V36H173.366V40.5H164.366Z" fill="#222222"/>
</svg>
