<svg width="207" height="42" viewBox="0 0 207 42" fill="none" xmlns="http://www.w3.org/2000/svg">
<path d="M0 40.5V0H27V4.5H4.5V18H27V22.5H18V27H13.5V22.5H4.5V40.5H0ZM27 18V4.5H31.5V18H27ZM18 31.5V27H22.5V31.5H18ZM22.5 36V31.5H27V36H22.5ZM27 40.5V36H31.5V40.5H27ZM51.7316 41.148C49.1756 41.148 46.9076 40.554 44.9276 39.366C42.9836 38.178 41.4536 36.522 40.3376 34.398C39.2216 32.238 38.6636 29.736 38.6636 26.892C38.6636 24.012 39.2036 21.51 40.2836 19.386C41.3996 17.262 42.9476 15.606 44.9276 14.418C46.9436 13.23 49.2476 12.636 51.8396 12.636C54.5036 12.636 56.7536 13.23 58.5896 14.418C60.4616 15.606 61.8836 17.172 62.8556 19.116C63.8636 21.024 64.3676 23.13 64.3676 25.434C64.3676 25.794 64.3676 26.172 64.3676 26.568C64.3676 26.964 64.3496 27.414 64.3136 27.918H42.0656V24.408H59.9396C59.8316 21.924 59.0036 19.98 57.4556 18.576C55.9436 17.172 54.0356 16.47 51.7316 16.47C50.1836 16.47 48.7436 16.83 47.4116 17.55C46.1156 18.234 45.0716 19.26 44.2796 20.628C43.4876 21.96 43.0916 23.634 43.0916 25.65V27.162C43.0916 29.394 43.4876 31.266 44.2796 32.778C45.1076 34.29 46.1696 35.424 47.4656 36.18C48.7976 36.936 50.2196 37.314 51.7316 37.314C53.6396 37.314 55.2056 36.9 56.4296 36.072C57.6896 35.208 58.5896 34.056 59.1296 32.616H63.6116C63.1796 34.236 62.4236 35.694 61.3436 36.99C60.2636 38.286 58.9136 39.312 57.2936 40.068C55.7096 40.788 53.8556 41.148 51.7316 41.148ZM66.709 18V9H71.209V18H66.709ZM84.709 18V9H89.209V18H84.709ZM71.209 31.5V18H75.709V31.5H71.209ZM80.209 31.5V18H84.709V31.5H80.209ZM75.709 40.5V31.5H80.209V40.5H75.709ZM96.301 40.5V13.284H100.837V40.5H96.301ZM98.569 7.506C97.669 7.506 96.913 7.218 96.301 6.642C95.725 6.03 95.437 5.274 95.437 4.374C95.437 3.474 95.725 2.754 96.301 2.214C96.913 1.638 97.669 1.35 98.569 1.35C99.433 1.35 100.171 1.638 100.783 2.214C101.395 2.754 101.701 3.474 101.701 4.374C101.701 5.274 101.395 6.03 100.783 6.642C100.171 7.218 99.433 7.506 98.569 7.506ZM119.156 41.148C116.6 41.148 114.332 40.554 112.352 39.366C110.408 38.178 108.878 36.522 107.762 34.398C106.646 32.238 106.088 29.736 106.088 26.892C106.088 24.012 106.628 21.51 107.708 19.386C108.824 17.262 110.372 15.606 112.352 14.418C114.368 13.23 116.672 12.636 119.264 12.636C121.928 12.636 124.178 13.23 126.014 14.418C127.886 15.606 129.308 17.172 130.28 19.116C131.288 21.024 131.792 23.13 131.792 25.434C131.792 25.794 131.792 26.172 131.792 26.568C131.792 26.964 131.774 27.414 131.738 27.918H109.49V24.408H127.364C127.256 21.924 126.428 19.98 124.88 18.576C123.368 17.172 121.46 16.47 119.156 16.47C117.608 16.47 116.168 16.83 114.836 17.55C113.54 18.234 112.496 19.26 111.704 20.628C110.912 21.96 110.516 23.634 110.516 25.65V27.162C110.516 29.394 110.912 31.266 111.704 32.778C112.532 34.29 113.594 35.424 114.89 36.18C116.222 36.936 117.644 37.314 119.156 37.314C121.064 37.314 122.63 36.9 123.854 36.072C125.114 35.208 126.014 34.056 126.554 32.616H131.036C130.604 34.236 129.848 35.694 128.768 36.99C127.688 38.286 126.338 39.312 124.718 40.068C123.134 40.788 121.28 41.148 119.156 41.148ZM134.133 22.5V9H138.633V22.5H134.133ZM152.133 22.5V9H156.633V22.5H152.133ZM170.133 22.5V9H174.633V22.5H170.133ZM138.633 31.5V22.5H143.133V31.5H138.633ZM147.633 31.5V22.5H152.133V31.5H147.633ZM156.633 31.5V22.5H161.133V31.5H156.633ZM165.633 31.5V22.5H170.133V31.5H165.633ZM143.133 40.5V31.5H147.633V40.5H143.133ZM161.133 40.5V31.5H165.633V40.5H161.133ZM183.615 13.5V9H201.615V13.5H183.615ZM179.115 22.5V13.5H183.615V22.5H179.115ZM201.615 18V13.5H206.115V18H201.615ZM183.615 27V22.5H201.615V27H183.615ZM201.615 36V27H206.115V36H201.615ZM179.115 36V31.5H183.615V36H179.115ZM183.615 40.5V36H201.615V40.5H183.615Z" fill="#222222"/>
</svg>
