<svg width="129" height="42" viewBox="0 0 129 42" fill="none" xmlns="http://www.w3.org/2000/svg">
<path d="M4.5 4.5V0H27V4.5H4.5ZM0 18V4.5H4.5V18H0ZM27 9V4.5H31.5V9H27ZM4.5 22.5V18H27V22.5H4.5ZM27 36V22.5H31.5V36H27ZM0 36V31.5H4.5V36H0ZM4.5 40.5V36H27V40.5H4.5ZM36.0176 13.5V9H40.5176V0H45.0176V9H54.0176V13.5H45.0176V36H40.5176V13.5H36.0176ZM45.0176 40.5V36H54.0176V40.5H45.0176ZM69.0652 41.148C66.5452 41.148 64.2772 40.572 62.2612 39.42C60.2452 38.232 58.6612 36.576 57.5092 34.452C56.3572 32.292 55.7812 29.79 55.7812 26.946C55.7812 24.03 56.3572 21.51 57.5092 19.386C58.6972 17.226 60.2992 15.57 62.3152 14.418C64.3672 13.23 66.6532 12.636 69.1732 12.636C71.7652 12.636 74.0512 13.23 76.0312 14.418C78.0472 15.57 79.6312 17.226 80.7832 19.386C81.9712 21.51 82.5652 24.012 82.5652 26.892C82.5652 29.772 81.9712 32.292 80.7832 34.452C79.5952 36.576 77.9932 38.232 75.9772 39.42C73.9612 40.572 71.6572 41.148 69.0652 41.148ZM69.1192 37.26C70.6672 37.26 72.1072 36.882 73.4392 36.126C74.7712 35.334 75.8512 34.164 76.6792 32.616C77.5072 31.068 77.9212 29.16 77.9212 26.892C77.9212 24.588 77.5072 22.68 76.6792 21.168C75.8872 19.62 74.8252 18.468 73.4932 17.712C72.1972 16.92 70.7572 16.524 69.1732 16.524C67.6612 16.524 66.2212 16.92 64.8532 17.712C63.5212 18.468 62.4412 19.62 61.6132 21.168C60.8212 22.68 60.4252 24.588 60.4252 26.892C60.4252 29.16 60.8212 31.068 61.6132 32.616C62.4412 34.164 63.5032 35.334 64.7992 36.126C66.1312 36.882 67.5712 37.26 69.1192 37.26ZM86.7649 40.5V9H91.2649V13.5H95.7649V18H91.2649V40.5H86.7649ZM95.7649 13.5V9H104.765V13.5H95.7649ZM116.357 41.148C113.801 41.148 111.533 40.554 109.553 39.366C107.609 38.178 106.079 36.522 104.963 34.398C103.847 32.238 103.289 29.736 103.289 26.892C103.289 24.012 103.829 21.51 104.909 19.386C106.025 17.262 107.573 15.606 109.553 14.418C111.569 13.23 113.873 12.636 116.465 12.636C119.129 12.636 121.379 13.23 123.215 14.418C125.087 15.606 126.509 17.172 127.481 19.116C128.489 21.024 128.993 23.13 128.993 25.434C128.993 25.794 128.993 26.172 128.993 26.568C128.993 26.964 128.975 27.414 128.939 27.918H106.691V24.408H124.565C124.457 21.924 123.629 19.98 122.081 18.576C120.569 17.172 118.661 16.47 116.357 16.47C114.809 16.47 113.369 16.83 112.037 17.55C110.741 18.234 109.697 19.26 108.905 20.628C108.113 21.96 107.717 23.634 107.717 25.65V27.162C107.717 29.394 108.113 31.266 108.905 32.778C109.733 34.29 110.795 35.424 112.091 36.18C113.423 36.936 114.845 37.314 116.357 37.314C118.265 37.314 119.831 36.9 121.055 36.072C122.315 35.208 123.215 34.056 123.755 32.616H128.237C127.805 34.236 127.049 35.694 125.969 36.99C124.889 38.286 123.539 39.312 121.919 40.068C120.335 40.788 118.481 41.148 116.357 41.148Z" fill="#222222"/>
</svg>
